<svg xmlns="http://www.w3.org/2000/svg" viewBox="0 0 500 500"><g><g><path d="M250 43.7c66.8 0 74.7.3 101 1.5 24.4 1.1 37.6 5.2 46.4 8.6 10.9 4 20.7 10.4 28.8 18.7 8.3 8.1 14.7 17.9 18.7 28.8 3.4 8.8 7.5 22 8.6 46.4 1.2 26.4 1.5 34.3 1.5 101s-.3 74.7-1.5 101c-1.1 24.4-5.2 37.6-8.6 46.4-8.4 21.8-25.6 39-47.4 47.4-8.8 3.4-22 7.5-46.4 8.6-26.4 1.2-34.3 1.5-101 1.5s-74.7-.3-101-1.5c-24.4-1.1-37.6-5.2-46.4-8.6-10.9-4-20.7-10.4-28.8-18.7-8.3-8.1-14.7-17.9-18.7-28.8-3.4-8.8-7.5-22-8.6-46.4-1.2-26.4-1.5-34.3-1.5-101s.3-74.7 1.5-101c1.1-24.4 5.2-37.6 8.6-46.4 4-10.9 10.4-20.7 18.7-28.8 8.1-8.3 17.9-14.7 28.8-18.7 8.8-3.4 22-7.5 46.4-8.6 26.3-1.2 34.2-1.5 100.9-1.4m0-45.1c-67.9 0-76.4.3-103.1 1.5s-44.8 5.5-60.7 11.6C69.6 18 54.5 27.9 42 40.6 29.3 53.1 19.4 68.2 13.1 84.9c-6.1 15.9-10.4 34-11.6 60.6S0 180.7 0 248.6.3 325 1.5 351.7s5.4 44.8 11.6 60.7c6.3 16.7 16.1 31.8 28.8 44.3 12.5 12.7 27.6 22.6 44.3 28.8 15.9 6.2 34.1 10.4 60.7 11.6s35.2 1.5 103.1 1.5 76.4-.3 103.1-1.5 44.8-5.4 60.7-11.6c33.6-13 60.1-39.5 73.1-73.1 6.2-15.9 10.4-34.1 11.6-60.7s1.5-35.2 1.5-103.1-.3-76.4-1.5-103.1c-1.2-26.7-5.4-44.8-11.6-60.7-6.3-16.7-16.1-31.8-28.8-44.3-12.5-12.7-27.6-22.6-44.3-28.8C397.9 5.5 379.7 1.3 353.1.1 326.5-1.1 317.9-1.4 250-1.4z"/><path d="M250 120.2c-70.9 0-128.4 57.5-128.4 128.4S179.1 377 250 377s128.4-57.5 128.4-128.4S320.9 120.2 250 120.2zm0 211.7c-46 0-83.4-37.3-83.4-83.4s37.3-83.4 83.4-83.4 83.4 37.3 83.4 83.4c-.1 46.1-37.4 83.4-83.4 83.4z"/><circle cx="383.4" cy="115.2" r="30"/></g></g></svg>