<svg xmlns="http://www.w3.org/2000/svg" viewBox="0 0 20 20"><g><path fill="#db4500" d="M10 0C4.5 0 0 4.5 0 10s4.5 10 10 10 10-4.5 10-10S15.5 0 10 0zm3.7 10.5C11.5 11.7 9.2 13 7 14.2c-.5.3-.8 0-.8-.5v-3.6-3.7c0-.5.4-.8.8-.5 2.3 1.2 4.5 2.5 6.7 3.7.2 0 .3.2.3.4s-.1.4-.3.5z"/><path fill="#fb7c41" d="M10 .6C4.8.6.6 4.8.6 10s4.2 9.4 9.4 9.4 9.4-4.2 9.4-9.4S15.2.6 10 .6zm4 10.2c-1.2.7-2.5 1.4-3.7 2-1.1.6-2.1 1.2-3.2 1.8-.4.2-.7.2-1.1 0-.4-.2-.4-.6-.4-.9v-3.6-3.6c0-.3.1-.6.3-.9.3-.4.7-.4 1.1-.2.8.4 1.6.9 2.4 1.3 1 .5 1.9 1.1 2.9 1.6.5.3 1 .6 1.6.9.7.3.7 1.3.1 1.6z"/></g></svg>