<svg xmlns="http://www.w3.org/2000/svg" viewBox="0 0 17 15"><g fill="#fff"><path d="M16.6 6.6l-.4-.4L10.4.4c-.5-.5-1.3-.5-1.8 0l-.5.4c-.2.2-.3.5-.3.8 0 .3.1.7.4 1L13 7.5l-4.9 4.9c-.3.3-.4.6-.4 1 0 .3.1.6.4.8l.4.4c.5.5 1.3.5 1.8 0l5.8-5.7.4-.4c.4-.3.5-.7.5-1 0-.3-.1-.6-.4-.9z"/><path d="M4.3 12.4l4.9-4.9-4.9-4.9c-.3-.3-.4-.6-.4-.9L2.6.4C2.1-.1 1.3-.1.8.4L.4.8c-.5.5-.5 1.3 0 1.8l4.9 4.9-4.9 4.9c-.5.5-.5 1.3 0 1.8l.4.4c.5.5 1.3.5 1.8 0l1.3-1.3c0-.3.1-.6.4-.9z" opacity=".4"/><path d="M13 7.5L8.1 2.6c-.2-.3-.4-.6-.3-1L6.5.4C6-.1 5.2-.1 4.7.4l-.4.4c-.3.3-.4.6-.4.9 0 .3.1.6.4.9l4.9 4.9-4.9 4.9c-.3.3-.4.6-.4.9 0 .3.1.6.4.9l.4.4c.5.5 1.3.5 1.8 0l1.3-1.2c0-.4.1-.7.4-1L13 7.5z" opacity=".7"/></g></svg>