<svg xmlns="http://www.w3.org/2000/svg" id="dodaj_do_listy" viewBox="0 0 280 300"><style>.st0{fill:#949a9d}</style><path id="Forma_1" d="M165.6 16.5h-36l2.4 11.4c.3 1.4.3 2.8.1 4.2h25.7v183.5H15.3V32.1H41c-.2-1.4-.1-2.8.1-4.2l2.4-11.3h-36c-4.3 0-7.7 3.5-7.7 7.7v199.1c0 4.3 3.4 7.8 7.7 7.8h158c4.3 0 7.7-3.5 7.7-7.8V24.3c.1-4.3-3.3-7.8-7.6-7.8zm-25.8 56.3H87.1c-4.3 0-7.8 3.5-7.8 7.8s3.5 7.8 7.8 7.8h52.7c4.3 0 7.8-3.5 7.8-7.8s-3.5-7.8-7.8-7.8zm0 47.8H87.1c-4.3.2-7.7 3.8-7.5 8.1.2 4.1 3.4 7.3 7.5 7.5h52.7c4.3 0 7.8-3.5 7.8-7.8 0-4.4-3.5-7.9-7.8-7.8zm-111.3-46c-3.3 2.8-3.7 7.7-.9 11l11.2 13.5c1.5 1.7 3.6 2.8 5.9 2.8h.6c2.5-.2 4.7-1.6 6-3.7l20.2-33.1c2.3-3.7 1.1-8.4-2.5-10.7-3.6-2.2-8.3-1.1-10.5 2.4 0 0 0 .1-.1.1L43.7 80.8l-4.4-5.2c-2.7-3.3-7.5-3.7-10.8-1zM47 116.7c-6.4-.1-11.7 5.1-11.8 11.6-.1 6.4 5.1 11.7 11.6 11.8s11.7-5.1 11.8-11.6v-.1c.1-6.4-5.1-11.6-11.4-11.7H47zm92.8 50.5H87.1c-4.3 0-7.8 3.5-7.8 7.8s3.5 7.8 7.8 7.8h52.7c4.3 0 7.8-3.5 7.8-7.8s-3.5-7.8-7.8-7.8zm-92.9-3.8c-6.4-.1-11.7 5.1-11.8 11.6-.1 6.4 5.1 11.7 11.6 11.8 6.4.1 11.7-5.1 11.8-11.6v-.1c.1-6.4-5.1-11.6-11.5-11.7h-.1zm7-127.4h65.4c1.6 0 3.1-.7 4.1-2 1-1.3 1.4-2.9 1.1-4.5L119 4.2c-.5-2.4-2.7-4.2-5.2-4.2H59.3c-2.5 0-4.7 1.8-5.2 4.2l-5.4 25.3c-.3 1.6.1 3.2 1.1 4.5 1 1.3 2.5 2 4.1 2z" class="st0"/><circle id="koło" cx="190.6" cy="213.9" r="75.1" fill="#fff" stroke="#949a9d" stroke-linejoin="round" stroke-width="23.12"/><path id="Rounded_Rectangle_8_copy" d="M190.6 174.1c6.3 0 11.3 5.1 11.3 11.3v56.9c0 6.3-5.1 11.3-11.3 11.3-6.2 0-11.3-5.1-11.3-11.3v-56.9c0-6.2 5.1-11.3 11.3-11.3zm-28.4 28.4h56.9c6.3 0 11.3 5.1 11.3 11.3 0 6.3-5.1 11.3-11.3 11.3h-56.9c-6.3 0-11.3-5.1-11.3-11.3 0-6.2 5-11.3 11.3-11.3z" class="st0"/></svg>