<svg xmlns="http://www.w3.org/2000/svg" id="Rounded_Rectangle_8_copy_1_" viewBox="0 0 29 29.5"><style>.st0{fill:#fff}</style><path d="M22.5 14.6l.9-2.9c.9-.2 1.6-1 1.6-2V8.3c0-1.1-.9-2.1-2.1-2.1h-3.5c0-.1-.1-.1-.1-.2L15.8.5c-.2-.3-.5-.5-.9-.5-.6 0-1 .5-1 1 0 .2.1.4.2.5L17 6.2H8l2.9-4.6c.1-.2.2-.4.2-.6 0-.6-.5-1-1-1-.4 0-.7.2-.9.5L5.7 6c0 .1-.1.1-.1.2H2.1C.9 6.2 0 7.1 0 8.3v1.4c0 1 .7 1.8 1.6 2l2.6 8.9c.3.9 1.1 1.5 2 1.5H14c0 4.1 3.4 7.4 7.5 7.4S29 26.1 29 22c0-3.8-2.8-6.9-6.5-7.4zM2 8h21v2H2V8zm4.2 12l-2.4-8.3h17.4l-.9 2.9c-2.9.4-5.3 2.6-6 5.4H6.2zm15.3 7.5c-3 0-5.5-2.5-5.5-5.5s2.5-5.5 5.5-5.5S27 19 27 22s-2.5 5.5-5.5 5.5z" class="st0"/><path d="M23.9 21h-1.5v-1.5c0-.5-.4-1-1-1s-1 .4-1 1V21H19c-.5 0-1 .4-1 1s.4 1 1 1h1.5v1.5c0 .5.4 1 1 1s1-.4 1-1V23H24c.5 0 1-.4 1-1s-.5-1-1.1-1z" class="st0"/></svg>