<?xml version="1.0" encoding="utf-8"?>
<!-- Generator: Adobe Illustrator 23.0.1, SVG Export Plug-In . SVG Version: 6.00 Build 0)  -->
<svg version="1.1" id="ikony" xmlns="http://www.w3.org/2000/svg" xmlns:xlink="http://www.w3.org/1999/xlink" x="0px" y="0px"
	 viewBox="0 0 24 24" style="enable-background:new 0 0 24 24;" xml:space="preserve">
<style type="text/css">
	.st0{fill:#FFCB59;}
	.st1{fill:#00E59B;}
	.st2{fill:#E6AA9A;}
	.st3{fill:#AAD821;}
	.st4{fill:#A79797;}
	.st5{fill:#E6456D;}
	.st6{fill:#919396;}
	.st7{fill:#3398FF;}
	.st8{fill:#FF9E4A;}
</style>
<path class="st6" d="M7,5H0v19h7V5z M6,23H1V6h5V23z M18,4h5v3h-5v1h5v2h-5v1h5v12h-5v1h6V3h-6V4z M7,1h8v22H9v1h7V0H6v3h1V1z M4,8
	H3v13h1V8z M9,20h4v-1H9V20z M13,5H9v1h4V5z"/>
</svg>
