<svg xmlns="http://www.w3.org/2000/svg" id="Warstwa_1" viewBox="0 0 135 128.9"><style>.st0{fill:#fff}</style><path d="M97.9 24.8c3.4.1 6.3-2.5 6.4-5.9V6.1c0-3.4-2.8-6.2-6.2-6.2C94.8 0 92 2.7 92 6.1v12.3c-.1 3.4 2.5 6.3 5.9 6.4zM35.3 24.5l3 .1c2.5 0 4.6-2 4.7-4.5V4.6C43 2.1 41 0 38.4 0h-3.1c-2.5 0-4.6 2-4.6 4.6v15.3c0 2.5 2.1 4.6 4.6 4.6z" class="st0"/><path d="M110.4 12.3v11.5c0 3.8-4.1 6.9-9.2 6.9h-6.1c-5.1 0-9.2-3-9.2-6.9V12.3H49.1v11.5c0 3.9-4.1 6.9-9.2 6.9h-6.1c-5.1 0-9.2-3.1-9.2-6.9V12.3H0v110.4c0 6.1 6.7 6.1 6.7 6.1h122.1s6.1 0 6.1-6.1V12.3h-24.5zM12.3 36.8h110.4V43H12.3v-6.2z" class="st0"/></svg>