<svg xmlns="http://www.w3.org/2000/svg" id="Warstwa_1" viewBox="0 0 128 128"><style>.st2{fill:#fff}</style><g id="Warstwa_2" opacity=".8"><g id="Warstwa_1-2"><g id="Warstwa_2-2"><g id="Warstwa_1-2-2"><g id="_14"><path fill="#dde0e5" d="M76.7 82.3c0-.1.1-.1.2-.3-.1.1-.1.2-.2.3z"/><path d="M85.8 33.6v-7.2c0-2-1.6-3.6-3.6-3.6s-3.6 1.6-3.6 3.6v7.2c-.1 2 1.5 3.7 3.5 3.8 2 .1 3.7-1.5 3.8-3.5-.1-.1-.1-.2-.1-.3zM47 37.2c1.5 0 2.7-1.2 2.7-2.7v-9c0-1.5-1.2-2.7-2.7-2.7h-1.8c-1.5 0-2.7 1.2-2.7 2.7v9c0 1.5 1.2 2.7 2.7 2.7H47zM55.7 74.7h5.4v-7.8h-.7zM76.5 75.4h-1.3v5.2h1.3c.3 0 .7 0 1-.1.3-.1.5-.2.7-.4.2-.2.4-.5.5-.8.1-.4.2-.8.2-1.2.1-.7-.1-1.4-.6-1.9-.5-.6-1.2-.8-1.8-.8z" class="st2"/><path d="M89.4 30v6.7c0 2.3-2.4 4.1-5.4 4.1h-3.6c-3 0-5.4-1.8-5.4-4.1V30H53.3v6.7c0 2.3-2.4 4-5.4 4h-3.6c-3 0-5.4-1.8-5.4-4.1V30H24.4v65c0 3.6 4 3.6 4 3.6h71.8s3.6 0 3.6-3.6V30H89.4zM49.8 82.2h-10v-2.8h3.4V69.3h-4v-2.6l4-.9.9-2.2h3.2v15.8h2.6l-.1 2.8zM66.6 78h-1.9v4.2h-3.6V78h-9.4v-3.3l7.1-11h5.9v11h1.9V78zm13.8 2c-.2.5-.5.9-.9 1.3-.4.3-.9.6-1.4.7-.5.2-1.1.2-1.7.2h-3.1v-8.3h3.1c.6 0 1.3.1 1.8.3.5.2 1 .5 1.3.8.4.4.6.8.8 1.3.2.6.3 1.2.3 1.8.1.6 0 1.3-.2 1.9zm8.6 2.2h-1.7l-3.8-5.3v5.3h-1.8v-8.3h1.7l3.9 5.3v-5.3H89v8.3zm3.6 0h-1.9v-8.3h1.9v8.3zm4-34.1h-65v-3.6h64.9l.1 3.6z" class="st2"/></g></g></g></g></g><path d="M64 0C28.7 0 0 28.7 0 64s28.7 64 64 64 64-28.7 64-64S99.3 0 64 0zM5.2 64C5.2 31.6 31.6 5.2 64 5.2c15.6 0 29.8 6.1 40.4 16.1l-83 83C11.4 93.8 5.2 79.6 5.2 64zM64 122.8c-14.9 0-28.5-5.6-38.9-14.8L108 25.1c9.2 10.4 14.8 24 14.8 38.9 0 32.4-26.4 58.8-58.8 58.8z" class="st2"/></svg>