<svg width="22" height="24" viewBox="0 0 22 24" fill="none" xmlns="http://www.w3.org/2000/svg">
<path d="M0 22H9C9.5 22 10 22.2 10.4 22.6C10.8 23 11 23.5 11 24H12C12 23.2 11.7 22.4 11.1 21.9C10.6 21.3 9.8 21 9 21H1V1H10V0H0V22ZM12 22H22V0H13C12.2 0 11.4 0.3 10.9 0.9C10.3 1.4 10 2.2 10 3H11C11 2.5 11.2 2 11.6 1.6C12 1.2 12.5 1 13 1H21V21H12V22ZM10 5H3V6H10V5ZM10 9H3V10H10V9ZM10 13H3V14H10V13ZM3 18H10V17H3V18ZM19 5H12V6H19V5ZM12 10H19V9H12V10ZM12 14H19V13H12V14ZM12 18H19V17H12V18Z" fill="#919396"/>
</svg>
