<svg width="24" height="24" viewBox="0 0 24 24" fill="none" xmlns="http://www.w3.org/2000/svg">
<path d="M23 0H22.3L12 10.2573L1.7 0H1H0.5H0V0.497925C0 3.88382 1.3 6.97095 3.7 9.361L8.3 13.9419L6.7 15.5353C6 15.1369 5.3 14.9378 4.5 14.9378C2 14.9378 0 16.9295 0 19.4191C0 21.9087 2 23.9004 4.5 23.9004C7 23.9004 9 21.9087 9 19.4191C9 18.1245 8.4 16.9295 7.5 16.1328L22.7 0.995851H23C22.9 3.88382 21.7 6.57261 19.7 8.6639L11.7 16.6307L12.4 17.3278L15 14.7386L16.5 16.2324C15.6 17.029 15 18.2241 15 19.5187C15 22.0083 17 24 19.5 24C22 24 24 22.0083 24 19.5187C24 17.029 22 14.9378 19.5 14.9378C18.7 14.9378 18 15.1369 17.3 15.5353L15.7 13.9419L20.3 9.361C22.7 6.97095 24 3.88382 24 0.497925V0H23.5H23ZM4.5 22.9046C2.6 22.9046 1 21.3112 1 19.4191C1 17.527 2.6 15.9336 4.5 15.9336C6.4 15.9336 8 17.527 8 19.4191C8 21.3112 6.4 22.9046 4.5 22.9046ZM4.4 8.6639C2.3 6.57261 1.1 3.88382 1 0.995851H1.3L11.3 10.9544L9 13.2448L4.4 8.6639ZM19.5 22.9046C17.6 22.9046 16 21.3112 16 19.4191C16 17.527 17.6 15.9336 19.5 15.9336C21.4 15.9336 23 17.527 23 19.4191C23 21.3112 21.4 22.9046 19.5 22.9046Z" fill="#919396"/>
</svg>
