<svg width="30" height="23" viewBox="0 0 30 23" fill="none" xmlns="http://www.w3.org/2000/svg">
<path d="M23.5 0C20.3 0 17.7 3.2 17.1 7.4L10.5 0.8L0 11.3V12.7L2 10.7V23H19V15.5C20.1 16.9 21.5 17.8 23 18V20.3V21.4V23H24V21.3V18C27.4 17.6 30 13.8 30 9C30 4 27.1 0 23.5 0ZM27.6 3.7L24 7.3V1C25.4 1.2 26.7 2.2 27.6 3.7ZM23 13.3L18 8.3C18.1 6.9 18.4 5.7 18.9 4.6L23 8.7V13.3ZM24 8.7L28.1 4.6C28.6 5.7 28.9 7 29 8.3L24 13.3V8.7ZM23 1V7.3L19.4 3.7C20.3 2.2 21.6 1.2 23 1ZM12 14V22H9V14H12ZM18 22H13V14H14.5H15V13H14.5H6.5H6V14H6.5H8V22H3V9.7L10.5 2.2L17 8.7C17 8.8 17 8.9 17 9C17 10.8 17.4 12.4 18 13.8V22ZM18 9.7L23 14.7V17C20.4 16.6 18.3 13.6 18 9.7ZM24 17V16.3V16V14.8L29 9.8C28.7 13.6 26.6 16.6 24 17Z" fill="#AAD821"/>
</svg>
