<svg width="23" height="24" viewBox="0 0 23 24" fill="none" xmlns="http://www.w3.org/2000/svg">
<path d="M19 2C17 2 15.3 3.3 15.1 5H13V0H6V5H3.5V6H6V9.7C2.5 11.1 0 14.5 0 18.5C0 20.2 0.4 22 1 23.7L1.2 24H17.9L18 23.7C18.7 22 19 20.2 19 18.5C19 14.5 16.5 11.1 13 9.7V6H15.1C15.3 7.7 17 9 19 9C21.2 9 23 7.4 23 5.5C23 3.6 21.2 2 19 2ZM18 18.5C18 20 17.7 21.5 17.2 23H1.8C1.3 21.5 1 20 1 18.5C1 13.8 4.8 10 9.5 10C14.2 10 18 13.8 18 18.5ZM9.5 9C8.6 9 7.8 9.1 7 9.3V6H9.5V5H7V1H12V9.3C11.2 9.1 10.4 9 9.5 9ZM19 8C17.3 8 16 6.9 16 5.5C16 4.1 17.3 3 19 3C20.7 3 22 4.1 22 5.5C22 6.9 20.7 8 19 8Z" fill="#E6AA9A"/>
</svg>
