<svg width="24" height="24" viewBox="0 0 24 24" fill="none" xmlns="http://www.w3.org/2000/svg">
<path d="M14 0H9.4L10.9 9H0V10C0 12.8 1.2 15.4 3.1 17.2C2.4 18 2 18.9 2 20C2 22.2 3.8 24 6 24C8.2 24 10 22.2 10 20H14C14 22.2 15.8 24 18 24C20.2 24 22 22.2 22 20C22 18.9 21.6 18 20.9 17.2C22.8 15.4 24 12.8 24 10C24 4.5 19.5 0 14 0ZM9 20C9 21.7 7.7 23 6 23C4.3 23 3 21.7 3 20C3 18.3 4.3 17 6 17C7.7 17 9 18.3 9 20ZM18 23C16.3 23 15 21.7 15 20C15 18.3 16.3 17 18 17C19.7 17 21 18.3 21 20C21 21.7 19.7 23 18 23ZM20.1 16.6C19.5 16.2 18.8 16 18 16C16.1 16 14.6 17.3 14.1 19H14H10H9.9C9.5 17.3 7.9 16 6 16C5.2 16 4.5 16.2 3.9 16.6C2.1 15 1 12.6 1 10H15V9H11.9L10.6 1H14C19 1 23 5 23 10C23 12.6 21.9 15 20.1 16.6Z" fill="#FFCB59"/>
</svg>
