<svg width="24" height="24" viewBox="0 0 24 24" fill="none" xmlns="http://www.w3.org/2000/svg">
<path d="M17 4H3V5H17V4ZM17 7H3V8H17V7ZM9 10H3V11H9V10ZM9 13H3V14H9V13ZM9 16H3V17H9V16ZM3 20H9V19H3V20ZM17 10H11V11H17V10ZM17 13H11V14H17V13ZM17 16H11V17H17V16ZM11 20H17V19H11V20ZM23 2H20V0H1H0.5H0V21.5C0 22.9 1.1 24 2.5 24H18V23H2.5C1.7 23 1 22.3 1 21.5V1H19V21.5C19 22.9 20.1 24 21.5 24C22.9 24 24 22.9 24 21.5V2H23.5H23ZM21.5 23C20.7 23 20 22.3 20 21.5V3H23V21.5C23 22.3 22.3 23 21.5 23Z" fill="#919396"/>
</svg>
