<svg width="24" height="24" viewBox="0 0 24 24" fill="none" xmlns="http://www.w3.org/2000/svg">
<path d="M12 0C5.42609 0 0 5.42609 0 12C0 18.5739 5.42609 24 12 24C18.5739 24 24 18.5739 24 12C24 5.42609 18.5739 0 12 0ZM19.9304 4.38261C18.0522 6.36522 16.9043 8.86957 16.8 11.4783H12.6261V1.04348C15.4435 1.25217 18.0522 2.50435 19.9304 4.38261ZM11.4783 1.04348V11.4783H7.30435C7.2 8.86957 6.05217 6.36522 4.17391 4.38261C5.94783 2.50435 8.55652 1.25217 11.4783 1.04348ZM3.44348 5.21739C5.21739 7.09565 6.26087 9.49565 6.26087 12C6.26087 14.5043 5.21739 16.9043 3.44348 18.7826C1.98261 16.9043 1.04348 14.6087 1.04348 12C1.04348 9.3913 1.98261 7.09565 3.44348 5.21739ZM4.06957 19.6174C5.94783 17.6348 7.09565 15.1304 7.2 12.5217H11.3739V22.9565C8.55652 22.7478 5.94783 21.4957 4.06957 19.6174ZM12.5217 22.9565V12.5217H16.6957C16.8 15.1304 17.9478 17.6348 19.8261 19.6174C18.0522 21.4957 15.4435 22.7478 12.5217 22.9565ZM20.5565 18.7826C18.7826 16.9043 17.7391 14.5043 17.7391 12C17.7391 9.49565 18.7826 7.09565 20.5565 5.21739C22.0174 7.09565 22.9565 9.3913 22.9565 12C22.9565 14.6087 22.0174 16.9043 20.5565 18.7826Z" fill="#00E59B"/>
</svg>
