<?xml version="1.0" encoding="utf-8"?>
<!-- Generator: Adobe Illustrator 23.0.4, SVG Export Plug-In . SVG Version: 6.00 Build 0)  -->
<svg version="1.1" id="ikony" xmlns="http://www.w3.org/2000/svg" xmlns:xlink="http://www.w3.org/1999/xlink" x="0px" y="0px"
	 viewBox="0 0 24 24" style="enable-background:new 0 0 24 24;" xml:space="preserve">
<style type="text/css">
	.st0{fill:#919396;}
</style>
<path class="st0" d="M12,24C5.4,24,0,18.6,0,12h1c0,6.1,4.9,11,11,11s11-4.9,11-11S18.1,1,12,1C9.4,1,6.8,1.9,4.8,3.7
	c-0.3,0.3-0.7,0.6-1,0.9L3.1,3.9c0.3-0.4,0.7-0.7,1-1C6.3,1,9.1,0,12,0c6.6,0,12,5.4,12,12S18.6,24,12,24z"/>
<polygon class="st0" points="12.5,13.6 7.2,8.9 7.8,8.1 11.5,11.4 11.5,3 12.5,3 "/>
</svg>
