<?xml version="1.0" encoding="utf-8"?>
<!-- Generator: Adobe Illustrator 23.0.1, SVG Export Plug-In . SVG Version: 6.00 Build 0)  -->
<svg version="1.1" id="ikony" xmlns="http://www.w3.org/2000/svg" xmlns:xlink="http://www.w3.org/1999/xlink" x="0px" y="0px"
	 viewBox="0 0 24 24" style="enable-background:new 0 0 24 24;" xml:space="preserve">
<style type="text/css">
	.st0{fill:#FFCB59;}
	.st1{fill:#00E59B;}
	.st2{fill:#E6AA9A;}
	.st3{fill:#AAD821;}
	.st4{fill:#A79797;}
	.st5{fill:#E6456D;}
	.st6{fill:#FF7C2B;}
	.st7{fill:#3398FF;}
	.st8{fill:#FF9E4A;}
</style>
<g>
	<path class="st6" d="M15,7v6H1V3h14v2h1V3V2h-1H0v17v1h1h2.2c0.4,1.2,1.5,2,2.8,2s2.4-0.8,2.8-2H13v-1H9c0-1.7-1.3-3-3-3
		s-3,1.3-3,3H1v-5h14v0h8v5h-2c0-1.7-1.3-3-3-3s-3,1.3-3,3s1.3,3,3,3c1.3,0,2.4-0.8,2.8-2H24v-6v0v-1l-4-6H15z M6,17
		c1.1,0,2,0.9,2,2s-0.9,2-2,2s-2-0.9-2-2S4.9,17,6,17z M18,21c-1.1,0-2-0.9-2-2s0.9-2,2-2s2,0.9,2,2S19.1,21,18,21z M16,13V8h3.5
		l3.3,5H16z"/>
</g>
</svg>
