<svg xmlns="http://www.w3.org/2000/svg" width="24" height="24"><g fill="none" fill-rule="evenodd"><path fill="#949A9D" fill-rule="nonzero" d="M17.9230769 19.7692308c0-.2291667-.083734-.427484-.2512019-.594952-.1674679-.1674679-.3657853-.2512019-.5949519-.2512019-.2291667 0-.427484.083734-.5949519.2512019-.167468.167468-.251202.3657853-.251202.594952 0 .2291666.083734.4274839.251202.5949519.1674679.1674679.3657852.2512019.5949519.2512019.2291666 0 .427484-.083734.5949519-.2512019.1674679-.167468.2512019-.3657853.2512019-.5949519zm3.3846154 0c0-.2291667-.083734-.427484-.2512019-.594952-.167468-.1674679-.3657853-.2512019-.5949519-.2512019-.2291667 0-.427484.083734-.594952.2512019-.1674679.167468-.2512019.3657853-.2512019.594952 0 .2291666.083734.4274839.2512019.5949519.167468.1674679.3657853.2512019.594952.2512019.2291666 0 .4274839-.083734.5949519-.2512019.1674679-.167468.2512019-.3657853.2512019-.5949519zM23 16.8076923v4.2307692c0 .3525641-.1233974.6522436-.3701923.8990385-.2467949.2467949-.5464744.3701923-.8990385.3701923H2.26923077c-.3525641 0-.6522436-.1233974-.89903846-.3701923C1.12339744 21.6907051 1 21.3910256 1 21.0384615v-4.2307692c0-.3525641.12339744-.6522436.3701923-.8990385.24679488-.2467948.54647437-.3701923.89903847-.3701923h6.14783654l1.78485577 1.798077c.51121795.4935897 1.11057692.7403846 1.79807692.7403846s1.286859-.2467949 1.7980769-.7403846l1.7980769-1.798077h6.1346154c.3525641 0 .6522436.1233975.8990385.3701923.2467949.2467949.3701923.5464744.3701923.8990385z"/><path fill="#FC7C41" d="M18.703125 9.28485577c.1498397.3613782.088141.66987179-.1850962.92548077l-5.9230769 5.92307696c-.1586538.1674679-.3569711.2512019-.5949519.2512019s-.4362981-.083734-.5949519-.2512019l-5.92307695-5.92307696c-.27323718-.25560898-.33493589-.56410257-.18509615-.92548077.14983974-.34375.40985577-.515625.78004808-.515625h3.38461538V2.84615385c0-.22916667.08373398-.42748398.25120192-.59495193C9.88020833 2.08373397 10.07852564 2 10.30769231 2h3.38461539c.2291667 0 .427484.08373397.5949519.25120192.167468.16746795.2512019.36578526.2512019.59495193v5.92307692h3.3846154c.3701923 0 .6302084.171875.7800481.515625z"/></g></svg>