<svg width="58" height="58" viewBox="0 0 58 58" fill="none" xmlns="http://www.w3.org/2000/svg">
<path fill-rule="evenodd" clip-rule="evenodd" d="M29.0417 1.52588e-05C19.727 1.52588e-05 11.2857 4.35499 5.7551 11.6133H10.4124C20.0181 1.45167 36.0276 0.580678 46.5066 10.1616C56.9855 19.7426 57.5677 35.7108 47.962 46.1628C38.3563 56.6147 22.3468 57.1954 11.8678 47.6144C4.29969 40.6465 1.67995 29.9042 5.17294 20.3232H1.38887C-3.55952 35.7108 5.17294 51.9694 20.3092 56.6147C35.7365 61.5504 52.0371 52.8404 56.6945 37.7432C61.3518 22.6459 53.2015 6.09698 37.7741 1.45167C34.8633 0.580679 31.9525 1.52588e-05 29.0417 1.52588e-05ZM26.7123 40.9363C26.4212 41.2267 26.1301 41.2267 25.839 40.9363L15.9423 31.065L18.2709 29.0327L26.1301 36.8717H26.7123L44.1772 16.5484L46.2148 18.5808L26.7123 40.9363ZM6.33758 16.2594C6.33758 17.0612 5.68596 17.7111 4.88217 17.7111C4.07837 17.7111 3.42676 17.0612 3.42676 16.2594C3.42676 15.4577 4.07837 14.8078 4.88217 14.8078C5.68596 14.8078 6.33758 15.4577 6.33758 16.2594Z" fill="#44BB3E"/>
</svg>
