<?xml version="1.0" encoding="utf-8"?>
<!-- Generator: Adobe Illustrator 22.1.0, SVG Export Plug-In . SVG Version: 6.00 Build 0)  -->
<svg version="1.1" id="Rounded_Rectangle_1_copy_8_1_"
	 xmlns="http://www.w3.org/2000/svg" xmlns:xlink="http://www.w3.org/1999/xlink" x="0px" y="0px" viewBox="0 0 18 16"
	 style="enable-background:new 0 0 18 16;" xml:space="preserve">
<style type="text/css">
	.st0{fill:#FFFFFF;}
</style>
<g>
	<path class="st0" d="M8.4,10.8C8.5,11,8.8,11.1,9,11.1s0.4-0.1,0.6-0.3l2.7-2.7c0.3-0.3,0.3-0.9,0-1.2c-0.3-0.3-0.9-0.3-1.2,0
		L9.8,8.1V0.9C9.8,0.4,9.5,0,9,0S8.1,0.4,8.1,0.9v7.2L6.9,6.9C6.6,6.5,6,6.5,5.7,6.9c-0.3,0.3-0.3,0.9,0,1.2L8.4,10.8z"/>
	<path class="st0" d="M16.9,13.8H1.1c-0.6,0-1.1,0.5-1.1,1.1S0.5,16,1.1,16h15.8c0.6,0,1.1-0.5,1.1-1.1S17.5,13.8,16.9,13.8z"/>
</g>
</svg>
