<svg xmlns="http://www.w3.org/2000/svg" id="Warstwa_1" viewBox="0 0 42 42"><style>.st0{fill:#dee1e6}</style><path d="M18.8 15.5h10.5v4H18.8z" class="st0" transform="rotate(-45 23.99993535 17.50032678)"/><path d="M15.4 23.1l-1.2 4.1 4.1-1.2.7-.9-2.8-2.8z" class="st0"/><path d="M35.1 6.9C27.3-1 14.7-1 6.9 6.9-1 14.7-1 27.3 6.9 35.1c7.8 7.8 20.5 7.8 28.3 0 7.8-7.8 7.8-20.4-.1-28.2zm-2.2 9.6L20.6 28.8c-.2.2-.5.4-.8.5l-7.7 2.3c-.2.1-.3.1-.5.1-.5 0-1-.2-1.3-.5-.5-.5-.7-1.2-.5-1.8l2.3-7.7c.1-.3.3-.6.5-.8L24.8 8.6c.4-.3.8-.5 1.3-.5s1 .2 1.3.5l5.4 5.4c.7.7.7 1.8.1 2.5z" class="st0"/></svg>