<svg xmlns="http://www.w3.org/2000/svg" xmlns:xlink="http://www.w3.org/1999/xlink" viewBox="0 0 159.46 22.7"><defs><style>.cls-1{fill:none;}.cls-2{fill:#fff;}.cls-3{clip-path:url(#clip-path);}.cls-4{fill:#2938e5;}.cls-5{fill:#ffdd7b;}</style><clipPath id="clip-path"><rect class="cls-1" x="56.56" width="22.7" height="22.7"/></clipPath></defs><title>Zasób 17loogogogoogo</title><g id="Warstwa_2" data-name="Warstwa 2"><g id="Layer_1" data-name="Layer 1"><path class="cls-2" d="M43.9,3.42h2.76v8.36h1.08l2.58-3.89h2.94l-3.19,4.64,3.38,5.53H50.4L47.8,14H46.66v4.09H43.9Zm-2.26-.18V1.49H38.35V4.78H40a2.89,2.89,0,0,1-.35.85,5,5,0,0,1-.72.92l.93.94a11.4,11.4,0,0,0,.87-1,5,5,0,0,0,.54-.94,4,4,0,0,0,.3-1,9.43,9.43,0,0,0,.08-1.26M39,10.13H37.6V7.89h4.18V18.06H39Zm-8.68.51v5.22a5.9,5.9,0,0,0,.72,0h.82a1.94,1.94,0,0,0,1.74-.85,4.17,4.17,0,0,0,.58-2.38c0-1.73-.69-2.6-2.07-2.6a2.76,2.76,0,0,0-1.79.57M27.6,7.89h2.58v.74A3.88,3.88,0,0,1,31.4,8a4.77,4.77,0,0,1,1.46-.2,3.75,3.75,0,0,1,3,1.31A5.52,5.52,0,0,1,37,12.79a6.45,6.45,0,0,1-.34,2.09,4.73,4.73,0,0,1-1,1.67,4.28,4.28,0,0,1-1.59,1.12,5.54,5.54,0,0,1-2.18.41l-.77,0L30.34,18v3.22H27.6ZM19.77,18.06H17V11.88a2.35,2.35,0,0,0-.36-1.43A1.31,1.31,0,0,0,15.53,10a2.49,2.49,0,0,0-1,.19,3.52,3.52,0,0,0-.84.54v7.34H10.91V7.89h2.64v.76a4.76,4.76,0,0,1,2.69-.92A3.36,3.36,0,0,1,17.57,8,2.57,2.57,0,0,1,18.7,9a4.35,4.35,0,0,1,1.41-.94A4.77,4.77,0,0,1,22,7.73a5.67,5.67,0,0,1,1.35.17,3.4,3.4,0,0,1,1.23.62,3.23,3.23,0,0,1,.9,1.23,4.85,4.85,0,0,1,.36,2v6.3H23.13V11.88a2.4,2.4,0,0,0-.34-1.4A1.24,1.24,0,0,0,21.68,10a1.81,1.81,0,0,0-1.4.55,1.93,1.93,0,0,0-.51,1.38Zm-17-6.2H6.93a2.19,2.19,0,0,0-.57-1.42A1.81,1.81,0,0,0,5,9.89a2,2,0,0,0-1.48.52,2.71,2.71,0,0,0-.7,1.45m6.59.65v1.14H2.76a3.41,3.41,0,0,0,.32,1.16,2.12,2.12,0,0,0,.56.73,2,2,0,0,0,.7.36,2.74,2.74,0,0,0,.74.1,2.29,2.29,0,0,0,1.36-.33,2.07,2.07,0,0,0,.67-.87l2.2.9a3.64,3.64,0,0,1-1.56,1.87A5.36,5.36,0,0,1,5,18.22,4.77,4.77,0,0,1,1.31,16.8a5.64,5.64,0,0,1-1.31-4,6.31,6.31,0,0,1,.31-2,4.53,4.53,0,0,1,.94-1.61A4.25,4.25,0,0,1,2.78,8.13a5.21,5.21,0,0,1,2.12-.4,4.59,4.59,0,0,1,1.89.37,4.21,4.21,0,0,1,1.41,1,4.34,4.34,0,0,1,.88,1.52,5.51,5.51,0,0,1,.31,1.89"/><g class="cls-3"><path class="cls-4" d="M79.25,11.35A11.35,11.35,0,1,1,67.9,0,11.35,11.35,0,0,1,79.25,11.35"/></g><polygon class="cls-5" points="75.78 8.78 70.91 8.78 71.24 9.77 73.1 9.77 70.51 11.97 70 12.4 70.22 13.04 71.2 15.93 68.49 13.9 67.9 13.46 67.31 13.9 64.61 15.93 65.59 13.04 65.81 12.4 65.3 11.97 62.7 9.77 65.93 9.77 66.64 9.77 66.87 9.09 67.9 5.99 68.94 9.09 69.16 9.77 69.87 9.77 70.2 9.77 69.87 8.78 69.71 8.29 67.9 2.87 65.93 8.78 60.02 8.78 64.66 12.72 62.65 18.63 67.9 14.69 73.16 18.63 71.15 12.72 75.78 8.78"/><path class="cls-5" d="M83.85,7.93h1.68v.88a4.16,4.16,0,0,1,2.89-1c2.59,0,4.2,1.7,4.2,4.86,0,3.6-2.25,5.39-5,5.39a15.27,15.27,0,0,1-2-.13v3.43H83.85Zm1.81,2.21v6.42c.65.06,1.21.08,2,.08,1.89,0,3.16-1.33,3.16-4,0-2-.8-3.32-2.75-3.32A3.28,3.28,0,0,0,85.66,10.14Z"/><path class="cls-5" d="M94.45,7.93H96.2V9.67a3.5,3.5,0,0,1,2.35-1.74h1.56V9.65H98.29a2.81,2.81,0,0,0-2,2V18H94.45Z"/><path class="cls-5" d="M109.89,12.32v.8H102.8c.06,2.58,1.44,3.62,3,3.62a2.53,2.53,0,0,0,2.59-1.51l1.43.61a4.07,4.07,0,0,1-4.08,2.34c-3,0-4.73-2.09-4.73-5.25,0-2.93,1.62-5.16,4.61-5.16C108.38,7.77,109.89,9.84,109.89,12.32Zm-7-.41h5.41a2.55,2.55,0,0,0-2.6-2.73C104,9.18,103.13,10.29,102.86,11.91Z"/><path class="cls-5" d="M119.94,18h-1.8V11.58c0-1.44-.76-2.36-2.11-2.36a3.92,3.92,0,0,0-2.4.9V18h-1.79V7.93h1.73v.8a4.87,4.87,0,0,1,2.78-1,3.09,3.09,0,0,1,2.83,1.59,4,4,0,0,1,3.36-1.59,3.41,3.41,0,0,1,3.69,3.75V18h-1.78V11.6c0-1.48-.64-2.38-2.09-2.38a2.29,2.29,0,0,0-2.42,2.4Z"/><path class="cls-5" d="M129.62,9.41h-1.43V7.93h3.22V18h-1.79Zm.6-6.5a1.32,1.32,0,0,1,1.33,1.33,1.29,1.29,0,0,1-1.33,1.27A1.25,1.25,0,0,1,129,4.24,1.29,1.29,0,0,1,130.22,2.91Z"/><path class="cls-5" d="M135.92,14.1c0,1.74.9,2.62,2.46,2.62a2.31,2.31,0,0,0,2.48-2.62V7.93h1.8V14.1c0,2.48-1.58,4.1-4.28,4.1s-4.26-1.52-4.26-4.1V7.93h1.8Z"/><path class="cls-5" d="M153.16,18h-1.8V11.58c0-1.44-.76-2.36-2.11-2.36a3.94,3.94,0,0,0-2.4.9V18h-1.78V7.93h1.72v.8a4.87,4.87,0,0,1,2.79-1,3.08,3.08,0,0,1,2.82,1.59,4,4,0,0,1,3.37-1.59,3.41,3.41,0,0,1,3.69,3.75V18h-1.79V11.6c0-1.48-.63-2.38-2.09-2.38a2.29,2.29,0,0,0-2.42,2.4Z"/></g></g></svg>