<svg width="288" height="62" viewBox="0 0 288 62" fill="none" xmlns="http://www.w3.org/2000/svg">
<path d="M22.1336 28.6882H6.49333C6.57488 29.6443 6.82532 30.5784 7.23303 31.4471C7.55722 32.1001 8.01064 32.6805 8.56582 33.1531C9.04563 33.5608 9.61015 33.8567 10.2185 34.0194C10.7987 34.1758 11.3968 34.2564 11.9977 34.2593C13.1254 34.3423 14.2503 34.0645 15.2098 33.4663C15.913 32.9424 16.4611 32.2377 16.7958 31.4271L21.9736 33.5396C21.2951 35.3895 19.9979 36.948 18.3018 37.9511C16.3004 39.0475 14.038 39.5774 11.7578 39.4838C10.0614 39.5121 8.37491 39.2205 6.78655 38.6241C5.38006 38.0768 4.1173 37.2152 3.09473 36.1052C2.05852 34.9458 1.27348 33.5844 0.789008 32.1068C0.235803 30.385 -0.0298713 28.5839 0.00266398 26.7757C-0.0135211 25.1467 0.236331 23.5261 0.742361 21.9776C1.20564 20.566 1.95672 19.2658 2.94812 18.1592C3.96026 17.0625 5.19667 16.1966 6.5733 15.6203C8.15459 14.9666 9.85387 14.6467 11.5646 14.6806C13.095 14.6533 14.614 14.9484 16.0228 15.5469C17.2899 16.0911 18.4259 16.9 19.3547 17.9193C20.2857 18.9582 20.9954 20.1758 21.4405 21.4978C21.9305 22.9326 22.1739 24.44 22.1602 25.956L22.1336 28.6882ZM16.3226 24.47C16.3018 23.2335 15.8275 22.0477 14.9898 21.138C14.5721 20.6977 14.0655 20.3512 13.5037 20.1215C12.9419 19.8917 12.3378 19.7839 11.7312 19.8052C11.095 19.7715 10.4585 19.8662 9.85975 20.0837C9.26097 20.3012 8.71212 20.6371 8.24595 21.0713C7.34534 22.0015 6.76418 23.1942 6.58663 24.4766L16.3226 24.47ZM46.6435 39.1306H40.1195V24.5166C40.2019 23.3448 39.9077 22.1774 39.2799 21.1846C38.9565 20.8005 38.5456 20.4995 38.0818 20.307C37.6179 20.1145 37.1147 20.0361 36.6143 20.0784C35.7846 20.0596 34.9602 20.2163 34.1953 20.5382C33.4697 20.8614 32.7959 21.2903 32.1961 21.811V39.1373H25.7321V15.1471H31.9695V16.9197C33.8103 15.5713 36.0192 14.8179 38.3003 14.7606C39.3833 14.7649 40.4539 14.9917 41.4456 15.427C42.558 15.9361 43.4882 16.7732 44.1112 17.826C45.0707 16.8778 46.2013 16.1203 47.4432 15.5936C48.8802 15.0062 50.4226 14.7204 51.9747 14.7539C53.0513 14.7586 54.1233 14.8951 55.1667 15.1604C56.2314 15.429 57.2235 15.9297 58.0721 16.6265C58.9971 17.418 59.7268 18.4123 60.2046 19.532C60.8151 21.0299 61.1013 22.6402 61.0443 24.2567V39.1039H54.5669V24.5166C54.6536 23.3507 54.3766 22.1865 53.7739 21.1846C53.4629 20.8002 53.0617 20.4986 52.6059 20.3068C52.1501 20.1149 51.654 20.0388 51.1617 20.0851C50.5459 20.0481 49.9295 20.1444 49.3544 20.3675C48.7794 20.5906 48.2593 20.9353 47.8297 21.3779C47.0201 22.2687 46.5898 23.4401 46.6302 24.6432L46.6435 39.1306ZM65.1159 15.1404H71.2134V16.8664C72.084 16.2084 73.0565 15.6974 74.0922 15.3537C75.2136 15.0302 76.3773 14.8774 77.5442 14.9006C78.9048 14.8824 80.2539 15.1527 81.5025 15.6936C82.6911 16.211 83.7429 16.9982 84.5746 17.9926C85.4687 19.0904 86.1368 20.3541 86.5405 21.7111C87.0164 23.331 87.2411 25.0143 87.2069 26.7024C87.2221 28.3742 86.9563 30.0367 86.4205 31.6204C85.9233 33.0802 85.1394 34.426 84.1148 35.5787C83.0718 36.7341 81.786 37.6444 80.3497 38.2443C78.7194 38.9078 76.9716 39.2342 75.2118 39.2039C74.6054 39.2039 73.9989 39.2039 73.3925 39.1573C72.7861 39.1106 72.173 39.0773 71.5666 39.0106V46.5409H65.0893L65.1159 15.1404ZM71.6333 33.9194C72.1995 33.9853 72.7691 34.0187 73.3392 34.0194H75.2784C76.0772 34.0698 76.8753 33.9121 77.5948 33.5617C78.3144 33.2113 78.9306 32.6801 79.3834 32.0202C80.2941 30.6874 80.7384 28.8171 80.7162 26.4092C80.7162 24.2989 80.3252 22.744 79.5433 21.7444C78.757 20.7581 77.5442 20.2583 75.8249 20.2583C75.0539 20.2507 74.2861 20.3563 73.5458 20.5716C72.8503 20.7893 72.2017 21.1351 71.6333 21.5911V33.9194ZM92.0915 20.405H88.7596V15.1138H98.6422V39.1039H92.0915V20.405ZM98.289 4.12497C98.293 5.11253 98.2262 6.0991 98.0891 7.07709C97.9753 7.9202 97.7513 8.7447 97.4227 9.52942C97.0694 10.3222 96.6219 11.0695 96.0899 11.7552C95.4636 12.581 94.7963 13.375 94.0907 14.1342L91.8849 11.9284C92.5212 11.2652 93.0801 10.5319 93.5509 9.74267C93.9237 9.11923 94.2064 8.44616 94.3906 7.74349H90.5055V0H98.289V4.12497ZM103.62 4.55813H110.144V24.2767H112.683L118.781 15.1138H125.738L118.187 26.0493L126.184 39.1039H118.947L112.816 29.4612H110.151V39.1039H103.62V4.55813Z" fill="white"/>
<path d="M188.079 39.0973H183.8V23.8302C183.8 20.4249 182.001 18.2392 178.796 18.2392C176.709 18.2996 174.704 19.0628 173.105 20.4049V39.0973H168.873V15.1738H172.958V17.073C174.882 15.6499 177.197 14.852 179.589 14.7872C180.941 14.7426 182.28 15.0732 183.456 15.7424C184.632 16.4117 185.6 17.3935 186.253 18.579C187.859 16.2933 190.631 14.7872 194.25 14.7872C199.161 14.7872 203.006 17.5528 203.006 23.6836V39.0973H198.781V23.8768C198.781 20.3783 197.275 18.2392 193.816 18.2392C190.358 18.2392 188.079 20.6648 188.079 23.9235V39.0973Z" fill="#A0D035"/>
<path d="M212.495 29.8078C212.495 33.9461 214.635 36.0319 218.326 36.0319C222.018 36.0319 224.237 33.8928 224.237 29.8078V15.1471H228.516V29.8078C228.516 35.692 224.77 39.5371 218.353 39.5371C211.936 39.5371 208.244 35.9386 208.244 29.8078V15.1471H212.529L212.495 29.8078Z" fill="#A0D035"/>
<path d="M242.23 14.734C246.122 14.734 249.04 16.34 250.64 18.579L247.794 20.405C246.461 18.8989 244.929 17.9726 242.01 17.9726C238.751 17.9726 237.052 19.8185 237.052 21.6178C237.045 22.4083 237.262 23.1847 237.678 23.8569L248.721 26.5824C249.472 27.17 250.077 27.9231 250.49 28.7831C250.903 29.643 251.111 30.5866 251.1 31.5404C251.1 36.3051 247.768 39.4172 241.963 39.4172C237.192 39.4172 233.84 37.278 232.381 34.2659L235.493 32.56C236.825 35.0923 238.991 36.2585 241.963 36.2585C245.562 36.2585 247.261 34.5058 247.261 32.1268C247.285 31.3101 247.007 30.5133 246.481 29.8877L235.253 27.1355C234.562 26.4791 234.014 25.6866 233.645 24.808C233.276 23.9295 233.093 22.9839 233.107 22.031C233.107 18.0393 236.712 14.734 242.23 14.734Z" fill="#A0D035"/>
<path d="M257.81 18.6723H254.412V15.1738H262.042V39.0973H257.81V18.6723ZM259.223 3.25866C259.637 3.25778 260.048 3.33867 260.431 3.49668C260.814 3.65469 261.163 3.88673 261.456 4.17951C261.749 4.47229 261.982 4.82007 262.141 5.20292C262.3 5.58578 262.382 5.9962 262.382 6.4107C262.376 6.81728 262.289 7.21861 262.126 7.59131C261.964 7.96402 261.728 8.30064 261.434 8.58159C261.141 8.86253 260.794 9.08218 260.414 9.22775C260.034 9.37331 259.629 9.44188 259.223 9.42946C258.826 9.43398 258.433 9.35884 258.065 9.20848C257.698 9.05812 257.365 8.83561 257.085 8.55411C256.806 8.27262 256.585 7.93787 256.437 7.5697C256.29 7.20152 256.217 6.80741 256.224 6.4107C256.212 6.00624 256.28 5.60333 256.424 5.22532C256.569 4.84731 256.786 4.50171 257.065 4.20853C257.344 3.91536 257.679 3.68045 258.049 3.5174C258.419 3.35435 258.818 3.2664 259.223 3.25866Z" fill="#A0D035"/>
<path d="M271.551 27.1355C271.551 33.1664 274.71 36.0852 278.455 36.0852C281.181 36.0852 283.466 34.8657 284.533 32.4334L287.864 33.8461C286.645 36.9115 283.386 39.4838 278.188 39.4838C271.864 39.4838 267.293 34.8657 267.293 27.1355C267.293 20.2783 270.625 14.7873 279.401 14.7873C281.964 14.7857 284.503 15.279 286.878 16.24V22.6107H283.146V18.6124C281.912 18.2688 280.635 18.105 279.355 18.1259C273.55 18.1392 271.551 21.7844 271.551 27.1355Z" fill="#A0D035"/>
<path d="M152.853 33.8927V35.7786H157.425C157.505 35.1656 157.571 34.5391 157.631 33.8927H152.853Z" fill="#A0D035"/>
<path d="M138.972 37.1647H133.921V39.064H138.972V37.1647Z" fill="#A0D035"/>
<path d="M145.276 37.1647H140.225V39.064H145.276V37.1647Z" fill="#A0D035"/>
<path d="M151.587 37.1647H146.536V39.064H151.587V37.1647Z" fill="#A0D035"/>
<path d="M152.84 37.1647V39.064H156.838C156.972 38.4442 157.091 37.8178 157.198 37.1714L152.84 37.1647Z" fill="#A0D035"/>
<path d="M138.972 33.9194H133.921V35.8186H138.972V33.9194Z" fill="#A0D035"/>
<path d="M145.276 33.9194H140.225V35.8186H145.276V33.9194Z" fill="#A0D035"/>
<path d="M151.587 33.9194H146.536V35.8186H151.587V33.9194Z" fill="#A0D035"/>
<path d="M138.972 30.6741H133.921V32.5733H138.972V30.6741Z" fill="#A0D035"/>
<path d="M145.276 30.6741H140.225V32.5733H145.276V30.6741Z" fill="#A0D035"/>
<path d="M151.587 30.6741H146.536V32.5733H151.587V30.6741Z" fill="#A0D035"/>
<path d="M151.587 27.4354H146.536V29.3346H151.587V27.4354Z" fill="#A0D035"/>
<path d="M152.84 30.6741V32.5733H157.705C157.745 31.9535 157.771 31.3205 157.798 30.6741H152.84Z" fill="#A0D035"/>
<path d="M138.972 27.4354H133.921V29.3346H138.972V27.4354Z" fill="#A0D035"/>
<path d="M138.972 24.1901H133.921V26.0893H138.972V24.1901Z" fill="#A0D035"/>
<path d="M138.972 20.9447H133.921V22.844H138.972V20.9447Z" fill="#A0D035"/>
<path d="M145.276 27.4354H140.225V29.3346H145.276V27.4354Z" fill="#A0D035"/>
<path d="M152.84 27.4354V29.328H157.831C157.831 28.8415 157.831 28.3417 157.831 27.8286V27.4354H152.84Z" fill="#A0D035"/>
<path d="M145.276 24.1901H140.225V26.0893H145.276V24.1901Z" fill="#A0D035"/>
<path d="M157.891 24.1901H152.84V26.0893H157.891V24.1901Z" fill="#A0D035"/>
<path d="M151.587 20.9447H146.536V22.844H151.587V20.9447Z" fill="#A0D035"/>
<path d="M145.276 17.7061H140.225V19.6053H145.276V17.7061Z" fill="#A0D035"/>
<path d="M157.891 15.1338H152.84V17.033H157.891V15.1338Z" fill="#A0D035"/>
<path d="M138.972 15.1338H133.921V17.033H138.972V15.1338Z" fill="#A0D035"/>
<path d="M145.603 40.3967C144.497 43.9953 142.198 47.7271 138.099 51.9787L144.883 58.8158C151.287 52.2585 154.879 47.0873 156.565 40.3967H145.603Z" fill="#A0D035"/>
</svg>
