<?xml version="1.0" encoding="utf-8"?>
<!-- Generator: Adobe Illustrator 23.0.1, SVG Export Plug-In . SVG Version: 6.00 Build 0)  -->
<svg version="1.1" id="Warstwa_1" xmlns="http://www.w3.org/2000/svg" xmlns:xlink="http://www.w3.org/1999/xlink" x="0px" y="0px"
	 viewBox="0 0 113.7 24" style="enable-background:new 0 0 113.7 24;" xml:space="preserve">
<style type="text/css">
	.st0{fill:#9F5AFF;}
</style>
<g id="Empik">
	<g>
		<path d="M9.1,11.7H2.7c0.1,0.5,0.2,0.8,0.3,1.1c0.2,0.3,0.3,0.5,0.5,0.7c0.2,0.2,0.4,0.3,0.7,0.4C4.4,13.9,4.7,14,4.9,14
			c0.6,0,1-0.1,1.3-0.3c0.3-0.2,0.5-0.5,0.7-0.8L9,13.7c-0.3,0.8-0.8,1.4-1.5,1.8s-1.6,0.6-2.7,0.6c-0.8,0-1.4-0.1-2-0.4
			c-0.6-0.2-1.1-0.6-1.5-1c-0.4-0.5-0.7-1-1-1.6S0,11.7,0,10.9c0-0.7,0.1-1.4,0.3-2c0.2-0.6,0.5-1.1,0.9-1.6c0.4-0.4,0.9-0.8,1.5-1
			C3.3,6.1,4,6,4.7,6C5.4,6,6,6.1,6.5,6.3c0.5,0.2,1,0.6,1.4,1s0.7,0.9,0.8,1.5S9,10,9,10.6L9.1,11.7L9.1,11.7z M6.7,10
			c0-0.5-0.2-1-0.5-1.4S5.4,8.1,4.8,8.1c-0.6,0-1.1,0.2-1.4,0.5C3.1,8.9,2.8,9.4,2.7,10H6.7z M19.1,16h-2.7v-6
			c0-0.6-0.1-1.1-0.4-1.4c-0.2-0.3-0.6-0.5-1.1-0.5c-0.4,0-0.7,0.1-1,0.2c-0.3,0.1-0.5,0.3-0.8,0.5V16h-2.6V6.2h2.6v0.7
			C14,6.3,14.8,6,15.7,6c0.4,0,0.9,0.1,1.3,0.3c0.4,0.2,0.8,0.5,1.1,1c0.4-0.4,0.8-0.7,1.4-0.9C19.9,6.2,20.6,6,21.3,6
			c0.4,0,0.9,0.1,1.3,0.2c0.4,0.1,0.8,0.3,1.2,0.6c0.4,0.3,0.7,0.7,0.9,1.2C24.9,8.5,25,9.2,25,9.9V16h-2.6v-6
			c0-0.6-0.1-1.1-0.3-1.4c-0.2-0.3-0.6-0.5-1.1-0.5c-0.6,0-1,0.2-1.4,0.5c-0.3,0.4-0.5,0.8-0.5,1.3L19.1,16L19.1,16z M26.6,6.2h2.5
			v0.7c0.4-0.3,0.8-0.5,1.2-0.6c0.4-0.1,0.9-0.2,1.4-0.2c0.6,0,1.1,0.1,1.6,0.3c0.5,0.2,0.9,0.5,1.3,1c0.4,0.4,0.6,0.9,0.8,1.5
			c0.2,0.6,0.3,1.3,0.3,2c0,0.7-0.1,1.4-0.3,2c-0.2,0.6-0.5,1.2-1,1.6c-0.4,0.5-0.9,0.8-1.6,1.1c-0.6,0.3-1.3,0.4-2.1,0.4
			c-0.2,0-0.5,0-0.7,0c-0.2,0-0.5,0-0.7-0.1V19h-2.6L26.6,6.2L26.6,6.2z M29.3,13.9c0.2,0,0.5,0,0.7,0c0.2,0,0.5,0,0.8,0
			c0.7,0,1.3-0.3,1.7-0.8c0.4-0.5,0.6-1.3,0.6-2.3c0-0.9-0.2-1.5-0.5-1.9s-0.8-0.6-1.5-0.6c-0.3,0-0.7,0.1-0.9,0.1
			c-0.3,0.1-0.5,0.2-0.8,0.4L29.3,13.9L29.3,13.9z M37.7,8.3h-1.4V6.2h4V16h-2.7V8.3z M40.2,1.7c0,0.5,0,0.9-0.1,1.2
			c-0.1,0.4-0.1,0.7-0.3,1c-0.1,0.3-0.3,0.6-0.5,0.9c-0.2,0.3-0.5,0.6-0.8,1l-0.9-0.9c0.3-0.3,0.5-0.6,0.7-0.9
			c0.2-0.3,0.3-0.5,0.4-0.8h-1.6V0h3.1V1.7z M42.4,1.9h2.7v8.1h1l2.5-3.8h2.8l-3.1,4.5l3.3,5.3h-2.9l-2.5-4h-1.1v4h-2.7V1.9z"/>
		<path class="st0" d="M64.6,6.2v5.2c0,1.4-0.1,2.7-0.3,3.8s-0.5,2.1-0.9,3.1c-0.4,1-1,1.9-1.7,2.9C61,22,60.2,23,59.3,24l-2.8-2.8
			c0.9-1,1.6-1.9,2.2-2.8c0.5-0.9,0.8-1.7,1.1-2.5h-4.9V6.2H57l0,0C57,7.7,58.2,9,59.7,9s2.7-1.3,2.7-2.8l0,0H64.6z M69,16h3.7
			c0.7,0,1.3-0.1,1.8-0.3c0.6-0.2,1.1-0.5,1.5-0.9c0.4-0.4,0.8-0.9,1-1.6c0.2-0.6,0.4-1.4,0.4-2.2c0-0.7-0.1-1.4-0.2-2
			S76.7,8,76.4,7.5c-0.3-0.4-0.7-0.7-1.2-1c-0.5-0.2-1-0.4-1.7-0.4c-0.6,0-1.1,0.1-1.5,0.2c-0.4,0.2-0.8,0.4-1.3,0.7V1.9H69V16z
			 M75,8.4c0.4,0.6,0.6,1.4,0.6,2.5c0,1.3-0.3,2.2-0.8,2.8c-0.5,0.6-1.3,0.9-2.2,0.9h-1.9v-6C71,8.3,71.4,8,71.8,7.8
			c0.4-0.2,0.8-0.2,1.3-0.2C74,7.6,74.6,7.9,75,8.4z M80.1,16h1.7V6.3h-3.1v1.4h1.4V16z M79.8,3.7C80,3.9,80.3,4,80.6,4
			c0.3,0,0.6-0.1,0.9-0.4c0.2-0.2,0.4-0.5,0.4-0.9c0-0.3-0.1-0.6-0.4-0.9c-0.2-0.2-0.5-0.4-0.9-0.4S80,1.7,79.8,1.9
			c-0.2,0.2-0.4,0.5-0.4,0.9C79.4,3.2,79.5,3.4,79.8,3.7z M84.7,16h1.7V1.9h-1.7V16z M90.8,6.6c-0.5,0.2-1,0.6-1.4,1
			c-0.4,0.4-0.7,1-0.8,1.6c-0.2,0.6-0.3,1.3-0.3,2c0,0.8,0.1,1.4,0.3,2.1c0.2,0.6,0.5,1.1,0.9,1.6c0.4,0.4,0.9,0.8,1.4,1
			c0.6,0.2,1.2,0.4,1.9,0.4c1,0,1.8-0.2,2.5-0.6s1.1-1,1.4-1.7l-1.4-0.6c-0.2,0.4-0.5,0.8-0.8,1c-0.4,0.3-0.9,0.4-1.6,0.4
			c-0.4,0-0.7-0.1-1.1-0.2c-0.3-0.1-0.7-0.3-0.9-0.6c-0.3-0.3-0.5-0.6-0.6-1.1c-0.2-0.4-0.2-1-0.3-1.6h6.8v-0.7
			c0-0.6-0.1-1.1-0.3-1.7c-0.2-0.5-0.4-1-0.8-1.4c-0.4-0.4-0.8-0.7-1.3-1c-0.5-0.2-1.1-0.4-1.7-0.4C92,6.2,91.4,6.3,90.8,6.6z
			 M94.6,8.3c0.4,0.5,0.7,1.1,0.7,1.9h-5.2c0.1-0.8,0.4-1.4,0.8-1.9c0.4-0.5,1.1-0.7,1.8-0.7C93.5,7.5,94.1,7.8,94.6,8.3z M98.4,13
			c0,1,0.3,1.8,0.8,2.3c0.5,0.5,1.3,0.8,2.1,0.8c0.6,0,1-0.1,1.4-0.2c0.4-0.2,0.7-0.4,1.1-0.7l-0.8-1c-0.2,0.2-0.4,0.3-0.6,0.4
			c-0.2,0.1-0.5,0.1-0.7,0.1c-0.5,0-0.8-0.1-1.1-0.4c-0.3-0.3-0.4-0.7-0.4-1.3V7.7h3.3V6.3h-3.4V3.5l-1.7,0.2L98.4,13L98.4,13z
			 M113.7,6.3h-1.8l-1.9,7.5h-1.5l-2.6-7.5H104l3.3,9h2.3l-0.2,0.6c-0.2,0.7-0.4,1.2-0.8,1.5c-0.4,0.3-0.8,0.5-1.3,0.5
			c-0.2,0-0.5-0.1-0.7-0.1s-0.5-0.2-0.6-0.4l-0.8,1.1c0.3,0.2,0.6,0.4,1,0.6c0.4,0.1,0.8,0.2,1.3,0.2c0.9,0,1.6-0.3,2.2-0.8
			c0.6-0.5,1-1.4,1.4-2.5L113.7,6.3z"/>
	</g>
</g>
</svg>
