<?xml version="1.0" encoding="utf-8"?>
<!-- Generator: Adobe Illustrator 23.0.1, SVG Export Plug-In . SVG Version: 6.00 Build 0)  -->
<svg version="1.1" id="Warstwa_1" xmlns="http://www.w3.org/2000/svg" xmlns:xlink="http://www.w3.org/1999/xlink" x="0px" y="0px"
	 viewBox="0 0 85.3 18" style="enable-background:new 0 0 85.3 18;" xml:space="preserve">
<style type="text/css">
	.st0{fill:#FFFFFF;}
	.st1{fill:#9F5AFF;}
</style>
<g>
	<g id="Empik">
		<g>
			<path class="st0" d="M6.8,8.8H2c0,0.3,0.1,0.6,0.2,0.8c0.1,0.2,0.2,0.4,0.4,0.5c0.1,0.1,0.3,0.2,0.5,0.3c0.2,0,0.4,0.1,0.6,0.1
				c0.4,0,0.8-0.1,1-0.2C4.9,10.1,5,9.9,5.1,9.6l1.6,0.7c-0.2,0.6-0.6,1-1.1,1.3s-1.2,0.5-2,0.5c-0.6,0-1.1-0.1-1.5-0.3
				S1.3,11.4,1,11.1s-0.6-0.7-0.7-1.2C0.1,9.3,0,8.8,0,8.2c0-0.5,0.1-1,0.2-1.5c0.1-0.4,0.4-0.8,0.7-1.2C1.2,5.2,1.6,5,2,4.8
				c0.4-0.2,1-0.3,1.5-0.3c0.5,0,1,0.1,1.4,0.3c0.4,0.2,0.7,0.4,1,0.7c0.3,0.3,0.5,0.7,0.6,1.1C6.7,7,6.8,7.5,6.8,8L6.8,8.8L6.8,8.8
				z M5,7.5c0-0.4-0.2-0.8-0.4-1C4.4,6.2,4,6.1,3.6,6.1c-0.4,0-0.8,0.1-1.1,0.4C2.3,6.7,2.1,7.1,2,7.5H5z M14.3,12h-2V7.5
				c0-0.5-0.1-0.8-0.3-1c-0.2-0.2-0.4-0.3-0.8-0.3c-0.3,0-0.5,0-0.7,0.1s-0.4,0.2-0.6,0.4V12h-2V4.6h1.9v0.6
				c0.7-0.4,1.3-0.7,1.9-0.7c0.3,0,0.7,0.1,1,0.2c0.3,0.1,0.6,0.4,0.8,0.7c0.3-0.3,0.6-0.5,1-0.7C15,4.6,15.4,4.5,16,4.5
				c0.3,0,0.7,0,1,0.1c0.3,0.1,0.6,0.2,0.9,0.4c0.3,0.2,0.5,0.5,0.7,0.9c0.2,0.4,0.3,0.9,0.3,1.5V12h-2V7.5c0-0.4-0.1-0.8-0.2-1
				c-0.2-0.2-0.4-0.3-0.8-0.3c-0.4,0-0.8,0.1-1,0.4c-0.2,0.3-0.4,0.6-0.4,1L14.3,12L14.3,12z M20,4.6h1.9v0.5
				c0.3-0.2,0.6-0.4,0.9-0.5s0.7-0.1,1.1-0.1c0.4,0,0.8,0.1,1.2,0.2c0.4,0.2,0.7,0.4,0.9,0.7c0.3,0.3,0.5,0.7,0.6,1.1
				c0.1,0.4,0.2,1,0.2,1.5c0,0.5-0.1,1-0.2,1.5c-0.2,0.5-0.4,0.9-0.7,1.2c-0.3,0.3-0.7,0.6-1.2,0.8S23.6,12,23,12
				c-0.2,0-0.4,0-0.6,0c-0.2,0-0.4,0-0.6,0v2.3h-2L20,4.6L20,4.6z M22,10.4c0.2,0,0.3,0,0.5,0c0.2,0,0.4,0,0.6,0
				c0.6,0,1-0.2,1.3-0.6s0.4-1,0.4-1.7c0-0.7-0.1-1.1-0.4-1.4c-0.2-0.3-0.6-0.4-1.1-0.4c-0.2,0-0.5,0-0.7,0.1
				c-0.2,0.1-0.4,0.2-0.6,0.3L22,10.4L22,10.4z M28.3,6.3h-1V4.6h3V12h-2V6.3z M30.2,1.3c0,0.3,0,0.7-0.1,0.9c0,0.3-0.1,0.5-0.2,0.8
				c-0.1,0.2-0.2,0.5-0.4,0.7c-0.2,0.2-0.4,0.5-0.6,0.7l-0.7-0.7c0.2-0.2,0.4-0.4,0.5-0.7c0.1-0.2,0.2-0.4,0.3-0.6h-1.2V0h2.3V1.3z
				 M31.8,1.4h2v6h0.8l1.9-2.8h2.1L36.2,8l2.5,4h-2.2l-1.9-3h-0.8v3h-2V1.4z"/>
			<path class="st1" d="M48.4,4.6v3.9c0,1.1-0.1,2-0.2,2.8c-0.1,0.8-0.4,1.6-0.7,2.3c-0.3,0.7-0.7,1.5-1.2,2.1
				c-0.5,0.7-1.1,1.4-1.9,2.2l-2.1-2.1c0.7-0.7,1.2-1.4,1.6-2.1c0.4-0.7,0.6-1.3,0.8-1.9h-3.7V4.6h1.7l0,0c0,1.2,0.9,2.1,2,2.1
				s2-0.9,2-2.1l0,0H48.4z M51.7,12h2.7c0.5,0,0.9-0.1,1.4-0.2s0.8-0.4,1.1-0.7c0.3-0.3,0.6-0.7,0.8-1.2c0.2-0.5,0.3-1,0.3-1.7
				c0-0.5-0.1-1-0.2-1.5c-0.1-0.4-0.3-0.8-0.6-1.1c-0.2-0.3-0.6-0.6-0.9-0.7c-0.4-0.2-0.8-0.3-1.2-0.3c-0.4,0-0.8,0.1-1.1,0.2
				c-0.3,0.1-0.6,0.3-1,0.6v-4h-1.3V12z M56.3,6.3c0.3,0.4,0.5,1,0.5,1.8c0,1-0.2,1.7-0.6,2.1c-0.4,0.4-1,0.7-1.6,0.7H53V6.4
				c0.2-0.2,0.5-0.4,0.8-0.6c0.3-0.1,0.6-0.2,1-0.2C55.5,5.7,56,5.9,56.3,6.3z M60,12h1.3V4.7H59v1h1V12z M59.8,2.8
				C60,2.9,60.2,3,60.5,3c0.2,0,0.5-0.1,0.7-0.3c0.2-0.2,0.3-0.4,0.3-0.7c0-0.2-0.1-0.5-0.3-0.7c-0.2-0.2-0.4-0.3-0.7-0.3
				c-0.3,0-0.5,0.1-0.7,0.3c-0.2,0.2-0.3,0.4-0.3,0.7C59.6,2.4,59.6,2.6,59.8,2.8z M63.5,12h1.3V1.4h-1.3V12z M68.1,4.9
				c-0.4,0.2-0.8,0.4-1,0.8c-0.3,0.3-0.5,0.7-0.6,1.2c-0.1,0.4-0.2,0.9-0.2,1.5c0,0.6,0.1,1.1,0.2,1.6c0.1,0.5,0.4,0.9,0.7,1.2
				c0.3,0.3,0.7,0.6,1.1,0.8c0.4,0.2,0.9,0.3,1.4,0.3c0.8,0,1.4-0.1,1.9-0.4c0.5-0.3,0.8-0.7,1.1-1.2l-1-0.4
				c-0.1,0.3-0.3,0.6-0.6,0.8c-0.3,0.2-0.7,0.3-1.2,0.3c-0.3,0-0.6,0-0.8-0.1c-0.2-0.1-0.5-0.2-0.7-0.5c-0.2-0.2-0.3-0.5-0.5-0.8
				c-0.1-0.3-0.2-0.7-0.2-1.2h5.1V7.9c0-0.4-0.1-0.9-0.2-1.3c-0.1-0.4-0.3-0.7-0.6-1c-0.3-0.3-0.6-0.5-1-0.7
				c-0.4-0.2-0.8-0.3-1.3-0.3C69,4.6,68.5,4.7,68.1,4.9z M70.9,6.2c0.3,0.4,0.5,0.8,0.5,1.4h-3.9c0.1-0.6,0.3-1.1,0.6-1.4
				c0.3-0.4,0.8-0.5,1.4-0.5C70.1,5.6,70.6,5.8,70.9,6.2z M73.8,9.7c0,0.8,0.2,1.4,0.6,1.8c0.4,0.4,0.9,0.6,1.6,0.6
				c0.4,0,0.8-0.1,1.1-0.2c0.3-0.1,0.6-0.3,0.8-0.5l-0.6-0.8c-0.2,0.1-0.3,0.2-0.5,0.3C76.7,11,76.5,11,76.3,11
				c-0.3,0-0.6-0.1-0.8-0.3c-0.2-0.2-0.3-0.5-0.3-1v-4h2.5v-1h-2.5V2.6l-1.3,0.2L73.8,9.7L73.8,9.7z M85.3,4.7h-1.3l-1.5,5.6h-1.1
				l-2-5.6H78l2.5,6.8h1.7l-0.1,0.4c-0.1,0.5-0.3,0.9-0.6,1.1c-0.3,0.2-0.6,0.3-1,0.3c-0.2,0-0.4,0-0.6-0.1s-0.3-0.2-0.5-0.3
				l-0.6,0.8c0.2,0.2,0.4,0.3,0.7,0.4c0.3,0.1,0.6,0.2,1,0.2c0.7,0,1.2-0.2,1.6-0.6s0.8-1,1-1.9L85.3,4.7z"/>
		</g>
	</g>
</g>
</svg>
