<?xml version="1.0" encoding="utf-8"?>
<!-- Generator: Adobe Illustrator 23.0.1, SVG Export Plug-In . SVG Version: 6.00 Build 0)  -->
<svg version="1.1" id="Warstwa_1" xmlns="http://www.w3.org/2000/svg" xmlns:xlink="http://www.w3.org/1999/xlink" x="0px" y="0px"
	 viewBox="0 0 99.7 24" style="enable-background:new 0 0 99.7 24;" xml:space="preserve">
<style type="text/css">
	.st0{fill:#FF5533;}
</style>
<g id="Empik">
	<g>
		<path d="M9.1,11.7H2.7c0.1,0.5,0.2,0.8,0.3,1.1c0.2,0.3,0.3,0.5,0.5,0.7c0.2,0.2,0.4,0.3,0.7,0.4C4.4,13.9,4.7,14,4.9,14
			c0.6,0,1-0.1,1.3-0.3c0.3-0.2,0.5-0.5,0.7-0.8L9,13.7c-0.3,0.8-0.8,1.4-1.5,1.8s-1.6,0.6-2.7,0.6c-0.8,0-1.4-0.1-2-0.4
			c-0.6-0.2-1.1-0.6-1.5-1c-0.4-0.5-0.7-1-1-1.6S0,11.7,0,10.9c0-0.7,0.1-1.4,0.3-2c0.2-0.6,0.5-1.1,0.9-1.6c0.4-0.4,0.9-0.8,1.5-1
			C3.3,6.1,4,6,4.7,6C5.4,6,6,6.1,6.5,6.3c0.5,0.2,1,0.6,1.4,1s0.7,0.9,0.8,1.5S9,10,9,10.6L9.1,11.7L9.1,11.7z M6.7,10
			c0-0.5-0.2-1-0.5-1.4S5.4,8.1,4.8,8.1c-0.6,0-1.1,0.2-1.4,0.5C3.1,8.9,2.8,9.4,2.7,10H6.7z M19.1,16h-2.7v-6
			c0-0.6-0.1-1.1-0.4-1.4c-0.2-0.3-0.6-0.5-1.1-0.5c-0.4,0-0.7,0.1-1,0.2c-0.3,0.1-0.5,0.3-0.8,0.5V16h-2.6V6.2h2.6v0.7
			C14,6.3,14.8,6,15.7,6c0.4,0,0.9,0.1,1.3,0.3c0.4,0.2,0.8,0.5,1.1,1c0.4-0.4,0.8-0.7,1.4-0.9C19.9,6.2,20.6,6,21.3,6
			c0.4,0,0.9,0.1,1.3,0.2c0.4,0.1,0.8,0.3,1.2,0.6c0.4,0.3,0.7,0.7,0.9,1.2C24.9,8.5,25,9.2,25,9.9V16h-2.6v-6
			c0-0.6-0.1-1.1-0.3-1.4c-0.2-0.3-0.6-0.5-1.1-0.5c-0.6,0-1,0.2-1.4,0.5c-0.3,0.4-0.5,0.8-0.5,1.3L19.1,16L19.1,16z M26.6,6.2h2.5
			v0.7c0.4-0.3,0.8-0.5,1.2-0.6c0.4-0.1,0.9-0.2,1.4-0.2c0.6,0,1.1,0.1,1.6,0.3c0.5,0.2,0.9,0.5,1.3,1c0.4,0.4,0.6,0.9,0.8,1.5
			c0.2,0.6,0.3,1.3,0.3,2c0,0.7-0.1,1.4-0.3,2c-0.2,0.6-0.5,1.2-1,1.6c-0.4,0.5-0.9,0.8-1.6,1.1c-0.6,0.3-1.3,0.4-2.1,0.4
			c-0.2,0-0.5,0-0.7,0c-0.2,0-0.5,0-0.7-0.1V19h-2.6L26.6,6.2L26.6,6.2z M29.3,13.9c0.2,0,0.5,0,0.7,0c0.2,0,0.5,0,0.8,0
			c0.7,0,1.3-0.3,1.7-0.8c0.4-0.5,0.6-1.3,0.6-2.3c0-0.9-0.2-1.5-0.5-1.9s-0.8-0.6-1.5-0.6c-0.3,0-0.7,0.1-0.9,0.1
			c-0.3,0.1-0.5,0.2-0.8,0.4L29.3,13.9L29.3,13.9z M37.7,8.3h-1.4V6.2h4V16h-2.7V8.3z M40.2,1.7c0,0.5,0,0.9-0.1,1.2
			c-0.1,0.4-0.1,0.7-0.3,1c-0.1,0.3-0.3,0.6-0.5,0.9c-0.2,0.3-0.5,0.6-0.8,1l-0.9-0.9c0.3-0.3,0.5-0.6,0.7-0.9
			c0.2-0.3,0.3-0.5,0.4-0.8h-1.6V0h3.1V1.7z M42.4,1.9h2.7v8.1h1l2.5-3.8h2.8l-3.1,4.5l3.3,5.3h-2.9l-2.5-4h-1.1v4h-2.7V1.9z"/>
		<path class="st0" d="M57.5,6.2H64L58.7,10L57.5,6.2z M64.6,11.4V6.9l-4.1,2.9l4,2.9C64.6,12.3,64.6,11.9,64.6,11.4z M59.7,12.7h-5
			V16h3.9L59.7,12.7z M61.1,11.6l-1.7,5.1c-0.2,0.6-0.5,1.2-0.8,1.8c-0.5,0.8-1.2,1.8-2.2,2.8l2.8,2.8c1-1,1.9-2,2.5-2.9
			c0.7-0.9,1.2-1.9,1.6-2.8c0.4-1,0.7-2,0.9-3.1c0.1-0.4,0.1-0.8,0.1-1.2L61.1,11.6z M58.2,11.7l-1.8-5.6h-1.7v5.6H58.2z M70.7,7.7
			V16H69v-10c0-0.5,0.1-1.1,0.2-1.6c0.2-0.5,0.4-1,0.7-1.4c0.3-0.4,0.7-0.7,1.3-1c0.5-0.2,1.1-0.4,1.8-0.4c0.3,0,0.5,0,0.7,0.1
			c0.2,0,0.4,0.1,0.6,0.2l-0.2,1.3c-0.1-0.1-0.3-0.1-0.5-0.1c-0.2,0-0.4,0-0.6,0c-0.8,0-1.4,0.2-1.8,0.7c-0.4,0.5-0.6,1.1-0.6,2v0.5
			h2.9v1.4H70.7z M83.1,11.1c0,0.7-0.1,1.4-0.3,2c-0.2,0.6-0.5,1.1-0.8,1.6c-0.4,0.4-0.8,0.8-1.4,1c-0.6,0.2-1.2,0.4-2,0.4
			c-0.8,0-1.4-0.1-2-0.4c-0.6-0.2-1-0.6-1.4-1c-0.4-0.4-0.7-1-0.8-1.6c-0.2-0.6-0.3-1.3-0.3-2c0-0.7,0.1-1.4,0.3-2
			c0.2-0.6,0.5-1.1,0.8-1.6c0.4-0.4,0.8-0.8,1.4-1c0.6-0.2,1.2-0.4,2-0.4c0.8,0,1.4,0.1,2,0.4c0.6,0.2,1,0.6,1.4,1
			c0.4,0.4,0.7,1,0.8,1.6C83.1,9.8,83.1,10.4,83.1,11.1z M81.4,11.1c0-2.4-0.9-3.6-2.8-3.6c-1.9,0-2.8,1.2-2.8,3.6
			c0,1.2,0.2,2.1,0.7,2.7c0.5,0.6,1.1,0.9,2.1,0.9c0.9,0,1.6-0.3,2.1-0.9C81.2,13.2,81.4,12.3,81.4,11.1z M84.7,3.7l1.7-0.2v2.8h3.3
			v1.4h-3.3V13c0,0.6,0.1,1,0.4,1.3c0.3,0.3,0.7,0.4,1.1,0.4c0.3,0,0.5-0.1,0.7-0.1c0.2-0.1,0.4-0.2,0.6-0.4l0.8,1
			c-0.3,0.3-0.7,0.5-1.1,0.7c-0.4,0.2-0.9,0.2-1.4,0.2c-0.9,0-1.6-0.3-2.1-0.8c-0.5-0.5-0.8-1.3-0.8-2.3L84.7,3.7L84.7,3.7z
			 M99.7,11.1c0,0.7-0.1,1.4-0.3,2c-0.2,0.6-0.5,1.1-0.8,1.6c-0.4,0.4-0.8,0.8-1.4,1c-0.6,0.2-1.2,0.4-2,0.4s-1.4-0.1-2-0.4
			c-0.6-0.2-1-0.6-1.4-1c-0.4-0.4-0.7-1-0.8-1.6c-0.2-0.6-0.3-1.3-0.3-2c0-0.7,0.1-1.4,0.3-2c0.2-0.6,0.5-1.1,0.8-1.6
			c0.4-0.4,0.8-0.8,1.4-1c0.6-0.2,1.2-0.4,2-0.4s1.4,0.1,2,0.4c0.6,0.2,1,0.6,1.4,1c0.4,0.4,0.7,1,0.8,1.6
			C99.6,9.8,99.7,10.4,99.7,11.1z M98,11.1c0-2.4-0.9-3.6-2.8-3.6c-1.9,0-2.8,1.2-2.8,3.6c0,1.2,0.2,2.1,0.7,2.7
			c0.5,0.6,1.1,0.9,2.1,0.9s1.6-0.3,2.1-0.9C97.8,13.2,98,12.3,98,11.1z"/>
	</g>
</g>
</svg>
