<?xml version="1.0" encoding="utf-8"?>
<!-- Generator: Adobe Illustrator 23.0.1, SVG Export Plug-In . SVG Version: 6.00 Build 0)  -->
<svg version="1.1" id="Warstwa_1" xmlns="http://www.w3.org/2000/svg" xmlns:xlink="http://www.w3.org/1999/xlink" x="0px" y="0px"
	 viewBox="0 0 87.4 24" style="enable-background:new 0 0 87.4 24;" xml:space="preserve">
<style type="text/css">
	.st0{fill:#00C5CF;}
</style>
<g id="Empik">
	<g>
		<path d="M9.1,11.7H2.7c0.1,0.5,0.2,0.8,0.3,1.1c0.2,0.3,0.3,0.5,0.5,0.7c0.2,0.2,0.4,0.3,0.7,0.4C4.4,14,4.7,14,4.9,14
			c0.6,0,1-0.1,1.3-0.3c0.3-0.2,0.5-0.5,0.7-0.8L9,13.7c-0.3,0.8-0.8,1.4-1.5,1.8s-1.6,0.6-2.7,0.6c-0.8,0-1.4-0.1-2-0.4
			s-1.1-0.6-1.5-1s-0.7-1-1-1.6S0,11.8,0,10.9c0-0.7,0.1-1.4,0.3-2c0.2-0.6,0.5-1.1,0.9-1.6c0.4-0.4,0.9-0.8,1.5-1
			C3.3,6.1,3.9,6,4.7,6C5.4,6,6,6.1,6.5,6.4c0.5,0.2,1,0.6,1.4,1c0.4,0.4,0.7,0.9,0.8,1.5C8.9,9.4,9,10,9,10.6L9.1,11.7L9.1,11.7z
			 M6.7,10c0-0.5-0.2-1-0.5-1.4C5.8,8.3,5.4,8.1,4.8,8.1c-0.6,0-1.1,0.2-1.4,0.5C3,8.9,2.8,9.4,2.7,10H6.7z M19.1,16h-2.7v-6
			c0-0.6-0.1-1.1-0.4-1.4c-0.2-0.3-0.6-0.5-1.1-0.5c-0.4,0-0.7,0.1-1,0.2s-0.5,0.3-0.8,0.5V16h-2.6V6.2h2.6v0.7
			C14,6.3,14.8,6,15.7,6c0.4,0,0.9,0.1,1.3,0.3c0.4,0.2,0.8,0.5,1.1,1c0.4-0.4,0.8-0.7,1.4-0.9C19.9,6.2,20.5,6,21.3,6
			c0.4,0,0.9,0.1,1.3,0.2c0.4,0.1,0.8,0.3,1.2,0.6c0.4,0.3,0.7,0.7,0.9,1.2C24.8,8.5,25,9.1,25,9.9v6h-2.6v-6c0-0.6-0.1-1.1-0.3-1.4
			S21.4,8.2,21,8.2c-0.6,0-1,0.2-1.4,0.5s-0.5,0.8-0.5,1.3L19.1,16L19.1,16z M26.6,6.2h2.5v0.7c0.4-0.3,0.8-0.5,1.2-0.6
			c0.4-0.1,0.9-0.2,1.4-0.2c0.6,0,1.1,0.1,1.6,0.3c0.5,0.2,0.9,0.5,1.3,1c0.4,0.4,0.6,0.9,0.8,1.5c0.2,0.6,0.3,1.3,0.3,2
			c0,0.7-0.1,1.4-0.3,2c-0.2,0.6-0.5,1.2-1,1.6c-0.4,0.5-0.9,0.8-1.6,1.1S31.5,16,30.7,16c-0.2,0-0.5,0-0.7,0c-0.2,0-0.5,0-0.7-0.1
			V19h-2.6L26.6,6.2L26.6,6.2z M29.3,13.9c0.2,0,0.5,0,0.7,0c0.2,0,0.5,0,0.8,0c0.7,0,1.3-0.3,1.7-0.8c0.4-0.5,0.6-1.3,0.6-2.3
			c0-0.9-0.2-1.5-0.5-1.9S31.7,8.3,31,8.3c-0.3,0-0.7,0.1-0.9,0.1c-0.3,0.1-0.5,0.2-0.8,0.4L29.3,13.9L29.3,13.9z M37.6,8.3h-1.4
			V6.2h4V16h-2.7V8.3z M40.2,1.7c0,0.5,0,0.9-0.1,1.2s-0.1,0.7-0.3,1s-0.3,0.6-0.5,0.9c-0.2,0.3-0.5,0.6-0.8,1l-0.9-0.9
			c0.3-0.3,0.5-0.6,0.7-0.9c0.2-0.3,0.3-0.5,0.4-0.8H37V0h3.1V1.7z M42.3,1.9H45v8.1h1l2.5-3.8h2.8l-3.1,4.5l3.3,5.3h-2.9L46.1,12
			H45v4h-2.7V1.9z"/>
		<path class="st0" d="M54.7,6.2V16h4.9c-0.2,0.8-0.5,1.6-1.1,2.5c-0.5,0.9-1.2,1.8-2.1,2.7l2.8,2.8c1-1,1.8-2,2.5-2.9
			c0.7-0.9,1.3-1.9,1.7-2.9c0.4-1,0.7-2,0.9-3.1c0.2-1.1,0.3-2.3,0.3-3.8V6.2H54.7z M57.2,14.3V7.8l5.7,3.3L57.2,14.3z M74.8,14.6
			c-0.4,0.3-0.8,0.5-1.3,0.7c-0.4,0.1-0.9,0.2-1.4,0.2c-0.6,0-1.2-0.1-1.7-0.3c-0.5-0.2-0.9-0.5-1.3-1c-0.3-0.4-0.6-0.9-0.8-1.4
			s-0.3-1.2-0.3-1.8c0-0.6,0.1-1.2,0.3-1.7c0.2-0.5,0.5-1,1-1.5c0.4-0.4,1-0.7,1.6-1c0.7-0.2,1.4-0.4,2.2-0.4h4.2v1.3h-1v7.5
			c0,0.7-0.1,1.3-0.3,1.8c-0.2,0.5-0.5,1-0.9,1.3s-0.8,0.6-1.4,0.8c-0.5,0.2-1.1,0.3-1.8,0.3c-0.7,0-1.4-0.1-2-0.4
			c-0.6-0.2-1.2-0.5-1.6-1l0.9-1.1c0.4,0.3,0.8,0.6,1.2,0.8c0.4,0.2,0.9,0.2,1.5,0.2c0.9,0,1.6-0.2,2-0.7c0.5-0.5,0.7-1.2,0.7-2.1
			L74.8,14.6L74.8,14.6z M72.5,14.1c0.9,0,1.7-0.3,2.3-0.9V7.6h-1.5c-0.6,0-1.1,0.1-1.5,0.2C71.4,8,71,8.2,70.8,8.5s-0.5,0.6-0.6,1
			c-0.1,0.4-0.2,0.8-0.2,1.3c0,1.1,0.2,1.9,0.7,2.4C71.1,13.9,71.7,14.1,72.5,14.1z M87.4,11.2c0,0.7-0.1,1.4-0.3,2
			c-0.2,0.6-0.5,1.1-0.8,1.6c-0.4,0.4-0.8,0.8-1.4,1c-0.6,0.2-1.2,0.4-2,0.4c-0.8,0-1.4-0.1-2-0.4c-0.6-0.2-1-0.6-1.4-1
			c-0.4-0.4-0.7-1-0.8-1.6c-0.2-0.6-0.3-1.3-0.3-2c0-0.7,0.1-1.4,0.3-2c0.2-0.6,0.5-1.1,0.8-1.6s0.8-0.8,1.4-1
			c0.6-0.2,1.2-0.4,2-0.4c0.8,0,1.4,0.1,2,0.4c0.6,0.2,1,0.6,1.4,1c0.4,0.4,0.7,1,0.8,1.6C87.3,9.7,87.4,10.4,87.4,11.2z M85.7,11.1
			c0-2.4-0.9-3.6-2.8-3.6c-1.9,0-2.8,1.2-2.8,3.6c0,1.2,0.2,2.1,0.7,2.7c0.5,0.6,1.1,0.9,2.1,0.9c0.9,0,1.6-0.3,2.1-0.9
			C85.5,13.2,85.7,12.3,85.7,11.1z"/>
	</g>
</g>
</svg>
