<svg xmlns="http://www.w3.org/2000/svg" viewBox="0 0 1792 1792"><path fill="#949a9d" d="M555 1335l78-141c-58-42-103.3-95-136-159s-49-131.7-49-203c0-80.7 20.3-155.7 61-225-152.7 78-279.7 195.7-381 353 111.3 172 253.7 297 427 375zm389-759c0-13.3-4.7-24.7-14-34s-20.7-14-34-14c-83.3 0-154.8 29.8-214.5 89.5S592 748.7 592 832c0 13.3 4.7 24.7 14 34s20.7 14 34 14 24.7-4.7 34-14 14-20.7 14-34c0-57.3 20.3-106.3 61-147s89.7-61 147-61c13.3 0 24.7-4.7 34-14s14-20.7 14-34zm363-191c0 4.7-.3 7.7-1 9-70 125.3-175 314-315 566s-245.3 441-316 567l-49 89c-6.7 10.7-16 16-28 16-8 0-52.7-23.3-134-70-10.7-6.7-16-16-16-28 0-8 14.7-37 44-87-95.3-43.3-183.2-101-263.5-173S78.7 1120.3 20 1029c-13.3-20.7-20-43.7-20-69s6.7-48.3 20-69c102-156.7 228.7-280.3 380-371s316.7-136 496-136c59.3 0 119.3 5.7 180 17l54-97c6.7-10.7 16-16 28-16 3.3 0 9.3 2 18 6s19 9.2 31 15.5 23 12.5 33 18.5 20.5 12.2 31.5 18.5 17.5 10.2 19.5 11.5c10.7 6.7 16 15.7 16 27zm37 447c0 92.7-26.3 177.2-79 253.5s-122.3 131.2-209 164.5l280-502c5.3 30 8 58 8 84zm448 128c0 23.3-6.7 46.3-20 69-26 42.7-62.3 91-109 145-100 114.7-215.8 203.7-347.5 267s-271.5 95-419.5 95l74-132c141.3-12 272.2-57.7 392.5-137s220.8-181.7 301.5-307c-76.7-119.3-170.7-217.3-282-294l63-112c63.3 42.7 124.2 93.7 182.5 153S1734 827.7 1772 891c13.3 22.7 20 45.7 20 69z"/></svg>