<svg id="Layer_1" data-name="Layer 1" xmlns="http://www.w3.org/2000/svg" width="110.5" height="110.6" viewBox="0 0 110.5 110.6">
  <defs>
    <style>
      .cls-1 {
        fill: #ffde7d;
      }
    </style>
  </defs>
  <title>gwiazda</title>
  <polygon class="cls-1" points="110.5 41.4 76.4 41.4 78.7 48.4 91.8 48.4 73.6 63.8 70 66.9 71.5 71.3 78.4 91.6 59.4 77.4 55.3 74.3 51.1 77.4 32.1 91.6 39 71.3 40.5 66.9 37 63.8 18.8 48.4 41.4 48.4 46.4 48.4 48 43.6 55.3 21.8 62.5 43.6 64.1 48.4 69.1 48.4 71.4 48.4 69.1 41.4 67.9 38 55.3 0 41.4 41.4 0 41.4 32.5 69.1 18.4 110.6 55.3 82.9 92.1 110.6 78 69.1 110.5 41.4"/>
</svg>
