<?xml version="1.0" encoding="utf-8"?>
<!-- Generator: Adobe Illustrator 23.0.1, SVG Export Plug-In . SVG Version: 6.00 Build 0)  -->
<svg version="1.1" id="ikony" xmlns="http://www.w3.org/2000/svg" xmlns:xlink="http://www.w3.org/1999/xlink" x="0px" y="0px"
	 viewBox="0 0 24 24" style="enable-background:new 0 0 24 24;" xml:space="preserve">
<style type="text/css">
	.st0{fill:#FFCB59;}
	.st1{fill:#00E59B;}
	.st2{fill:#E6AA9A;}
	.st3{fill:#AAD821;}
	.st4{fill:#A79797;}
	.st5{fill:#E6456D;}
	.st6{fill:#FF7C2B;}
	.st7{fill:#3398FF;}
	.st8{fill:#FF9E4A;}
</style>
<g>
	<path class="st6" d="M12,0C5.4,0,0,5.4,0,12s5.4,12,12,12s12-5.4,12-12S18.6,0,12,0z M21.3,6.1l-4.3,2.5C16.5,8,16,7.5,15.4,7.1
		l2.5-4.3C19.3,3.6,20.4,4.7,21.3,6.1z M12,17c-2.8,0-5-2.2-5-5c0-2.8,2.2-5,5-5s5,2.2,5,5C17,14.8,14.8,17,12,17z M17.1,2.2
		l-2.5,4.3C13.8,6.2,12.9,6,12,6s-1.8,0.2-2.6,0.6L6.9,2.2C8.5,1.5,10.2,1,12,1S15.5,1.5,17.1,2.2z M6.1,2.7l2.5,4.3
		C8,7.5,7.5,8,7.1,8.6L2.7,6.1C3.6,4.7,4.7,3.6,6.1,2.7z M2.2,6.9l4.3,2.5C6.2,10.2,6,11.1,6,12c0,0.9,0.2,1.8,0.6,2.5l-4.3,2.5
		C1.5,15.5,1,13.8,1,12C1,10.2,1.5,8.5,2.2,6.9z M2.7,17.9l4.3-2.5C7.5,16,8,16.5,8.6,16.9l-2.5,4.3C4.7,20.4,3.6,19.3,2.7,17.9z
		 M6.9,21.8l2.5-4.3c0.8,0.4,1.6,0.6,2.6,0.6s1.8-0.2,2.6-0.6l2.5,4.3C15.5,22.5,13.8,23,12,23S8.5,22.5,6.9,21.8z M17.9,21.3
		l-2.5-4.3c0.6-0.4,1.1-0.9,1.5-1.5l4.3,2.5C20.4,19.3,19.3,20.4,17.9,21.3z M21.8,17.1l-4.3-2.5c0.4-0.8,0.6-1.6,0.6-2.5
		c0-0.9-0.2-1.8-0.6-2.6l4.3-2.5C22.5,8.5,23,10.2,23,12C23,13.8,22.5,15.5,21.8,17.1z"/>
</g>
</svg>
