<?xml version="1.0" encoding="utf-8"?>
<!-- Generator: Adobe Illustrator 22.1.0, SVG Export Plug-In . SVG Version: 6.00 Build 0)  -->
<svg version="1.1" id="ikony" xmlns="http://www.w3.org/2000/svg" xmlns:xlink="http://www.w3.org/1999/xlink" x="0px" y="0px"
	 viewBox="0 0 24 24" style="enable-background:new 0 0 24 24;" xml:space="preserve">
<style type="text/css">
	.st0{fill:#919396;}
</style>
<title>emi</title>
<path class="st0" d="M8,6.8c0,1.1,0.9,2,2,2s2-0.9,2-2c0-1.1-0.9-2-2-2C9.6,4.8,9.1,5,8.8,5.3l-8-5.2L0.2,0.9l8,5.2
	C8.1,6.3,8,6.6,8,6.8z M10,5.8c0.6,0,1,0.4,1,1s-0.4,1-1,1s-1-0.4-1-1C9,6.3,9.5,5.8,10,5.8L10,5.8z"/>
<path class="st0" d="M14.2,10.3c1.1,0,2-0.9,2-2c0-0.3-0.1-0.6-0.2-0.9l7.2-5.9l-0.6-0.8l-7.2,6c-0.3-0.2-0.7-0.3-1.1-0.3
	c-1.1,0-2,0.9-2,2S13.1,10.3,14.2,10.3L14.2,10.3z M14.2,7.3c0.6,0,1,0.4,1,1s-0.4,1-1,1s-1-0.4-1-1C13.2,7.8,13.6,7.3,14.2,7.3
	L14.2,7.3z"/>
<path class="st0" d="M1,23.5h22v-12H1V23.5z M2,22.5v-1.1h20v1.1H2z M9.4,14.5v5.9H6v-6L9.4,14.5z M22,20.4h-2.6v-5.9H22V20.4z
	 M18.4,20.4h-3.5v-5.9h3.5V20.4z M13.9,20.4h-3.5v-5.9h3.5V20.4z M22,12.5v1H3v1h2v5.9H2v-7.9H22z"/>
</svg>
