<svg xmlns="http://www.w3.org/2000/svg" width="24" height="24"><g fill="none" fill-rule="evenodd"><g fill="#337AB7" fill-rule="nonzero"><path d="M11.1538462 5.20793269V19.5925481c0 .2291666-.083734.427484-.251202.5949519-.1674679.1674679-.3657852.2512019-.5949519.2512019s-.42748397-.083734-.59495192-.2512019l-4.40264423-4.4026442h-3.4639423c-.22916667 0-.42748398-.083734-.59495193-.251202C1.08373397 15.3661859 1 15.1678686 1 14.9387019V9.86177885c0-.22916667.08373397-.42748398.25120192-.59495193.16746795-.16746795.36578526-.25120192.59495193-.25120192h3.4639423l4.40264423-4.40264423c.16746795-.16746795.36578522-.25120192.59495192-.25120192.2291667 0 .427484.08373397.5949519.25120192.167468.16746795.251202.36578526.251202.59495192zm5.076923 7.19230771c0 .6698718-.1872996 1.2934695-.561899 1.8707933-.3745994.5773237-.8703926.989383-1.4873798 1.2361778-.088141.0440706-.1983173.0661058-.3305289.0661058-.2291666 0-.4274839-.0815304-.5949519-.2445913-.1674679-.1630609-.2512019-.3635818-.2512019-.6015625 0-.1850962.0528846-.3415465.1586538-.469351.1057693-.1278045.2335738-.2379808.3834135-.3305288.1498397-.0925481.2996795-.1939103.4495192-.3040866.1498398-.1101763.2776443-.2688301.3834135-.4759615.1057692-.2071314.1586538-.4561298.1586538-.7469952s-.0528846-.5398638-.1586538-.7469952c-.1057692-.2071314-.2335737-.3657853-.3834135-.4759615-.1498397-.1101763-.2996795-.2115385-.4495192-.3040866-.1498397-.0925481-.2776442-.2027243-.3834135-.3305288-.1057692-.1278045-.1586538-.2842548-.1586538-.469351 0-.23798076.083734-.43850159.2512019-.60156249.167468-.1630609.3657853-.24459135.5949519-.24459135.1322116 0 .2423879.02203526.3305289.06610577.6169872.23798077 1.1127804.64783654 1.4873798 1.22956727.3745994.5817308.561899 1.2075321.561899 1.8774039zm3.3846154 0c0 1.3485577-.3745993 2.5935497-1.1237981 3.7349759-.7491987 1.1414263-1.7407852 1.9721555-2.9747596 2.4921875-.1145833.0440706-.2247596.0661058-.3305288.0661058-.2379808 0-.4407052-.083734-.6081731-.2512019-.1674679-.167468-.2512019-.3657853-.2512019-.5949519 0-.34375.171875-.6037661.515625-.7800481.4935897-.255609.8285256-.4495192 1.0048077-.5817308.6522436-.4759615 1.161258-1.073117 1.5270432-1.7914663.3657853-.7183494.5486779-1.4829728.5486779-2.2938702 0-.8108975-.1828926-1.5755208-.5486779-2.2938702-.3657852-.71834937-.8747996-1.31550482-1.5270432-1.79146635-.1762821-.13221154-.511218-.3261218-1.0048077-.58173077-.34375-.17628205-.515625-.43629808-.515625-.78004808 0-.22916667.083734-.42748397.2512019-.59495192.1674679-.16746795.3657853-.25120193.5949519-.25120193.1145834 0 .2291667.02203526.34375.06610577 1.2339744.52003205 2.2255609 1.35076122 2.9747596 2.4921875.7491988 1.14142629 1.1237981 2.38641828 1.1237981 3.73497598zm3.3846154 0c0 2.0272436-.5596955 3.8892227-1.6790865 5.5859375-1.1193911 1.6967147-2.6089744 2.9461138-4.46875 3.7481971-.1145834.0440705-.2291667.0661058-.34375.0661058-.2291667 0-.427484-.083734-.594952-.251202-.1674679-.1674679-.2512019-.3657852-.2512019-.5949519 0-.3173077.171875-.5773237.515625-.7800481.0616987-.0352564.1608574-.0815304.297476-.1388221.1366186-.0572916.2357772-.1035657.2974759-.1388221.4054488-.2203525.766827-.4451122 1.0841347-.6742788 1.0841346-.8020834 1.9302884-1.802484 2.5384615-3.001202.6081731-1.1987179.9122596-2.4723557.9122596-3.8209134 0-1.3485577-.3040865-2.62219553-.9122596-3.82091348-.6081731-1.19871795-1.4543269-2.19911859-2.5384615-3.00120192-.3173077-.22916667-.6786859-.45392628-1.0841347-.67427885-.0616987-.03525641-.1608573-.08153044-.2974759-.13882211s-.2357773-.10356571-.297476-.13882212c-.34375-.20272436-.515625-.46274038-.515625-.78004807 0-.22916667.083734-.42748398.2512019-.59495193C16.0809295 3.08373397 16.2792468 3 16.5084135 3c.1145833 0 .2291666.02203526.34375.06610577 1.8597756.80208333 3.3493589 2.05148237 4.46875 3.74819711C22.4403045 8.51101763 23 10.3729968 23 12.4002404z"/></g></g></svg>