<?xml version="1.0" encoding="utf-8"?>
<!-- Generator: Adobe Illustrator 23.0.4, SVG Export Plug-In . SVG Version: 6.00 Build 0)  -->
<svg version="1.1" id="Warstwa_1" xmlns="http://www.w3.org/2000/svg" xmlns:xlink="http://www.w3.org/1999/xlink" x="0px" y="0px"
	 viewBox="0 0 74.8 74.8" style="enable-background:new 0 0 74.8 74.8;" xml:space="preserve">
<style type="text/css">
	.st0{clip-path:url(#SVGID_2_);}
	.st1{fill:#2938E5;}
	.st2{fill:#FFFFFF;}
</style>
<g>
	<g id="Layer_1">
		<g>
			<defs>
				<rect id="SVGID_1_" y="0" width="74.8" height="74.8"/>
			</defs>
			<clipPath id="SVGID_2_">
				<use xlink:href="#SVGID_1_"  style="overflow:visible;"/>
			</clipPath>
			<g class="st0">
				<path class="st1" d="M74.8,37.4c0,20.7-16.8,37.4-37.4,37.4S0,58.1,0,37.4C0,16.8,16.8,0,37.4,0C58.1,0,74.8,16.8,74.8,37.4"/>
			</g>
		</g>
		<path class="st2" d="M50.5,28.5c0,3.4-0.2,6.8-0.7,10.2c-0.4,2.8-1.2,5.6-2.3,8.3c-1.2,2.7-2.6,5.2-4.4,7.5
			c-2.1,2.7-4.4,5.3-6.8,7.7l-7.4-7.4c2.2-2.2,4.2-4.6,5.8-7.3c1.3-2.1,2.2-4.3,2.7-6.7H24.4V14.6h26.1V28.5z"/>
	</g>
</g>
</svg>
