<?xml version="1.0" encoding="utf-8"?>
<!DOCTYPE svg PUBLIC "-//W3C//DTD SVG 1.1//EN" "http://www.w3.org/Graphics/SVG/1.1/DTD/svg11.dtd">
<svg version="1.1" id="Layer_1" xmlns="http://www.w3.org/2000/svg" xmlns:xlink="http://www.w3.org/1999/xlink" x="0px" y="0px"
	 width="108px" height="20px" viewBox="0 0 108 20" enable-background="new 0 0 108 20" xml:space="preserve">
<path fill="#FFFFFF" d="M0,0v20h108V0H0z M15.437,16.997l-4.75-2.132l-4.75,2.132l0.65-4.984L3,8.346l5.153-0.949l2.533-4.399
	l2.533,4.399l5.151,0.949l-3.587,3.667L15.437,16.997z M36.907,16.997l-4.75-2.132l-4.75,2.132l0.65-4.984l-3.587-3.667l5.153-0.949
	l2.533-4.399l2.533,4.399l5.151,0.949l-3.587,3.667L36.907,16.997z M58.377,16.997l-4.75-2.132l-4.75,2.132l0.651-4.984
	l-3.587-3.667l5.152-0.949l2.533-4.399l2.534,4.399l5.152,0.949l-3.588,3.667L58.377,16.997z M79.847,16.997l-4.75-2.132
	l-4.75,2.132l0.651-4.984l-3.586-3.667l5.151-0.949l2.532-4.399l2.535,4.399l5.15,0.949l-3.587,3.667L79.847,16.997z
	 M101.319,16.997l-4.75-2.132l-4.75,2.132l0.65-4.984l-3.588-3.667l5.152-0.949l2.535-4.399l2.532,4.399l5.153,0.949l-3.587,3.667
	L101.319,16.997z"/>
</svg>
