<svg xmlns="http://www.w3.org/2000/svg" viewBox="0 0 122 20"><path fill="#fff" fill-rule="evenodd" d="M0 0v20h122V0H0zm15.437 16.998l-4.75-2.133-4.75 2.133.651-4.985-3.587-3.667 5.152-.948 2.533-4.4 2.533 4.4 5.152.948-3.587 3.667.653 4.985zm25.156 0l-4.75-2.133-4.75 2.133.651-4.985-3.587-3.667 5.152-.948 2.533-4.4 2.533 4.4 5.152.948-3.587 3.667.653 4.985zm25.157 0L61 14.865l-4.75 2.133.651-4.985-3.587-3.667 5.152-.948L61 2.998l2.533 4.4 5.152.948-3.587 3.667.652 4.985zm25.157 0l-4.75-2.133-4.75 2.133.651-4.985-3.587-3.667 5.152-.948 2.533-4.4 2.533 4.4 5.152.948-3.587 3.667.653 4.985zm25.156 0l-4.75-2.133-4.75 2.133.651-4.985-3.587-3.667 5.153-.948 2.533-4.4 2.533 4.4 5.153.948-3.587 3.667.651 4.985z" clip-rule="evenodd"/></svg>