<svg id="ikony" xmlns="http://www.w3.org/2000/svg" viewBox="0 0 24 24"><defs><style>.cls-1{fill:#919396;}</style></defs><title>emfi</title><path class="cls-1" d="M.35,20.65l.36.26A17.85,17.85,0,0,0,11,24a17.85,17.85,0,0,0,10.29-3.09l.36-.26-6-11.1A6.22,6.22,0,0,0,17,6h2V5.5C19,2.85,17.75,0,15,0H13V.5A1.86,1.86,0,0,1,11,2,1.87,1.87,0,0,1,9,.5V0H7C4.25,0,3,2.85,3,5.5V6H5A6.21,6.21,0,0,0,6.39,9.58ZM11,23a16.91,16.91,0,0,1-9.34-2.66L3.1,17.69A13.81,13.81,0,0,0,11,20a13.81,13.81,0,0,0,7.9-2.31l1.44,2.65A16.91,16.91,0,0,1,11,23ZM6,6H7V5H4c.12-1.68.84-4,3-4H8.07A3,3,0,0,0,11,3a3,3,0,0,0,2.93-2H15c2.15,0,2.87,2.32,3,4H15V6h1a5,5,0,0,1-1.2,3H11v1h3.7l3.72,6.82A13,13,0,0,1,11,19a12.88,12.88,0,0,1-7.42-2.19l4-7.4-.27-.26A5.12,5.12,0,0,1,6,6Z"/></svg>