<svg xmlns="http://www.w3.org/2000/svg" id="Warstwa_1" viewBox="0 0 55 23.1"><style>.st0{fill:#fff}</style><g><path d="M0 14.1C.9 12.3 2.2 11 3.9 10c.1-.1.2-.1.4-.1s.3.1.3.3c0 .6.1 1.1.1 1.7v.2l.1-.1c.7-.9 1.4-1.7 2.2-2.4l.1-.1c.1-.1.3-.1.5-.1.2.1.2.2.2.4v2.9h.1l.1-.1c.9-1.4 1.9-2.9 2.8-4.3 0 0 .1-.1.1-.2.2-.3.5-.3.7 0 .2.4.3.8.3 1.3 0 .6-.1 1.2-.2 1.8-.2 1.5-.5 2.9-.7 4.4-.2 1.5-.5 3-.7 4.5-.1.4-.1.9-.2 1.3 0 .2-.2.3-.4.4-.3 0-.4-.1-.4-.4.2-1 .3-2 .5-3.1.2-1.4.4-2.8.7-4.2.2-1.2.4-2.5.6-3.7.1-.4.1-.7.1-1.1h-.1c0 .1-.1.1-.1.2-1 1.5-2 3-3.1 4.6-.1.2-.3.3-.5.2-.2 0-.3-.1-.3-.3-.1-1-.2-2-.2-3v-.2c-.2.1-.3.3-.4.4-.7.7-1.3 1.6-1.9 2.4 0 .1-.1.1-.1.2-.1.1-.3.2-.5.1s-.2-.2-.2-.4v-2.1-.3c-.1 0-.1.1-.2.1-1.2.9-2.2 2-2.9 3.3-.1.2-.1.3-.4.3-.2 0-.3-.2-.4-.3.1-.3.1-.3.1-.4zM55 16.2h-1.8c-.1 0-.1-.1-.2-.1-.5-.7-.9-1.5-1.4-2.2-.1-.1-.2-.2-.3-.2h-.5v2.5h-1.7V7.4h1.7v5h.6l.1-.1c.5-.7.9-1.4 1.4-2 .1-.1.2-.2.4-.2H54.9c-.1.1-.1.1-.1.2-.6.8-1.1 1.7-1.7 2.5-.1 0-.1.1-.1.2.6 1 1.3 2.1 1.9 3.1.1 0 .1 0 .1.1zM16.8 23.1c-.2-.1-.2-.3-.2-.5.2-1.2.5-2.4.7-3.7l.9-5.4c.3-1.6.5-3.1.8-4.7 0-.2.1-.3.3-.4.3-.1.5.1.5.4l-1.5 9c-.3 1.5-.6 3.1-.8 4.6 0 .2-.1.4-.3.5-.2.2-.3.2-.4.2zM21.2 0c.3.2.4.3.3.6-.1.7-.3 1.3-.4 2-.1.3-.2.4-.5.4-.2 0-.4-.2-.3-.5.1-.5.2-1.1.3-1.6 0-.2.1-.3.1-.5s.1-.3.2-.3c.1-.1.2-.1.3-.1zM38.4 16.2h-1.7V16v-3.4-.4c0-.6-.4-.9-1-.8-.6.1-.9.5-1 1.1V16.3H33v-.2-3.4c0-.2 0-.5-.1-.7-.1-.3-.3-.5-.7-.5-.4 0-.8.1-1.1.3-.1-.1-.1 0-.1.1v4.3h-1.7v-6.1h1.6v.4c.1-.1.1-.1.2-.1.6-.4 1.2-.5 1.9-.4.5.1.8.3 1.1.7l.1-.1c.9-.8 2-.9 3.1-.4.7.3 1 .8 1.1 1.5 0 .2.1.4.1.6V16c-.1.1-.1.1-.1.2zM41.1 16.2V18c0 .1 0 .2-.2.2h-1.4c-.1 0-.1 0-.1-.2v-7.8c0-.1 0-.2.1-.2h1.4v.4c.1 0 .1 0 .1-.1.7-.4 1.5-.5 2.3-.3.6.2 1.1.6 1.4 1.3.4 1.1.5 2.1 0 3.2-.5 1-1.3 1.5-2.4 1.6-.4.1-.8.1-1.2.1zm0-2.9v1.4c0 .2.1.2.2.2h.7c.5 0 .9-.2 1.1-.7.3-.7.3-1.4.1-2.1-.1-.3-.3-.6-.6-.7-.5-.1-1-.1-1.4.2-.1.1-.1.1-.1.2v1.5zM24.5 13.5c0 .7.4 1.2 1 1.4.7.2 1.3 0 1.6-.7.2.1.4.2.7.3.2.1.4.2.7.3-.2.5-.5.9-1 1.1-.4.2-.8.3-1.2.4-.5.1-1.1 0-1.6-.2-.7-.3-1.3-.7-1.6-1.4-.4-1-.4-2-.1-3 .4-1.1 1.2-1.6 2.4-1.7.5 0 1 0 1.5.2.9.4 1.4 1.1 1.5 2.1.1.4 0 .8.1 1.3-1.4-.1-2.7-.1-4-.1zm0-1.1h2.4c0-.6-.5-1.1-1.1-1.2-.7 0-1.2.5-1.3 1.2zM46.3 11.4h-.9v-1.3h2.5v6.1h-1.6v-4.8zM14.4 12.3c-.5 0-1-.5-1-1.1 0-.2 0-.5.2-.7l.6-.9.1-.1c.3-.2.6-.3 1-.5h.3c.4-.1.6 0 .8.4.1.3.2.6.1 1-.2.7-.6 1.3-1.3 1.8-.2 0-.5.1-.8.1zm-.2-1.2c0 .2.1.4.2.4.1.1.3 0 .4 0 .6-.4.8-.9 1-1.5 0-.1 0-.2-.1-.2h-.2c-.3.2-.6.3-.9.6-.2.1-.4.4-.4.7zM46 8.3V6.6h1.7v.5c0 .4 0 .7-.1 1.1-.1.5-.5 1.1-.9 1.5-.1-.2-.3-.3-.4-.5.2-.2.4-.5.5-.9H46zM15.9 6.3c-.3 0-.5-.2-.4-.5.3-.7.5-1.4.6-2.2 0-.2.2-.4.5-.3.2 0 .3.2.3.4-.1.8-.3 1.6-.6 2.3-.1.2-.2.3-.4.3z" class="st0"/></g></svg>