<?xml version="1.0" encoding="utf-8"?>
<!-- Generator: Adobe Illustrator 23.0.1, SVG Export Plug-In . SVG Version: 6.00 Build 0)  -->
<svg version="1.1" xmlns="http://www.w3.org/2000/svg" xmlns:xlink="http://www.w3.org/1999/xlink" x="0px" y="0px"
	 viewBox="0 0 408.28 130" style="enable-background:new 0 0 408.28 130;" xml:space="preserve">
<style type="text/css">
	.st0{fill:#FFFFFF;}
</style>
<g id="_x5F_GUIDES">
</g>
<g id="Empik">
	<g>
		<rect x="0" width="408.28" height="130"/>
		<path class="st0" d="M155.1,49.48c-6.14,38.24-6.14,36.91-8.67,46.24c-0.88,3.25-1.71,6.32-2.56,10.13
			c-0.3,1.37-1.34,1.93-2.35,1.93c-0.2,0-0.39-0.02-0.58-0.06c-1.41-0.3-2.65-1.66-2.29-3.4c0.81-3.87,1.63-6.87,2.57-10.34
			c2.38-8.74,2.5-7.77,8.45-44.81v0c0.29-1.81,1.98-2.64,3.45-2.41C154.3,46.94,155.36,47.86,155.1,49.48z M139.68,55.26
			c2.64,6.54-2.37,14.77-6.39,18.7c-2.56,2.51-6.66,5.04-10.5,4.62c-2.22-0.24-4.06-1.44-5.46-3.57c-4.16-6.34,0.22-12.96,4.5-18.03
			c0.48-0.56,1.04-0.86,1.64-0.86c0.05,0,0.1,0,0.15,0.01l0.17,0.01l0.14-0.09c3.61-2.37,8.82-5.4,12.39-4.28
			C137.83,52.25,138.93,53.39,139.68,55.26z M134.58,57.14c-1.03-0.8-3.69,0.51-9.83,4.83l-0.18,0.13l-0.1,0.09
			c-2.34,2.84-5.16,6.97-2.6,9.96c0.63,0.73,1.4,1.11,2.31,1.11c0.06,0,0.12,0,0.17,0c2.79-0.14,6.1-3.89,7.45-5.85l0,0
			C131.86,67.32,137.08,59.08,134.58,57.14z M106.98,45.45c-0.96-0.03-1.84,0.44-2.34,1.25c-5.1,8.18-10.24,15.53-15.67,23.32
			l-0.96,1.37c-0.27-5.14-0.14-10.27,0.04-15.91c0.03-1.07-0.5-1.98-1.43-2.44c-1.01-0.5-2.23-0.37-3.12,0.34
			c-4.92,3.94-9.4,10.05-13.35,15.44c-0.24,0.33-0.48,0.66-0.72,0.98c0.01-0.56,0.02-1.14,0.03-1.74c0.06-3.43,0.13-7.31-0.26-10.16
			c-0.11-0.78-0.61-1.44-1.39-1.82c-0.85-0.42-1.84-0.41-2.58,0.02c-9.82,5.66-17.68,13.9-22.74,23.84
			c-0.47,0.92-0.42,1.94,0.14,2.8c0.58,0.89,1.58,1.43,2.54,1.38c0.85-0.04,1.54-0.53,1.97-1.36c4.1-8.04,9.88-14.65,17.17-19.64
			c0.21,3.65-0.25,8.23-0.66,12.31c-0.11,1.08-0.21,2.12-0.3,3.08c-0.1,1.19,0.52,2.17,1.64,2.58c1.23,0.45,2.65,0.04,3.37-0.98
			c0.65-0.92,1.32-1.89,2.02-2.88c3.69-5.3,7.84-11.25,12.09-15.58c-0.09,6.01-0.04,12.79,0.79,18.78c0.14,1,0.81,1.75,1.8,1.99
			c1.16,0.29,2.48-0.17,3.14-1.1c5.65-7.94,11.15-16.63,16.47-25.03l1.47-2.31c0.08,2.63-0.43,5.38-0.92,8.05
			c-0.17,0.91-0.33,1.8-0.47,2.64c-0.01,0.04-0.86,4.38-2.85,16.97c-0.14,0.9,0.13,1.68,0.76,2.2c0.46,0.37,1.07,0.57,1.7,0.56
			c0.38,0,0.77-0.07,1.15-0.21c0.99-0.38,1.65-1.2,1.82-2.24c1.26-7.96,1.88-11.54,2.38-14.41c0.37-2.13,0.68-3.89,1.13-6.78
			c0.77-4.98,1.16-9.16-1.5-13.93C108.85,46,107.98,45.48,106.98,45.45z M156.53,24.62c-1.16-0.24-2.57,0.24-2.92,1.88v0
			c-0.16,0.75-0.26,1.24-0.31,1.57l-0.01,0.05l0.01,0c-0.01,0.11-0.02,0.19-0.02,0.27c-0.05,0.25-0.12,0.58-0.21,1.02
			c-0.21,1.02,0.1,1.99,0.87,2.68c0.57,0.51,1.31,0.79,2.02,0.79c0.27,0,0.53-0.04,0.79-0.12c0.8-0.26,1.35-0.91,1.55-1.82
			c0.16-0.77,0.27-1.27,0.31-1.6c0-0.01,0-0.02,0.01-0.02l0,0c0.01-0.11,0.02-0.2,0.02-0.27c0.05-0.25,0.12-0.58,0.22-1.03
			C159.2,26.27,157.95,24.92,156.53,24.62z M137.87,24.58c-1.33-0.15-2.85,0.61-3.05,2.33v0c-0.48,4.21-1.55,8.46-3.17,12.63
			c-0.58,1.5,0.31,2.63,1.37,3.04c0.33,0.13,0.7,0.2,1.06,0.2c0.99,0,1.98-0.5,2.44-1.66c1.73-4.45,2.84-9.03,3.41-13.98
			C140.12,25.56,138.99,24.71,137.87,24.58z M205.17,67.36H181.7c0.19,1.68,0.56,3.06,1.12,4.14c0.55,1.08,1.2,1.93,1.94,2.56
			c0.74,0.62,1.57,1.06,2.48,1.3c0.91,0.24,1.8,0.36,2.66,0.36c2.16,0,3.77-0.4,4.82-1.19c1.06-0.79,1.85-1.81,2.38-3.06l7.78,3.17
			c-1.11,2.88-2.94,5.09-5.51,6.62c-2.57,1.54-5.84,2.3-9.83,2.3c-2.79,0-5.27-0.43-7.45-1.3c-2.18-0.86-4.03-2.12-5.54-3.78
			c-1.51-1.66-2.66-3.65-3.46-5.98s-1.19-4.98-1.19-7.96c0-2.59,0.37-4.99,1.12-7.2c0.74-2.21,1.85-4.12,3.31-5.72
			c1.46-1.61,3.28-2.88,5.44-3.82c2.16-0.94,4.66-1.4,7.49-1.4c2.5,0,4.73,0.43,6.7,1.3c1.97,0.86,3.64,2.05,5,3.56
			c1.37,1.51,2.41,3.3,3.13,5.36c0.72,2.06,1.08,4.3,1.08,6.7V67.36z M196.46,61.02c-0.1-2.02-0.77-3.68-2.02-5
			c-1.25-1.32-2.88-1.98-4.9-1.98c-2.21,0-3.95,0.63-5.22,1.87c-1.27,1.25-2.1,2.95-2.48,5.11H196.46z M241.96,82.98h-9.79V61.1
			c0-2.26-0.42-3.94-1.26-5.04c-0.84-1.1-2.17-1.66-4-1.66c-1.39,0-2.6,0.23-3.64,0.68c-1.03,0.46-2.03,1.09-2.99,1.91v25.99h-9.72
			v-36h9.36v2.66c3.17-2.16,6.34-3.24,9.5-3.24c1.58,0,3.16,0.34,4.72,1.01c1.56,0.67,2.89,1.87,4,3.6c1.39-1.39,3.06-2.51,5-3.35
			c1.94-0.84,4.21-1.26,6.8-1.26c1.58,0,3.18,0.21,4.79,0.61c1.61,0.41,3.06,1.14,4.36,2.2s2.36,2.51,3.2,4.36
			c0.84,1.85,1.26,4.21,1.26,7.09v22.32h-9.72V61.1c0-2.21-0.4-3.86-1.19-4.97c-0.79-1.1-2.1-1.66-3.92-1.66
			c-2.11,0-3.77,0.65-4.97,1.94c-1.2,1.3-1.8,2.93-1.8,4.9V82.98z M269.68,46.98h9.14v2.59c1.44-1.05,2.88-1.81,4.32-2.27
			c1.44-0.46,3.17-0.68,5.18-0.68c2.16,0,4.14,0.4,5.94,1.19s3.34,1.94,4.61,3.46c1.27,1.51,2.25,3.37,2.95,5.58
			c0.7,2.21,1.04,4.7,1.04,7.49c0,2.64-0.4,5.1-1.19,7.38c-0.79,2.28-1.94,4.26-3.46,5.94c-1.51,1.68-3.4,3-5.65,3.96
			c-2.26,0.96-4.82,1.44-7.7,1.44c-0.91,0-1.83-0.03-2.74-0.07c-0.91-0.05-1.83-0.12-2.74-0.22v11.38h-9.72V46.98z M279.4,75.21
			c0.86,0.1,1.72,0.14,2.56,0.14c0.84,0,1.81,0,2.92,0c2.74,0,4.79-1.01,6.16-3.02c1.37-2.02,2.05-4.82,2.05-8.42
			c0-3.17-0.59-5.5-1.76-6.98c-1.18-1.49-3.04-2.23-5.58-2.23c-1.25,0-2.39,0.16-3.42,0.47c-1.03,0.31-2,0.83-2.92,1.55V75.21z
			 M310.14,54.9h-5.04v-7.92h14.83v36h-9.79V54.9z M319.43,30.5c0,1.68-0.1,3.17-0.29,4.46c-0.19,1.3-0.54,2.52-1.04,3.67
			c-0.5,1.15-1.16,2.27-1.98,3.35s-1.82,2.27-3.02,3.56l-3.31-3.31c1.1-1.15,1.96-2.24,2.56-3.28c0.6-1.03,1.02-2.03,1.26-2.99
			h-5.83V24.3h11.66V30.5z M327.42,31.14h9.79v29.59h3.82l9.14-13.75h10.44l-11.3,16.42l11.95,19.58h-10.8l-9.22-14.47h-4.03v14.47
			h-9.79V31.14z"/>
	</g>
</g>
</svg>
