<?xml version="1.0" encoding="utf-8"?>
<!-- Generator: Adobe Illustrator 23.0.2, SVG Export Plug-In . SVG Version: 6.00 Build 0)  -->
<svg version="1.1" id="ikony" xmlns="http://www.w3.org/2000/svg" xmlns:xlink="http://www.w3.org/1999/xlink" x="0px" y="0px"
	 viewBox="0 0 25 25" style="enable-background:new 0 0 25 25;" xml:space="preserve">
<style type="text/css">
	.st0{fill:#FFCB59;}
	.st1{fill:#00E59B;}
	.st2{fill:#E6AA9A;}
	.st3{fill:#AAD821;}
	.st4{fill:#A79797;}
	.st5{fill:#E6456D;}
	.st6{fill:#FFFFFF;}
	.st7{fill:#3398FF;}
	.st8{fill:#FF9E4A;}
	.st9{fill:#FFFFFF;}
	.st10{fill:none;stroke:#919396;stroke-miterlimit:10;}
	.st11{fill:none;}
	.st12{fill:none;stroke:#2A38E6;stroke-miterlimit:10;}
	.st13{fill:none;stroke:#2A38E6;stroke-width:1.1414;stroke-miterlimit:10;}
</style>
<path class="st6" d="M9.5,8h6v3.2c0,0.9,0,1.6-0.1,2.3c-0.1,0.7-0.3,1.3-0.5,1.9c-0.3,0.6-0.6,1.2-1,1.7c-0.4,0.6-0.9,1.2-1.6,1.8
	l-1.7-1.7c0.6-0.6,1-1.2,1.3-1.7c0.3-0.5,0.5-1,0.6-1.5h-3V8z"/>
<path class="st6" d="M22.7,5H2.3C1,5,0,6,0,7.3v11.4C0,20,1,21,2.3,21h20.4c1.3,0,2.3-1,2.3-2.3V7.3C25,6,24,5,22.7,5z M24,13h-6v1
	h6v4.7c0,0.7-0.6,1.3-1.3,1.3H2.3C1.6,20,1,19.4,1,18.7V14h6v-1H1V7.3C1,6.6,1.6,6,2.3,6h20.4C23.4,6,24,6.6,24,7.3V13z"/>
</svg>
