<?xml version="1.0" encoding="utf-8"?>
<!-- Generator: Adobe Illustrator 16.0.0, SVG Export Plug-In . SVG Version: 6.00 Build 0)  -->
<!DOCTYPE svg PUBLIC "-//W3C//DTD SVG 1.1//EN" "http://www.w3.org/Graphics/SVG/1.1/DTD/svg11.dtd">
<svg version="1.1" id="Layer_1" xmlns="http://www.w3.org/2000/svg" xmlns:xlink="http://www.w3.org/1999/xlink" x="0px" y="0px"
	 width="551.508px" height="164.649px" viewBox="0 0 551.508 164.649" enable-background="new 0 0 551.508 164.649"
	 xml:space="preserve">
<path fill="#FFFFFF" d="M522.863,122.994h6.476v19.565h2.524l6.044-9.097h6.901l-7.469,10.86l7.896,12.945H538.1l-6.097-9.567
	h-2.665v9.567h-6.476V122.994z M517.581,122.563v-4.092h-7.716v7.711h3.857c-0.156,0.633-0.435,1.293-0.831,1.978
	c-0.396,0.681-0.965,1.401-1.691,2.162l2.192,2.19c0.826-0.857,1.496-1.643,2.021-2.355c0.523-0.713,0.954-1.449,1.285-2.215
	c0.334-0.761,0.565-1.57,0.688-2.428C517.518,124.661,517.581,123.674,517.581,122.563 M511.438,138.702h-3.333v-5.239h9.81v23.806
	h-6.477V138.702z M491.109,139.893v12.237c0.571,0.061,1.136,0.093,1.693,0.093h1.927c1.808,0,3.165-0.664,4.07-2.001
	c0.902-1.333,1.357-3.189,1.357-5.569c0-4.063-1.621-6.093-4.856-6.093C493.618,138.56,492.224,139.003,491.109,139.893
	 M484.686,133.462h6.044v1.716c0.95-0.696,1.905-1.196,2.854-1.498c0.956-0.298,2.1-0.451,3.431-0.451
	c2.889,0,5.215,1.023,6.972,3.068c1.764,2.05,2.642,4.929,2.642,8.642c0,1.743-0.258,3.37-0.781,4.88
	c-0.527,1.506-1.288,2.814-2.287,3.931c-0.998,1.111-2.244,1.98-3.734,2.617c-1.492,0.632-3.195,0.95-5.096,0.95
	c-0.604,0-1.208-0.017-1.813-0.049c-0.6-0.032-1.199-0.076-1.808-0.141v7.521h-6.423V133.462z M466.357,157.268h-6.475v-14.472
	c0-1.489-0.282-2.601-0.834-3.334c-0.556-0.729-1.438-1.091-2.642-1.091c-0.922,0-1.719,0.148-2.407,0.446
	c-0.681,0.307-1.339,0.726-1.974,1.265v17.186h-6.427v-23.806h6.189v1.764c2.096-1.429,4.188-2.142,6.285-2.142
	c1.043,0,2.086,0.226,3.115,0.668c1.034,0.443,1.91,1.236,2.642,2.38c0.92-0.918,2.027-1.659,3.308-2.215
	c1.288-0.556,2.788-0.833,4.502-0.833c1.047,0,2.1,0.137,3.165,0.406c1.064,0.27,2.025,0.753,2.881,1.45
	c0.855,0.7,1.564,1.658,2.12,2.879c0.552,1.224,0.833,2.786,0.833,4.69v14.758h-6.426v-14.472c0-1.457-0.262-2.553-0.79-3.285
	c-0.523-0.729-1.385-1.096-2.593-1.096c-1.397,0-2.488,0.431-3.286,1.288c-0.791,0.854-1.188,1.938-1.188,3.238V157.268z
	 M426.606,142.752h9.664c-0.064-1.337-0.508-2.44-1.333-3.311c-0.825-0.873-1.904-1.309-3.237-1.309
	c-1.46,0-2.609,0.411-3.451,1.236C427.407,140.196,426.86,141.323,426.606,142.752 M442.028,144.27v2.67h-15.519
	c0.127,1.107,0.37,2.021,0.738,2.734c0.363,0.717,0.798,1.28,1.31,1.691c0.509,0.414,1.053,0.7,1.639,0.857
	c0.588,0.161,1.17,0.237,1.741,0.237c1.43,0,2.488-0.262,3.189-0.785c0.696-0.523,1.224-1.196,1.572-2.025l5.138,2.098
	c-0.73,1.905-1.94,3.362-3.642,4.377c-1.695,1.02-3.862,1.526-6.495,1.526c-3.683,0-6.548-1.111-8.593-3.334
	c-2.048-2.223-3.072-5.299-3.072-9.233c0-1.715,0.245-3.302,0.736-4.764c0.491-1.457,1.223-2.718,2.192-3.785
	c0.969-1.063,2.165-1.904,3.592-2.521c1.432-0.62,3.079-0.93,4.951-0.93c1.65,0,3.129,0.286,4.43,0.857
	c1.3,0.572,2.403,1.357,3.31,2.355c0.904,1.003,1.593,2.187,2.069,3.548C441.792,141.21,442.028,142.688,442.028,144.27
	 M397.458,161.601c1.138,0,2.088-0.334,2.857-0.999c0.761-0.664,1.337-1.751,1.728-3.249l0.372-1.373h-4.792l-6.996-19.207h3.584
	l5.746,16.247h3.29l4.207-16.247h3.582l-5.955,20.665c-0.667,2.359-1.625,4.099-2.873,5.222c-1.251,1.128-2.78,1.691-4.585,1.691
	c-1.026,0-1.927-0.148-2.708-0.438c-0.776-0.29-1.441-0.685-1.997-1.188l1.663-2.206c0.364,0.362,0.8,0.632,1.313,0.813
	C396.408,161.508,396.931,161.601,397.458,161.601 M380.464,139.318c-1.974,0-3.709,0.721-5.207,2.162v12.998h4.164
	c1.973,0,3.56-0.624,4.771-1.877c1.206-1.248,1.813-3.273,1.813-6.08c0-2.274-0.447-4.047-1.337-5.307
	C383.782,139.946,382.381,139.318,380.464,139.318 M389.459,146.646c0,1.864-0.271,3.459-0.809,4.792
	c-0.544,1.333-1.272,2.428-2.188,3.29c-0.917,0.861-1.981,1.497-3.186,1.916c-1.208,0.415-2.494,0.624-3.855,0.624h-7.622v-29.99
	h3.458v11.371c0.914-0.721,1.833-1.256,2.747-1.606c0.918-0.347,1.986-0.516,3.209-0.516c2.693,0,4.741,0.914,6.145,2.746
	S389.459,143.566,389.459,146.646"/>
<path fill="#FFFFFF" d="M30.962,58.596c-4.814,0-8.884,1.248-12.219,3.749v35.825c1.67,0.092,3.309,0.161,4.93,0.209
	c1.62,0.044,3.492,0.068,5.623,0.068c5.184,0,9.094-1.965,11.734-5.903c2.636-3.934,3.956-9.371,3.956-16.313
	c0-6.108-1.134-10.574-3.401-13.399C39.316,60.007,35.774,58.596,30.962,58.596 M29.296,113.305c-1.665,0-3.401-0.072-5.208-0.209
	c-1.804-0.137-3.584-0.298-5.345-0.483v22.074H0V43.74h17.632v4.999c2.781-2.038,5.556-3.493,8.333-4.375
	c2.775-0.878,6.061-1.319,9.858-1.319c8.42,0,15.203,2.986,20.341,8.956c5.138,5.974,7.706,14.325,7.706,25.066
	c0,5.09-0.762,9.836-2.289,14.229c-1.529,4.397-3.751,8.215-6.667,11.456c-2.917,3.245-6.525,5.811-10.83,7.707
	C39.78,112.355,34.851,113.305,29.296,113.305"/>
<path fill="#FFFFFF" d="M97.057,100.948c2.499,0,4.835-0.532,7.011-1.599c2.174-1.063,4.143-2.892,5.901-5.484V84.84l-19.578,1.805
	c-1.944,1.76-2.916,3.979-2.916,6.664c0,2.408,0.833,4.284,2.499,5.621C91.641,100.275,94.001,100.948,97.057,100.948
	 M109.969,66.512c0-2.406-0.883-4.489-2.638-6.251c-1.761-1.756-4.214-2.636-7.359-2.636c-2.685,0-4.885,0.695-6.596,2.084
	c-1.712,1.385-3.078,3.332-4.096,5.829l-15.968-4.303c1.851-5.738,5.254-10.274,10.206-13.608S94.463,42.63,101.5,42.63
	c4.44,0,8.354,0.65,11.733,1.943c3.374,1.296,6.201,3.103,8.469,5.416c2.268,2.315,4.004,4.997,5.208,8.051
	c1.202,3.054,1.804,6.34,1.804,9.857v45.267h-16.106v-7.22c-2.87,3.241-5.9,5.439-9.096,6.596c-3.193,1.155-6.411,1.735-9.648,1.735
	c-3.426,0-6.643-0.487-9.651-1.458c-3.01-0.97-5.601-2.359-7.778-4.163c-2.173-1.809-3.885-4.007-5.134-6.596
	c-1.251-2.594-1.875-5.509-1.875-8.75c0-4.071,0.972-7.796,2.917-11.175c1.942-3.382,4.671-5.947,8.19-7.707l29.437-2.223V66.512z"
	/>
<path fill="#FFFFFF" d="M171.479,58.596c-4.814,0-8.884,1.248-12.22,3.749v35.825c1.67,0.092,3.309,0.161,4.929,0.209
	c1.621,0.044,3.492,0.068,5.625,0.068c5.182,0,9.094-1.965,11.732-5.903c2.637-3.934,3.957-9.371,3.957-16.313
	c0-6.108-1.134-10.574-3.402-13.399S176.292,58.596,171.479,58.596 M169.813,113.305c-1.668,0-3.401-0.072-5.208-0.209
	c-1.804-0.137-3.586-0.298-5.346-0.483v22.074h-18.742V43.74h17.63v4.999c2.782-2.038,5.557-3.493,8.332-4.375
	c2.777-0.878,6.063-1.319,9.859-1.319c8.422,0,15.205,2.986,20.342,8.956c5.138,5.974,7.707,14.325,7.707,25.066
	c0,5.09-0.765,9.836-2.288,14.229c-1.53,4.397-3.753,8.215-6.668,11.456c-2.917,3.245-6.525,5.811-10.832,7.707
	C180.295,112.355,175.367,113.305,169.813,113.305"/>
<path fill="#FFFFFF" d="M214.801,21.524c0-3.241,1.041-6.042,3.124-8.399c2.082-2.364,4.881-3.543,8.403-3.543
	c3.513,0,6.385,1.18,8.606,3.543c2.224,2.357,3.333,5.158,3.333,8.399c0,3.518-1.181,6.318-3.542,8.398
	c-2.36,2.083-5.16,3.126-8.397,3.126c-3.24,0-5.973-1.065-8.193-3.195C215.913,27.728,214.801,24.951,214.801,21.524
	 M218.968,113.165V59.013h-9.72V43.738h28.464v69.427H218.968z"/>
<path fill="#FFFFFF" d="M282.004,57.483c-4.166,0-7.477,1.184-9.928,3.543c-2.452,2.362-4.052,5.625-4.792,9.791h28.052
	c-0.189-3.89-1.462-7.085-3.819-9.582C289.152,58.735,285.983,57.483,282.004,57.483 M248.126,77.618
	c0-4.903,0.714-9.489,2.152-13.743c1.435-4.26,3.563-7.965,6.387-11.107c2.82-3.147,6.317-5.627,10.483-7.433
	c4.163-1.802,8.931-2.704,14.302-2.704c4.812,0,9.114,0.832,12.909,2.499c3.8,1.663,7.015,3.979,9.654,6.942
	c2.636,2.964,4.65,6.411,6.038,10.343c1.389,3.938,2.086,8.218,2.086,12.845v7.777h-45.129c0.463,3.243,1.204,5.9,2.222,7.982
	c1.017,2.081,2.266,3.729,3.749,4.929c1.478,1.203,3.055,2.037,4.72,2.5c1.667,0.463,3.334,0.692,5.001,0.692
	c4.164,0,7.265-0.761,9.302-2.287c2.033-1.53,3.562-3.495,4.582-5.902l14.996,6.108c-2.131,5.553-5.67,9.813-10.623,12.776
	c-4.952,2.959-11.271,4.441-18.953,4.441c-10.646,0-18.955-3.237-24.923-9.721C251.111,98.077,248.126,89.101,248.126,77.618"/>
<path fill="#FFFFFF" d="M352.678,61.928c-5.647,1.481-9.674,5.184-12.078,11.109v40.127h-18.744V43.738h18.052v11.526
	c3.612-6.018,8.604-9.859,14.991-11.526h9.579v18.19H352.678z"/>
<path fill="#FFFFFF" d="M411.135,42.628c7.679,0,13.697,2.386,18.052,7.151c4.347,4.77,6.523,11.824,6.523,21.174v42.211h-18.744
	V71.788c0-4.724-0.973-8.076-2.916-10.065c-1.944-1.993-4.77-2.986-8.472-2.986c-5.275,0-9.717,1.526-13.328,4.581v49.847h-18.744
	V43.74h18.052v5.414c2.776-2.126,5.714-3.749,8.816-4.858C403.475,43.186,407.06,42.628,411.135,42.628"/>
<path fill="#FFFFFF" d="M471.809,11.943c0,3.148-0.205,5.994-0.62,8.541c-0.419,2.544-1.115,4.951-2.086,7.218
	c-0.973,2.271-2.243,4.443-3.815,6.527c-1.58,2.082-3.473,4.327-5.695,6.735l-6.391-6.388c2.13-2.221,3.773-4.325,4.933-6.316
	c1.156-1.989,1.965-3.91,2.429-5.764h-11.247V0h22.493V11.943z M453.069,113.165V59.013h-9.725V43.738h28.465v69.427H453.069z"/>
<polygon fill="#FFFFFF" points="486.389,13.193 486.389,113.165 505.135,113.165 505.135,85.255 513.05,85.255 530.681,113.165 
	551.508,113.165 528.601,75.399 550.262,43.74 530.131,43.74 512.631,70.261 505.135,70.261 505.135,13.193 "/>
</svg>
