<?xml version="1.0" encoding="utf-8"?>
<!-- Generator: Adobe Illustrator 22.1.0, SVG Export Plug-In . SVG Version: 6.00 Build 0)  -->
<svg version="1.1" id="Warstwa_1" xmlns="http://www.w3.org/2000/svg" xmlns:xlink="http://www.w3.org/1999/xlink" x="0px" y="0px"
	 viewBox="0 0 841.9 595.3" style="enable-background:new 0 0 841.9 595.3;" xml:space="preserve">
<style type="text/css">
	.st0{fill:#EF7C28;}
	.st1{fill:#B52260;}
	.st2{fill:#7A1C5E;}
	.st3{fill:#582C71;}
	.st4{fill:#376CB0;}
	.st5{fill:#20AA9D;}
	.st6{fill:#4EBDC5;}
	.st7{fill:none;}
	.st8{fill:#5EA431;}
	.st9{clip-path:url(#SVGID_2_);fill:#E73145;}
</style>
<g>
	<path d="M529.9,327.9c-0.6,1.5-1.1,3-1.7,4.5c-0.8,2.1-2.4,6.1-4.3,7.5c-0.3,0.2-0.5,0.4-0.9,0.4c-0.8,0-0.8-0.8-0.8-1.1
		c0-2.3,2-5.1,3.1-6.4c1-1.2,2.7-3,2.7-3L529.9,327.9z M522.8,323.7c-0.4,0.8-0.8,1.7-0.8,2.7c0,1.1,0.5,2.6,1.7,2.6
		c1.3,0,2.8-1.6,3.6-2.5c1.7-1.9,3.8-4.8,6.1-8.2l-3.3,8.7c-0.6,0.5-3.1,3-3.7,3.5c-1.9,1.8-5.6,5.5-5.6,8.2c0,1.7,1.1,2,1.7,2
		c1.5,0,3.4-1.5,4.7-3.2c2-2.7,4-7.8,6-12.8l2.8-2.8c0,0,0.2-0.1,0.2-0.3s-0.1-0.1-0.2-0.1c-0.1,0-0.1,0-0.8,0.6l-1.7,1.7l3-8.5h-2
		c-0.9,1.7-2.1,3.9-5.1,7.8c-0.9,1.2-2.5,3.2-3.9,4.5c-1,1-1.6,1.1-1.8,1.1c-0.2,0-0.5-0.1-0.5-0.4c0-0.4,0.3-0.9,0.4-1.3l3.1-6.3
		c0.3-0.5,0.9-1.8,0.9-2.9c0-1.5-0.9-2.5-1.7-2.5c-1.3,0-2.6,1.6-3.5,2.6c-0.3,0.3-1.4,1.7-1.4,1.9c0,0.1,0.1,0.2,0.2,0.2
		c0.1,0,0.2-0.1,0.3-0.2c0.5-0.7,3-4,4.1-4c0.4,0,0.5,0.2,0.5,0.6c0,0.3-0.1,0.6-0.3,0.9l-0.5,1.2L522.8,323.7z M515.5,305.4
		c-0.4,1.3-0.4,1.3-1.7,4.5c-0.6,1.6-3.5,8.6-4,10.1c-1,2.6-1.4,3.7-1.4,5.3c0,2.8,2,3.6,3.3,3.6c3.2,0,7.8-4.9,7.8-10.9
		c0-2.4-0.6-3-0.8-3.2c-0.3-0.3-0.6-0.5-0.9-0.5c-0.4,0-1,0.3-1,1.3c0,1.4,0.8,2.5,1.4,3.3c-0.1,1.4-0.3,2.9-1.8,5.4
		c-1.9,3.2-3.7,4-4.6,4c-1.6,0-1.7-1.7-1.7-2.1c0-0.6,0-1,1.4-4.6c0.6-1.6,5.3-13.3,7-17.2L515.5,305.4z"/>
	<path d="M631.7,332.1h5.5v-8.2h2.3l5.2,8.2h6.1l-6.8-11.1l6.4-9.3h-5.9l-5.2,7.8h-2.2v-16.8h-5.5V332.1z M627.2,302.3v-3.5h-6.6
		v6.6h3.3c-0.2,1.1-0.9,2.3-2.2,3.6l1.9,1.9C626.2,308,627.2,306,627.2,302.3 M621.7,332.1h5.5v-20.4h-8.4v4.5h2.9V332.1z
		 M607.5,316c2.8,0,4.1,1.6,4.1,5.2c0,4-1.6,6.5-4.6,6.5c-1.3,0-2.1,0-3.1-0.1v-10.5C604.9,316.3,606.1,316,607.5,316 M598.4,338.4
		h5.5v-6.5c1,0.1,2.1,0.2,3.1,0.2c6.5,0,10.2-4.7,10.2-10.6c0-6.3-3.3-10-8.3-10c-2.2,0-3.7,0.5-5.4,1.7v-1.5h-5.2V338.4z
		 M582.6,319.7c0-2.2,1.5-3.8,3.8-3.8c2,0,2.9,1.2,2.9,3.7v12.5h5.5v-12.7c0-6.5-4.2-8-7.7-8c-2.9,0-5.2,1.1-6.7,2.6
		c-1.2-2-3.1-2.6-4.9-2.6c-1.8,0-3.6,0.6-5.4,1.8v-1.5h-5.3v20.4h5.5v-14.8c1.1-0.9,2.2-1.4,3.8-1.4c2.1,0,3,1.2,3,3.8v12.5h5.5
		V319.7z M552.9,315.7c2.3,0,3.8,1.7,3.9,3.9h-8.3C549,317.2,550.4,315.7,552.9,315.7 M552.7,311.3c-6.4,0-9.8,4.5-9.8,10.3
		c0,6.7,3.7,10.8,10,10.8c4.5,0,7.4-1.8,8.7-5.1l-4.4-1.8c-0.6,1.4-1.6,2.4-4.1,2.4c-2,0-4.2-0.9-4.6-4.7h13.3v-2.3
		C561.8,315.5,558.4,311.3,552.7,311.3"/>
	<path class="st0" d="M159.5,256c8.4,0,12.4,4.9,12.4,15.5c0,12.1-4.8,19.6-13.8,19.6c-3.8,0-6.4,0-9.3-0.2v-31.6
		C151.8,256.9,155.2,256,159.5,256 M132.2,323h16.5v-19.3c3.1,0.4,6.2,0.5,9.3,0.5c19.6,0,30.5-14.1,30.5-31.9
		c0-18.8-9.9-30-24.7-30c-6.6,0-11.1,1.5-16,5v-4.4h-15.5V323z"/>
	<path class="st1" d="M280.5,256c8.4,0,12.4,4.9,12.4,15.5c0,12.1-4.8,19.6-13.8,19.6c-3.8,0-6.4,0-9.3-0.2v-31.6
		C272.8,256.9,276.2,256,280.5,256 M253.2,323h16.5v-19.3c3.1,0.4,6.2,0.5,9.3,0.5c19.6,0,30.5-14.1,30.5-31.9
		c0-18.8-9.9-30-24.7-30c-6.6,0-11.1,1.5-16,5v-4.4h-15.5V323z"/>
	<path class="st2" d="M317.7,223.3c0,6,4.5,10.2,10.2,10.2c5.6,0,10.5-4,10.5-10.2c0-5.6-4.4-10.5-10.5-10.5
		C321.7,212.8,317.7,217.7,317.7,223.3 M321.4,304h16.5v-61.2h-25.1v13.5h8.6V304z"/>
	<path class="st3" d="M375.9,255c6.9,0,11.5,5,11.7,11.7h-24.7C364.3,259.5,368.5,255,375.9,255 M375.4,241.9
		c-19.1,0-29.4,13.5-29.4,30.8c0,20.1,11.1,32.3,29.8,32.3c13.5,0,22.3-5.4,26.1-15.2l-13.2-5.4c-1.7,4.3-4.9,7.2-12.2,7.2
		c-5.9,0-12.5-2.8-13.8-14.2h39.8v-6.8C402.4,254.5,392.3,241.9,375.4,241.9"/>
	<path class="st4" d="M410.3,304h16.5v-35.3c2.1-5.1,5.6-8.4,10.6-9.8h10.4v-16h-8.4c-5.7,1.5-9.9,4.6-13.2,10.3v-10.3h-15.9V304z"
		/>
	<path class="st5" d="M495.7,304h16.5v-37.2c0-16.4-8.2-25-21.6-25c-7.1,0-12.4,2.1-17.2,5.9v-4.9h-15.9V304h16.5v-43.9
		c3.3-2.8,7.1-4,11.7-4c6.5,0,10,3.3,10,11.5V304z"/>
	<path class="st6" d="M544.4,214.9v-10.5h-19.8v19.8h9.9c-0.7,3.3-2.7,6.7-6.5,10.6l5.6,5.6C541.6,232.1,544.4,226.1,544.4,214.9
		 M527.9,304h16.5v-61.2h-25.1v13.5h8.6V304z"/>
	<rect x="114" y="204.4" class="st7" width="536.9" height="164.6"/>
	<polygon class="st8" points="555.4,304 571.9,304 571.9,279.5 578.7,279.5 594.4,304 612.7,304 592.4,270.8 611.6,242.9 
		593.9,242.9 578.3,266.2 571.9,266.2 571.9,216 555.4,216 	"/>
	<g>
		<defs>
			<rect id="SVGID_1_" x="114" y="204.4" width="536.9" height="164.6"/>
		</defs>
		<clipPath id="SVGID_2_">
			<use xlink:href="#SVGID_1_"  style="overflow:visible;"/>
		</clipPath>
		<path class="st9" d="M217.4,293.3c-5,0-8.1-2.6-8.1-7c0-2.1,1-4.2,2.6-5.6l17.2-1.6v8.1C226.1,291.7,222,293.3,217.4,293.3
			 M210.9,262.1c1.8-4.4,4.8-7,9.9-7c5,0,8.3,3.5,8.3,7.8v5.1l-25.9,1.8c-6.2,3.1-9.8,9.5-9.8,16.5c0,11.6,9.3,18.6,20.4,18.6
			c6.5,0,12.5-1.6,17.6-7.3v6.4h14.2v-39.9c0-12.4-8.4-22.3-24.6-22.3c-11.7,0-21,6.4-24.2,16.4L210.9,262.1z"/>
	</g>
</g>
</svg>
