<svg id="Warstwa_1" data-name="Warstwa 1" xmlns="http://www.w3.org/2000/svg" viewBox="0 0 28.11 28.59"><defs><style>.cls-1{fill:#ffdd7b;}.cls-2{fill:none;}.cls-3{fill:#2938e5;}</style></defs><title>Zrzut ekranu 2019-07-16 o 11.14.10</title><polygon class="cls-1" points="5.43 10.14 11.21 15.05 8.71 22.42 15.25 17.51 21.79 22.42 19.29 15.05 25.07 10.14 19 10.14 19.41 11.37 21.73 11.37 18.5 14.12 17.86 14.66 18.13 15.45 19.36 19.05 15.99 16.52 15.25 15.97 14.52 16.52 11.14 19.05 12.37 15.45 12.64 14.66 12 14.12 8.77 11.37 12.8 11.37 13.68 11.37 13.96 10.53 15.25 6.66 16.54 10.53 16.82 11.37 17.7 11.37 18.11 11.37 17.7 10.14 17.5 9.53 15.25 2.78 12.8 10.14 5.43 10.14"/><polygon class="cls-2" points="19 10.14 19.41 11.37 21.73 11.37 18.5 14.12 17.86 14.66 18.13 15.45 19.36 19.05 15.99 16.52 15.25 15.97 14.52 16.52 11.14 19.05 12.37 15.45 12.64 14.66 12 14.12 8.77 11.37 12.8 11.37 13.68 11.37 13.96 10.53 15.25 6.66 16.54 10.53 16.82 11.37 17.7 11.37 18.11 11.37 17.7 10.14 17.5 9.53 15.25 2.78 12.8 10.14 5.43 10.14 11.21 15.05 8.71 22.42 15.25 17.51 21.79 22.42 19.29 15.05 25.07 10.14 19 10.14"/><path class="cls-3" d="M22.63,0H7.87A15.24,15.24,0,1,0,28.11,21.5V0Zm-.84,22.42-6.54-4.91L8.71,22.42l2.5-7.37L5.43,10.14H12.8l2.45-7.36L17.5,9.53l.2.61.41,1.23H16.82l-.28-.84L15.25,6.66,14,10.53l-.28.84H8.77L12,14.12l.64.54-.27.79-1.23,3.6,3.38-2.53.73-.55.74.55,3.37,2.53-1.23-3.6-.27-.79.64-.54,3.23-2.75H19.41L19,10.14h6.07l-5.78,4.91Z"/></svg>