<svg width="272" height="246" viewBox="0 0 272 246" fill="none" xmlns="http://www.w3.org/2000/svg">
<path d="M196.412 80.7518L130.148 117.75L142.099 128.678L167.449 114.524L148.908 164.249L145.268 174.025L153.017 181.017L188.362 212.894L136.178 205.854L124.761 204.322L120.076 214.844L98.6474 262.986L90.0971 216.148L88.2106 205.883L77.9368 203.875L25.8786 193.569L69.8483 169.019L79.5092 163.625L77.4469 152.753L67.9618 102.593L105.645 137.009L113.818 144.469L123.479 139.075L127.938 136.585L115.987 125.657L110.023 120.213L44.2876 60.1919L62.3565 155.601L-18.0688 200.506L74.9605 218.913L92.534 314.599L134.097 221.043L235.508 234.771L163.271 169.606L196.412 80.7518Z" fill="#2A38E6"/>
</svg>
