<?xml version="1.0" encoding="utf-8"?>
<!-- Generator: Adobe Illustrator 23.0.1, SVG Export Plug-In . SVG Version: 6.00 Build 0)  -->
<svg version="1.1" id="ikony" xmlns="http://www.w3.org/2000/svg" xmlns:xlink="http://www.w3.org/1999/xlink" x="0px" y="0px"
	 viewBox="0 0 24 24" style="enable-background:new 0 0 24 24;" xml:space="preserve">
<style type="text/css">
	.st0{fill:#FF7C2B;}
</style>
<path class="st0" d="M19.5,9.5c0.2-0.6,0.3-1.2,0.3-1.9c0-4.2-3.4-7.6-7.6-7.6C8,0,4.6,3.4,4.6,7.6c0,0.6,0.1,1.2,0.2,1.8
	C2,10.5,0,13.2,0,16.4C0,20.6,3.4,24,7.6,24c1.6,0,3.2-0.5,4.4-1.4c1.2,0.9,2.8,1.4,4.4,1.4c4.2,0,7.6-3.4,7.6-7.6
	C24,13.3,22.2,10.7,19.5,9.5z M5.6,7.6C5.6,4,8.5,1,12.2,1s6.6,3,6.6,6.6c0,0.5-0.1,1.1-0.2,1.6c-0.7-0.2-1.4-0.3-2.2-0.3
	c-1.6,0-3.2,0.5-4.4,1.4c-1.2-0.9-2.8-1.4-4.4-1.4C7,8.8,6.4,8.9,5.8,9.1C5.7,8.6,5.6,8.1,5.6,7.6z M14.2,16.4
	c0,1.9-0.8,3.7-2.2,4.9c-1.3-1.2-2.2-2.9-2.2-4.9c0-0.5,0.1-1.1,0.2-1.6c0.7,0.2,1.4,0.3,2.2,0.3c0.6,0,1.2-0.1,1.8-0.2
	C14.1,15.4,14.2,15.9,14.2,16.4z M12.2,14.2c-0.6,0-1.3-0.1-1.9-0.3c0.4-0.9,1-1.7,1.7-2.4c0.7,0.7,1.3,1.5,1.7,2.4
	C13.2,14.1,12.7,14.2,12.2,14.2z M9.4,13.5c-1.5-0.7-2.7-2-3.3-3.5c0.5-0.1,1-0.2,1.5-0.2c1.3,0,2.6,0.4,3.6,1.1
	C10.4,11.6,9.8,12.5,9.4,13.5z M12.8,10.9c1-0.7,2.3-1.1,3.6-1.1c0.6,0,1.3,0.1,1.9,0.3c-0.7,1.6-2,2.9-3.6,3.6
	C14.2,12.6,13.6,11.7,12.8,10.9z M7.6,23C4,23,1,20,1,16.4c0-2.8,1.7-5.1,4.1-6.1c0.7,1.9,2.2,3.4,4,4.2c-0.2,0.6-0.3,1.2-0.3,1.9
	c0,2.2,0.9,4.1,2.4,5.5C10.2,22.6,8.9,23,7.6,23z M16.4,23c-1.3,0-2.6-0.4-3.6-1.1c1.5-1.4,2.4-3.3,2.4-5.5c0-0.6-0.1-1.2-0.2-1.8
	c1.9-0.8,3.5-2.3,4.2-4.2c2.2,1.1,3.8,3.3,3.8,6C23,20,20,23,16.4,23z"/>
</svg>
