<?xml version="1.0" encoding="utf-8"?>
<!-- Generator: Adobe Illustrator 23.0.1, SVG Export Plug-In . SVG Version: 6.00 Build 0)  -->
<svg version="1.1" id="ikony" xmlns="http://www.w3.org/2000/svg" xmlns:xlink="http://www.w3.org/1999/xlink" x="0px" y="0px"
	 viewBox="0 0 24 24" style="enable-background:new 0 0 24 24;" xml:space="preserve">
<style type="text/css">
	.st0{fill:#FFCB59;}
	.st1{fill:#00E59B;}
	.st2{fill:#E6AA9A;}
	.st3{fill:#AAD821;}
	.st4{fill:#A79797;}
	.st5{fill:#E6456D;}
	.st6{fill:#919396;}
	.st7{fill:#3398FF;}
	.st8{fill:#FF9E4A;}
</style>
<path class="st6" d="M2,11v0.5V12v4h1v-3.8c0.1,0.1,0.3,0.1,0.4,0.2c0.4,0.3,1,0.6,1.9,0.6s1.5-0.3,1.9-0.6C7.7,12.2,8,12,8.7,12
	c0.7,0,1,0.2,1.4,0.4c0.4,0.3,1,0.6,1.9,0.6s1.5-0.3,1.9-0.6c0.4-0.2,0.7-0.4,1.4-0.4c0.7,0,1,0.2,1.4,0.4c0.4,0.3,1,0.6,1.9,0.6
	c1,0,1.5-0.3,1.9-0.6c0.1-0.1,0.3-0.2,0.4-0.2V16h1v-4v-0.5V11c-1,0-1.5,0.3-1.9,0.6c-0.4,0.2-0.7,0.4-1.4,0.4c-0.7,0-1-0.2-1.4-0.4
	c-0.4-0.3-1-0.6-1.9-0.6c-1,0-1.5,0.3-1.9,0.6C13,11.8,12.7,12,12,12c-0.7,0-1-0.2-1.4-0.4c-0.4-0.3-1-0.6-1.9-0.6
	c-1,0-1.5,0.3-1.9,0.6C6.3,11.8,6,12,5.3,12s-1-0.2-1.4-0.4C3.5,11.3,3,11,2,11z M4,10h1V7h14v3h1V6H4V10z M7,1v4h1V1H7z M10,1v4h1
	V1H10z M13,1v4h1V1H13z M16,1v4h1V1H16z M0,18h10v4H7v1h10v-1h-3v-4h10v-1H0V18z M13,22h-2v-4h2V22z"/>
</svg>
