<svg xmlns="http://www.w3.org/2000/svg" width="24" height="24"><g fill="none" fill-rule="evenodd"><g fill="#337AB7" fill-rule="nonzero"><path d="M1.0105401 15.13231696c0-.22247024.0812872-.41499256.2438616-.57756697L7.8258303 7.9833214c.1625744-.1625744.3550967-.2438616.5775669-.2438616.2224703 0 .4149926.0812872.577567.2438616.1625744.1625744.2438616.3550967.2438616.577567v3.2857143h2.875c.8385417 0 1.5893787-.0256697 2.2525112-.077009.6631324-.0513392 1.32198658-.1433221 1.97656248-.2759486.65457589-.1326265 1.2235863-.3144531 1.70703125-.5454799.48344494-.2310268.93480282-.5283668 1.35407366-.8920201.41927083-.3636533.76153273-.7957589 1.02678571-1.296317.26525298-.500558.47274926-1.0930989.62248884-1.7776227.14973958-.6845239.22460937-1.4588914.22460937-2.3231027 0-.4706101-.02139136-.9968378-.0641741-1.5786831 0-.0513392-.01069569-.1518787-.03208706-.3016183s-.03208705-.2631138-.03208705-.3401227c0-.1283482.03636533-.2353051.10909598-.3208706.07273066-.0855654.12914342-.1072684.25749163-.1072684.13690476 0 .3008231.0516509.40350168.1971122.05989583.0770089.11551339.1711309.16685267.2823661.05133929.1112351.10909599.2395833.17327009.3850446.06417411.1454613.10909599.2481399.13476563.3080357 1.08668155 2.4386161 1.63002232 4.3681176 1.63002232 5.7885045 0 1.7027529-.22674851 3.1274181-.68024554 4.2739955-1.38616071 3.4482887-5.12965029 5.17243304-11.23046876 5.17243304h-2.875v3.28571429c0 .22247024-.0812872.41499256-.2438616.57756696-.1625744.16257441-.3550967.24386161-.577567.24386161-.2224702 0-.4149925-.0812872-.5775669-.24386161l-6.5714286-6.57142857c-.1625744-.1625744-.2438616-.35509672-.2438616-.57756696z"/></g></g></svg>