<svg id="ikony" xmlns="http://www.w3.org/2000/svg" viewBox="0 0 24 24"><defs><style>.cls-1{fill:#919396;}</style></defs><title>emfi</title><path class="cls-1" d="M11.5,1A11.5,11.5,0,1,0,23,12.5,11.51,11.51,0,0,0,11.5,1Zm7.56,4.23A10.46,10.46,0,0,0,16,12H12V2A10.46,10.46,0,0,1,19.06,5.23ZM11,2V12H7a10.46,10.46,0,0,0-3-6.77A10.46,10.46,0,0,1,11,2ZM3.28,6A9.42,9.42,0,0,1,6,12.5,9.42,9.42,0,0,1,3.28,19a10.46,10.46,0,0,1,0-13Zm.66,13.79A10.46,10.46,0,0,0,7,13h4V23A10.46,10.46,0,0,1,3.94,19.77ZM12,23V13h4a10.46,10.46,0,0,0,3,6.77A10.46,10.46,0,0,1,12,23ZM19.72,19A9.42,9.42,0,0,1,17,12.5,9.42,9.42,0,0,1,19.72,6a10.46,10.46,0,0,1,0,13Z"/></svg>