<svg xmlns="http://www.w3.org/2000/svg" id="switchTAK" viewBox="0 0 73.9 55.5"><style>.st0{fill:#44bb3e}</style><path id="Prostokąt_1_kopia_9" d="M13.1 14.1H52c7.2 0 13.1 5.9 13.1 13.1 0 7.2-5.9 13.1-13.1 13.1H13.1C5.9 40.4 0 34.5 0 27.2 0 20 5.9 14.1 13.1 14.1z" class="st0"/><circle id="Elipsa_1_kopia_9" cx="46.1" cy="27.8" r="26.3" fill="#fff" stroke="#eceff4" stroke-linejoin="round" stroke-width="2"/><path d="M60.5 19c-1.4-1.3-3.6-1.3-5 0L45 29.2l-7.5-7.3c-1.4-1.3-3.6-1.3-5 0l-.1.1c-1.3 1.3-1.3 3.5.1 4.8l10 9.7c1.4 1.3 3.6 1.3 5 0l.1-.1 12.9-12.6.1-.1c1.2-1.3 1.2-3.4-.1-4.7z" class="st0"/></svg>