<?xml version="1.0" encoding="utf-8"?>
<!-- Generator: Adobe Illustrator 23.0.1, SVG Export Plug-In . SVG Version: 6.00 Build 0)  -->
<svg version="1.1" id="ikony" xmlns="http://www.w3.org/2000/svg" xmlns:xlink="http://www.w3.org/1999/xlink" x="0px" y="0px"
	 viewBox="0 0 24 24" style="enable-background:new 0 0 24 24;" xml:space="preserve">
<style type="text/css">
	.st0{fill:#FFCB59;}
	.st1{fill:#00E59B;}
	.st2{fill:#E6AA9A;}
	.st3{fill:#AAD821;}
	.st4{fill:#A79797;}
	.st5{fill:#E6456D;}
	.st6{fill:#FFFFFF;}
	.st7{fill:#3398FF;}
	.st8{fill:#FF9E4A;}
</style>
<path class="st6" d="M7.5,12l0.2,0.3C8.5,14,10.2,15,12,15s3.5-1,4.3-2.7l0.2-0.3l0.7-1.7C17.7,9,18,7.5,18,6c0-3.3-2.7-6-6-6
	C8.7,0,6,2.7,6,6c0,1.5,0.3,3,0.8,4.3L7.5,12z M12,1c2.8,0,5,2.2,5,5c0,1.4-0.3,2.7-0.8,4l-0.6,1.6l-0.1,0.3c-0.7,1.3-2,2.1-3.4,2.1
	s-2.8-0.8-3.4-2.1l-0.1-0.3L7.8,10C7.3,8.7,7,7.4,7,6C7,3.2,9.2,1,12,1z M24,23v1h-1v-1c0-3.3-2.6-5.9-5.9-6L12,19l-5.1-2
	C3.6,17.1,1,19.7,1,23h20v1H0v-1c0-3.9,3.1-7,7-7l0.2,0L12,18l5-2C20.9,16,24,19.1,24,23z"/>
</svg>
