<?xml version="1.0" encoding="UTF-8"?>
<svg width="38px" height="38px" viewBox="0 0 38 38" version="1.1" xmlns="http://www.w3.org/2000/svg" xmlns:xlink="http://www.w3.org/1999/xlink">
    <!-- Generator: Sketch 55 (78076) - https://sketchapp.com -->
    <title>lista</title>
    <desc>Created with Sketch.</desc>
    <g id="lista" stroke="none" stroke-width="1" fill="none" fill-rule="evenodd">
        <g id="widok-lista">
            <rect id="trafnosc-copy" stroke="#FC7C41" x="0.5" y="0.5" width="37" height="37" rx="3"></rect>
            <g id="kategorie_1" transform="translate(10.000000, 11.000000)" fill="#FC7C41" fill-rule="nonzero">
                <g id="LISTA">
                    <path d="M1.875,3.80952381 C2.925,3.80952381 3.75,2.97142857 3.75,1.9047619 C3.75,0.838095238 2.925,0 1.875,0 C0.825,0 0,0.838095238 0,1.9047619 C0,2.97142857 0.825,3.80952381 1.875,3.80952381 Z M1.875,0.761904762 C2.475,0.761904762 3,1.2952381 3,1.9047619 C3,2.51428571 2.475,3.04761905 1.875,3.04761905 C1.275,3.04761905 0.75,2.51428571 0.75,1.9047619 C0.75,1.2952381 1.275,0.761904762 1.875,0.761904762 Z M5.25,2.28571429 L18,2.28571429 L18,1.52380952 L5.25,1.52380952 L5.25,2.28571429 Z M1.875,9.9047619 C2.925,9.9047619 3.75,9.06666667 3.75,8 C3.75,6.93333333 2.925,6.0952381 1.875,6.0952381 C0.825,6.0952381 0,6.93333333 0,8 C0,9.06666667 0.825,9.9047619 1.875,9.9047619 Z M1.875,6.85714286 C2.475,6.85714286 3,7.39047619 3,8 C3,8.60952381 2.475,9.14285714 1.875,9.14285714 C1.275,9.14285714 0.75,8.60952381 0.75,8 C0.75,7.39047619 1.275,6.85714286 1.875,6.85714286 Z M5.25,8.38095238 L18,8.38095238 L18,7.61904762 L5.25,7.61904762 L5.25,8.38095238 Z M1.875,16 C2.925,16 3.75,15.1619048 3.75,14.0952381 C3.75,13.0285714 2.925,12.1904762 1.875,12.1904762 C0.825,12.1904762 0,13.0285714 0,14.0952381 C0,15.1619048 0.825,16 1.875,16 Z M1.875,12.952381 C2.475,12.952381 3,13.4857143 3,14.0952381 C3,14.7047619 2.475,15.2380952 1.875,15.2380952 C1.275,15.2380952 0.75,14.7047619 0.75,14.0952381 C0.75,13.4857143 1.275,12.952381 1.875,12.952381 Z M5.25,14.4761905 L18,14.4761905 L18,13.7142857 L5.25,13.7142857 L5.25,14.4761905 Z" id="Shape"></path>
                </g>
            </g>
        </g>
    </g>
</svg>