<?xml version="1.0" encoding="UTF-8"?>
<svg width="38px" height="38px" viewBox="0 0 38 38" version="1.1" xmlns="http://www.w3.org/2000/svg" xmlns:xlink="http://www.w3.org/1999/xlink">
    <!-- Generator: Sketch 55 (78076) - https://sketchapp.com -->
    <title>kafle</title>
    <desc>Created with Sketch.</desc>
    <g id="kafle" stroke="none" stroke-width="1" fill="none" fill-rule="evenodd">
        <g id="widok-kafli">
            <rect id="trafnosc-copy" stroke="#FC7C41" x="0.5" y="0.5" width="37" height="37" rx="3"></rect>
            <g id="kategorie_2" transform="translate(10.000000, 10.000000)" fill="#FC7C41" fill-rule="nonzero">
                <path d="M15.8571429,6.85714286 C14.6571429,6.85714286 13.7142857,7.8 13.7142857,9 C13.7142857,10.2 14.6571429,11.1428571 15.8571429,11.1428571 C17.0571429,11.1428571 18,10.2 18,9 C18,7.8 17.0571429,6.85714286 15.8571429,6.85714286 Z M15.8571429,10.2857143 C15.1714286,10.2857143 14.5714286,9.68571429 14.5714286,9 C14.5714286,8.31428571 15.1714286,7.71428571 15.8571429,7.71428571 C16.5428571,7.71428571 17.1428571,8.31428571 17.1428571,9 C17.1428571,9.68571429 16.5428571,10.2857143 15.8571429,10.2857143 Z M9,6.85714286 C7.8,6.85714286 6.85714286,7.8 6.85714286,9 C6.85714286,10.2 7.8,11.1428571 9,11.1428571 C10.2,11.1428571 11.1428571,10.2 11.1428571,9 C11.1428571,7.8 10.2,6.85714286 9,6.85714286 Z M9,10.2857143 C8.31428571,10.2857143 7.71428571,9.68571429 7.71428571,9 C7.71428571,8.31428571 8.31428571,7.71428571 9,7.71428571 C9.68571429,7.71428571 10.2857143,8.31428571 10.2857143,9 C10.2857143,9.68571429 9.68571429,10.2857143 9,10.2857143 Z M2.14285714,6.85714286 C0.942857143,6.85714286 0,7.8 0,9 C0,10.2 0.942857143,11.1428571 2.14285714,11.1428571 C3.34285714,11.1428571 4.28571429,10.2 4.28571429,9 C4.28571429,7.8 3.34285714,6.85714286 2.14285714,6.85714286 Z M2.14285714,10.2857143 C1.45714286,10.2857143 0.857142857,9.68571429 0.857142857,9 C0.857142857,8.31428571 1.45714286,7.71428571 2.14285714,7.71428571 C2.82857143,7.71428571 3.42857143,8.31428571 3.42857143,9 C3.42857143,9.68571429 2.82857143,10.2857143 2.14285714,10.2857143 Z M15.8571429,13.7142857 C14.6571429,13.7142857 13.7142857,14.6571429 13.7142857,15.8571429 C13.7142857,17.0571429 14.6571429,18 15.8571429,18 C17.0571429,18 18,17.0571429 18,15.8571429 C18,14.6571429 17.0571429,13.7142857 15.8571429,13.7142857 Z M15.8571429,17.1428571 C15.1714286,17.1428571 14.5714286,16.5428571 14.5714286,15.8571429 C14.5714286,15.1714286 15.1714286,14.5714286 15.8571429,14.5714286 C16.5428571,14.5714286 17.1428571,15.1714286 17.1428571,15.8571429 C17.1428571,16.5428571 16.5428571,17.1428571 15.8571429,17.1428571 Z M9,13.7142857 C7.8,13.7142857 6.85714286,14.6571429 6.85714286,15.8571429 C6.85714286,17.0571429 7.8,18 9,18 C10.2,18 11.1428571,17.0571429 11.1428571,15.8571429 C11.1428571,14.6571429 10.2,13.7142857 9,13.7142857 Z M9,17.1428571 C8.31428571,17.1428571 7.71428571,16.5428571 7.71428571,15.8571429 C7.71428571,15.1714286 8.31428571,14.5714286 9,14.5714286 C9.68571429,14.5714286 10.2857143,15.1714286 10.2857143,15.8571429 C10.2857143,16.5428571 9.68571429,17.1428571 9,17.1428571 Z M2.14285714,13.7142857 C0.942857143,13.7142857 0,14.6571429 0,15.8571429 C0,17.0571429 0.942857143,18 2.14285714,18 C3.34285714,18 4.28571429,17.0571429 4.28571429,15.8571429 C4.28571429,14.6571429 3.34285714,13.7142857 2.14285714,13.7142857 Z M2.14285714,17.1428571 C1.45714286,17.1428571 0.857142857,16.5428571 0.857142857,15.8571429 C0.857142857,15.1714286 1.45714286,14.5714286 2.14285714,14.5714286 C2.82857143,14.5714286 3.42857143,15.1714286 3.42857143,15.8571429 C3.42857143,16.5428571 2.82857143,17.1428571 2.14285714,17.1428571 Z M15.8571429,0 C14.6571429,0 13.7142857,0.942857143 13.7142857,2.14285714 C13.7142857,3.34285714 14.6571429,4.28571429 15.8571429,4.28571429 C17.0571429,4.28571429 18,3.34285714 18,2.14285714 C18,0.942857143 17.0571429,0 15.8571429,0 Z M15.8571429,3.42857143 C15.1714286,3.42857143 14.5714286,2.82857143 14.5714286,2.14285714 C14.5714286,1.45714286 15.1714286,0.857142857 15.8571429,0.857142857 C16.5428571,0.857142857 17.1428571,1.45714286 17.1428571,2.14285714 C17.1428571,2.82857143 16.5428571,3.42857143 15.8571429,3.42857143 Z M9,0 C7.8,0 6.85714286,0.942857143 6.85714286,2.14285714 C6.85714286,3.34285714 7.8,4.28571429 9,4.28571429 C10.2,4.28571429 11.1428571,3.34285714 11.1428571,2.14285714 C11.1428571,0.942857143 10.2,0 9,0 Z M9,3.42857143 C8.31428571,3.42857143 7.71428571,2.82857143 7.71428571,2.14285714 C7.71428571,1.45714286 8.31428571,0.857142857 9,0.857142857 C9.68571429,0.857142857 10.2857143,1.45714286 10.2857143,2.14285714 C10.2857143,2.82857143 9.68571429,3.42857143 9,3.42857143 Z M2.14285714,0 C0.942857143,0 0,0.942857143 0,2.14285714 C0,3.34285714 0.942857143,4.28571429 2.14285714,4.28571429 C3.34285714,4.28571429 4.28571429,3.34285714 4.28571429,2.14285714 C4.28571429,0.942857143 3.34285714,0 2.14285714,0 Z M2.14285714,3.42857143 C1.45714286,3.42857143 0.857142857,2.82857143 0.857142857,2.14285714 C0.857142857,1.45714286 1.45714286,0.857142857 2.14285714,0.857142857 C2.82857143,0.857142857 3.42857143,1.45714286 3.42857143,2.14285714 C3.42857143,2.82857143 2.82857143,3.42857143 2.14285714,3.42857143 Z" id="Shape"></path>
            </g>
        </g>
    </g>
</svg>