<svg id="ikony" xmlns="http://www.w3.org/2000/svg" viewBox="0 0 24 24"><defs><style>.cls-1{fill:#919396;}</style></defs><title>emfi</title><path class="cls-1" d="M19,2a3.86,3.86,0,0,0-3.94,3H13V0H6V5H3.5V6H6V9.68A9.5,9.5,0,0,0,0,18.5a14.13,14.13,0,0,0,1,5.19l.12.31H17.84l.12-.31a14.13,14.13,0,0,0,1-5.19,9.5,9.5,0,0,0-6-8.82V6h2.06A3.86,3.86,0,0,0,19,9a3.78,3.78,0,0,0,4-3.5A3.78,3.78,0,0,0,19,2ZM18,18.5a13.06,13.06,0,0,1-.84,4.5H1.84A13.06,13.06,0,0,1,1,18.5a8.5,8.5,0,0,1,17,0ZM9.5,9A9.79,9.79,0,0,0,7,9.34V6H9.5V5H7V1h5V9.34A9.79,9.79,0,0,0,9.5,9ZM19,8a2.79,2.79,0,0,1-3-2.5A2.79,2.79,0,0,1,19,3a2.79,2.79,0,0,1,3,2.5A2.79,2.79,0,0,1,19,8Z"/></svg>