<svg width="210" height="233" viewBox="0 0 210 233" fill="none" xmlns="http://www.w3.org/2000/svg">
<rect width="210" height="233" fill="white"/>
<rect width="210" height="233" fill="white"/>
<rect x="2" y="2" width="206" height="229" fill="#FFDD7B"/>
<path d="M22.5623 63.48V62.264H30.5463V63.528L24.0503 71.784H30.6103V73H22.3223V71.88L28.8503 63.48H22.5623ZM33.3145 74.664C33.7518 74.664 34.1145 74.536 34.4025 74.28C34.7012 74.024 34.9252 73.608 35.0745 73.032L35.2185 72.504H33.3785L30.6905 65.128H32.0665L34.2745 71.368H35.5385L37.1545 65.128H38.5305L36.2425 73.064C35.9865 73.9707 35.6185 74.6373 35.1385 75.064C34.6585 75.5013 34.0718 75.72 33.3785 75.72C32.9838 75.72 32.6372 75.6613 32.3385 75.544C32.0398 75.4373 31.7838 75.288 31.5705 75.096L32.2105 74.248C32.3492 74.3867 32.5145 74.488 32.7065 74.552C32.9092 74.6267 33.1118 74.664 33.3145 74.664ZM40.0803 69.048C39.8669 68.8773 39.6909 68.6427 39.5523 68.344C39.4243 68.0347 39.3603 67.7093 39.3603 67.368C39.3603 67.0373 39.4296 66.728 39.5683 66.44C39.7176 66.152 39.9203 65.9013 40.1763 65.688C40.4323 65.4747 40.7416 65.3093 41.1043 65.192C41.4669 65.064 41.8723 65 42.3203 65C42.9709 65 43.5256 65.1173 43.9843 65.352C44.4429 65.5867 44.8109 65.88 45.0883 66.232L44.2083 66.824C43.9736 66.568 43.7123 66.3707 43.4243 66.232C43.1363 66.0827 42.7523 66.008 42.2723 66.008C41.7176 66.008 41.2963 66.136 41.0082 66.392C40.7309 66.648 40.5923 66.9307 40.5923 67.24C40.5923 67.528 40.6669 67.7893 40.8163 68.024L44.4643 68.92C44.7096 69.112 44.9016 69.352 45.0403 69.64C45.1789 69.928 45.2483 70.232 45.2483 70.552C45.2483 71.3307 44.9869 71.9547 44.4643 72.424C43.9416 72.8827 43.2056 73.112 42.2563 73.112C41.4776 73.112 40.8216 72.9573 40.2883 72.648C39.7549 72.328 39.3656 71.9173 39.1203 71.416L40.0963 70.888C40.5336 71.72 41.2536 72.136 42.2563 72.136C42.8643 72.136 43.3123 72.0027 43.6003 71.736C43.8989 71.4693 44.0483 71.128 44.0483 70.712C44.0483 70.4133 43.9629 70.1573 43.7923 69.944L40.0803 69.048ZM46.7428 73V61.48H48.0707V68.44H49.2228L51.8788 65.128H53.3348L50.3268 68.84L53.5428 73H52.0068L49.2388 69.512H48.0707V73H46.7428ZM58.9545 67.608C58.9545 67.1067 58.8212 66.7227 58.5545 66.456C58.2878 66.1893 57.8985 66.056 57.3865 66.056C56.8852 66.056 56.5012 66.1787 56.2345 66.424C55.9678 66.6587 55.7812 66.9467 55.6745 67.288L54.5225 66.968C54.6932 66.4027 55.0345 65.9333 55.5465 65.56C56.0585 65.1867 56.7038 65 57.4825 65C57.9412 65 58.3465 65.0693 58.6985 65.208C59.0505 65.3467 59.3438 65.5387 59.5785 65.784C59.8132 66.0187 59.9892 66.3013 60.1065 66.632C60.2345 66.952 60.2985 67.2987 60.2985 67.672V73H59.1305V72.04C58.8212 72.4453 58.4638 72.728 58.0585 72.888C57.6638 73.048 57.2425 73.128 56.7945 73.128C55.9625 73.128 55.3065 72.9093 54.8265 72.472C54.3465 72.024 54.1065 71.464 54.1065 70.792C54.1065 70.3653 54.2025 69.976 54.3945 69.624C54.5972 69.272 54.8852 68.9947 55.2585 68.792L58.9545 68.472V67.608ZM57.0185 72.184C57.4238 72.184 57.7865 72.0987 58.1065 71.928C58.4372 71.7467 58.7198 71.4427 58.9545 71.016V69.4L55.8825 69.672C55.5412 69.9493 55.3705 70.3173 55.3705 70.776C55.3705 71.1813 55.5092 71.5173 55.7865 71.784C56.0638 72.0507 56.4745 72.184 57.0185 72.184ZM64.2115 72.776C64.2115 73.8107 64.0035 74.552 63.5875 75C63.1715 75.4587 62.5955 75.688 61.8595 75.688C61.3475 75.688 60.9368 75.6187 60.6275 75.48L60.9155 74.488C61.0115 74.5307 61.1288 74.5627 61.2675 74.584C61.4062 74.616 61.5502 74.632 61.6995 74.632C62.0835 74.632 62.3768 74.488 62.5795 74.2C62.7822 73.9227 62.8835 73.448 62.8835 72.776V66.2H61.7635V65.128H64.2115V72.776ZM63.3315 63.192C63.0648 63.192 62.8355 63.1013 62.6435 62.92C62.4515 62.728 62.3555 62.4933 62.3555 62.216C62.3555 61.9493 62.4462 61.72 62.6275 61.528C62.8195 61.3253 63.0542 61.224 63.3315 61.224C63.6088 61.224 63.8435 61.3253 64.0355 61.528C64.2275 61.72 64.3235 61.9493 64.3235 62.216C64.3235 62.504 64.2222 62.7387 64.0195 62.92C63.8275 63.1013 63.5982 63.192 63.3315 63.192ZM72.4644 65.096C72.7417 65.096 72.9977 65.1067 73.2324 65.128C73.467 65.1387 73.691 65.1547 73.9044 65.176V61.48H75.2324V73H74.0644V72.232C73.7124 72.5307 73.355 72.7493 72.9924 72.888C72.6297 73.016 72.203 73.08 71.7124 73.08C70.699 73.08 69.899 72.728 69.3124 72.024C68.7257 71.32 68.4324 70.3493 68.4324 69.112C68.4324 68.4187 68.539 67.8213 68.7524 67.32C68.9657 66.8187 69.2537 66.4027 69.6164 66.072C69.9897 65.7413 70.4164 65.496 70.8964 65.336C71.387 65.176 71.9097 65.096 72.4644 65.096ZM71.9684 72.024C72.3844 72.024 72.7417 71.9653 73.0404 71.848C73.3497 71.7307 73.6377 71.544 73.9044 71.288V66.232C73.6804 66.2107 73.4617 66.1947 73.2484 66.184C73.0457 66.1733 72.8057 66.168 72.5284 66.168C71.7177 66.168 71.051 66.408 70.5284 66.888C70.0164 67.368 69.7604 68.1093 69.7604 69.112C69.7604 69.5067 69.803 69.8853 69.8884 70.248C69.9737 70.6 70.1017 70.9093 70.2724 71.176C70.4537 71.432 70.683 71.64 70.9604 71.8C71.2377 71.9493 71.5737 72.024 71.9684 72.024ZM81.6733 67.608C81.6733 67.1067 81.5399 66.7227 81.2733 66.456C81.0066 66.1893 80.6173 66.056 80.1053 66.056C79.6039 66.056 79.2199 66.1787 78.9533 66.424C78.6866 66.6587 78.4999 66.9467 78.3932 67.288L77.2413 66.968C77.4119 66.4027 77.7533 65.9333 78.2653 65.56C78.7773 65.1867 79.4226 65 80.2013 65C80.6599 65 81.0653 65.0693 81.4173 65.208C81.7693 65.3467 82.0626 65.5387 82.2973 65.784C82.5319 66.0187 82.7079 66.3013 82.8253 66.632C82.9533 66.952 83.0173 67.2987 83.0173 67.672V73H81.8493V72.04C81.5399 72.4453 81.1826 72.728 80.7773 72.888C80.3826 73.048 79.9613 73.128 79.5133 73.128C78.6813 73.128 78.0253 72.9093 77.5453 72.472C77.0653 72.024 76.8253 71.464 76.8253 70.792C76.8253 70.3653 76.9213 69.976 77.1133 69.624C77.3159 69.272 77.6039 68.9947 77.9773 68.792L81.6733 68.472V67.608ZM79.7373 72.184C80.1426 72.184 80.5053 72.0987 80.8253 71.928C81.1559 71.7467 81.4386 71.4427 81.6733 71.016V69.4L78.6013 69.672C78.2599 69.9493 78.0893 70.3173 78.0893 70.776C78.0893 71.1813 78.2279 71.5173 78.5053 71.784C78.7826 72.0507 79.1933 72.184 79.7373 72.184ZM87.8743 66.408C87.0423 66.632 86.5036 67.1653 86.2582 68.008V73H84.9303V65.128H86.2103V66.52C86.6263 65.784 87.2503 65.32 88.0823 65.128H89.2983V66.408H87.8743ZM98.9385 65.016C99.3545 65.016 99.7385 65.0747 100.091 65.192C100.443 65.3093 100.747 65.4907 101.003 65.736C101.259 65.9707 101.456 66.2747 101.595 66.648C101.744 67.0107 101.819 67.4373 101.819 67.928V73H100.491V67.976C100.491 67.3893 100.357 66.9307 100.091 66.6C99.8238 66.2587 99.3972 66.088 98.8105 66.088C98.2025 66.088 97.7278 66.2693 97.3865 66.632C97.0452 66.984 96.8745 67.4373 96.8745 67.992V73H95.5625V67.96C95.5625 67.3947 95.4132 66.9413 95.1145 66.6C94.8265 66.2587 94.4105 66.088 93.8665 66.088C93.5252 66.088 93.1945 66.152 92.8745 66.28C92.5545 66.3973 92.2505 66.568 91.9625 66.792V73H90.6345V65.128H91.9145V65.768C92.6185 65.2667 93.3438 65.016 94.0905 65.016C94.5385 65.016 94.9598 65.112 95.3545 65.304C95.7598 65.496 96.0852 65.816 96.3305 66.264C96.5972 65.8907 96.9492 65.592 97.3865 65.368C97.8345 65.1333 98.3518 65.016 98.9385 65.016ZM110.463 69.064C110.463 69.6507 110.388 70.1947 110.239 70.696C110.089 71.1973 109.86 71.6293 109.551 71.992C109.252 72.344 108.873 72.6213 108.415 72.824C107.967 73.0267 107.433 73.128 106.815 73.128C106.196 73.128 105.657 73.0267 105.199 72.824C104.74 72.6213 104.361 72.344 104.063 71.992C103.764 71.6293 103.54 71.1973 103.391 70.696C103.241 70.1947 103.167 69.6507 103.167 69.064C103.167 68.4667 103.241 67.9227 103.391 67.432C103.54 66.9307 103.764 66.504 104.063 66.152C104.372 65.7893 104.751 65.5067 105.199 65.304C105.657 65.1013 106.196 65 106.815 65C107.433 65 107.967 65.1013 108.415 65.304C108.873 65.5067 109.252 65.7893 109.551 66.152C109.86 66.504 110.089 66.9307 110.239 67.432C110.388 67.9227 110.463 68.4667 110.463 69.064ZM109.135 69.048C109.135 68.0773 108.937 67.3413 108.543 66.84C108.159 66.3387 107.583 66.088 106.815 66.088C106.047 66.088 105.465 66.3387 105.071 66.84C104.687 67.3413 104.495 68.0773 104.495 69.048C104.495 70.0187 104.687 70.76 105.071 71.272C105.465 71.784 106.047 72.04 106.815 72.04C107.583 72.04 108.159 71.784 108.543 71.272C108.937 70.76 109.135 70.0187 109.135 69.048ZM116.25 65.128H117.53L119.45 71.848H119.482L121.322 65.128H122.682L120.394 73H118.698L116.89 66.728L115.098 73H113.386L111.098 65.128H112.458L114.298 71.848H114.346L116.25 65.128ZM128.017 67.608C128.017 67.1067 127.884 66.7227 127.617 66.456C127.35 66.1893 126.961 66.056 126.449 66.056C125.948 66.056 125.564 66.1787 125.297 66.424C125.03 66.6587 124.844 66.9467 124.737 67.288L123.585 66.968C123.756 66.4027 124.097 65.9333 124.609 65.56C125.121 65.1867 125.766 65 126.545 65C127.004 65 127.409 65.0693 127.761 65.208C128.113 65.3467 128.406 65.5387 128.641 65.784C128.876 66.0187 129.052 66.3013 129.169 66.632C129.297 66.952 129.361 67.2987 129.361 67.672V73H128.193V72.04C127.884 72.4453 127.526 72.728 127.121 72.888C126.726 73.048 126.305 73.128 125.857 73.128C125.025 73.128 124.369 72.9093 123.889 72.472C123.409 72.024 123.169 71.464 123.169 70.792C123.169 70.3653 123.265 69.976 123.457 69.624C123.66 69.272 123.948 68.9947 124.321 68.792L128.017 68.472V67.608ZM126.081 72.184C126.486 72.184 126.849 72.0987 127.169 71.928C127.5 71.7467 127.782 71.4427 128.017 71.016V69.4L124.945 69.672C124.604 69.9493 124.433 70.3173 124.433 70.776C124.433 71.1813 124.572 71.5173 124.849 71.784C125.126 72.0507 125.537 72.184 126.081 72.184ZM129.281 72.984C129.046 73.1227 128.849 73.288 128.689 73.48C128.54 73.6827 128.465 73.8907 128.465 74.104C128.465 74.3493 128.54 74.5253 128.689 74.632C128.849 74.7387 129.036 74.792 129.249 74.792C129.569 74.792 129.846 74.664 130.081 74.408L130.609 75.096C130.417 75.288 130.198 75.432 129.953 75.528C129.708 75.6347 129.414 75.688 129.073 75.688C128.582 75.688 128.182 75.576 127.873 75.352C127.574 75.128 127.425 74.8027 127.425 74.376C127.425 74.056 127.537 73.7627 127.761 73.496C127.996 73.2293 128.262 72.9893 128.561 72.776L129.281 72.984ZM137.324 65.096C137.601 65.096 137.857 65.1067 138.092 65.128C138.326 65.1387 138.55 65.1547 138.764 65.176V61.48H140.092V73H138.924V72.232C138.572 72.5307 138.214 72.7493 137.852 72.888C137.489 73.016 137.062 73.08 136.572 73.08C135.558 73.08 134.758 72.728 134.172 72.024C133.585 71.32 133.292 70.3493 133.292 69.112C133.292 68.4187 133.398 67.8213 133.612 67.32C133.825 66.8187 134.113 66.4027 134.476 66.072C134.849 65.7413 135.276 65.496 135.756 65.336C136.246 65.176 136.769 65.096 137.324 65.096ZM136.828 72.024C137.244 72.024 137.601 71.9653 137.9 71.848C138.209 71.7307 138.497 71.544 138.764 71.288V66.232C138.54 66.2107 138.321 66.1947 138.108 66.184C137.905 66.1733 137.665 66.168 137.388 66.168C136.577 66.168 135.91 66.408 135.388 66.888C134.876 67.368 134.62 68.1093 134.62 69.112C134.62 69.5067 134.662 69.8853 134.748 70.248C134.833 70.6 134.961 70.9093 135.132 71.176C135.313 71.432 135.542 71.64 135.82 71.8C136.097 71.9493 136.433 72.024 136.828 72.024ZM148.885 69.064C148.885 69.6507 148.81 70.1947 148.661 70.696C148.511 71.1973 148.282 71.6293 147.973 71.992C147.674 72.344 147.295 72.6213 146.837 72.824C146.389 73.0267 145.855 73.128 145.237 73.128C144.618 73.128 144.079 73.0267 143.621 72.824C143.162 72.6213 142.783 72.344 142.485 71.992C142.186 71.6293 141.962 71.1973 141.813 70.696C141.663 70.1947 141.589 69.6507 141.589 69.064C141.589 68.4667 141.663 67.9227 141.813 67.432C141.962 66.9307 142.186 66.504 142.485 66.152C142.794 65.7893 143.173 65.5067 143.621 65.304C144.079 65.1013 144.618 65 145.237 65C145.855 65 146.389 65.1013 146.837 65.304C147.295 65.5067 147.674 65.7893 147.973 66.152C148.282 66.504 148.511 66.9307 148.661 67.432C148.81 67.9227 148.885 68.4667 148.885 69.064ZM147.557 69.048C147.557 68.0773 147.359 67.3413 146.965 66.84C146.581 66.3387 146.005 66.088 145.237 66.088C144.469 66.088 143.887 66.3387 143.493 66.84C143.109 67.3413 142.917 68.0773 142.917 69.048C142.917 70.0187 143.109 70.76 143.493 71.272C143.887 71.784 144.469 72.04 145.237 72.04C146.005 72.04 146.581 71.784 146.965 71.272C147.359 70.76 147.557 70.0187 147.557 69.048ZM150.768 69.048C150.554 68.8773 150.378 68.6427 150.24 68.344C150.112 68.0347 150.048 67.7093 150.048 67.368C150.048 67.0373 150.117 66.728 150.256 66.44C150.405 66.152 150.608 65.9013 150.864 65.688C151.12 65.4747 151.429 65.3093 151.792 65.192C152.154 65.064 152.56 65 153.008 65C153.658 65 154.213 65.1173 154.672 65.352C155.13 65.5867 155.498 65.88 155.776 66.232L154.896 66.824C154.661 66.568 154.4 66.3707 154.112 66.232C153.824 66.0827 153.44 66.008 152.96 66.008C152.405 66.008 151.984 66.136 151.696 66.392C151.418 66.648 151.28 66.9307 151.28 67.24C151.28 67.528 151.354 67.7893 151.504 68.024L155.152 68.92C155.397 69.112 155.589 69.352 155.728 69.64C155.866 69.928 155.936 70.232 155.936 70.552C155.936 71.3307 155.674 71.9547 155.152 72.424C154.629 72.8827 153.893 73.112 152.944 73.112C152.165 73.112 151.509 72.9573 150.976 72.648C150.442 72.328 150.053 71.9173 149.808 71.416L150.784 70.888C151.221 71.72 151.941 72.136 152.944 72.136C153.552 72.136 154 72.0027 154.288 71.736C154.586 71.4693 154.736 71.128 154.736 70.712C154.736 70.4133 154.65 70.1573 154.48 69.944L150.768 69.048ZM159.654 73.128C158.929 73.128 158.348 72.9147 157.91 72.488C157.484 72.0613 157.27 71.432 157.27 70.6V62.968L158.598 62.808V65.128H161.366V66.2H158.598V70.584C158.598 71.096 158.721 71.464 158.966 71.688C159.222 71.912 159.537 72.024 159.91 72.024C160.145 72.024 160.353 71.9867 160.534 71.912C160.716 71.8373 160.897 71.7253 161.078 71.576L161.654 72.36C161.409 72.6053 161.126 72.7973 160.806 72.936C160.497 73.064 160.113 73.128 159.654 73.128ZM167.111 67.608C167.111 67.1067 166.977 66.7227 166.711 66.456C166.444 66.1893 166.055 66.056 165.543 66.056C165.041 66.056 164.657 66.1787 164.391 66.424C164.124 66.6587 163.937 66.9467 163.831 67.288L162.679 66.968C162.849 66.4027 163.191 65.9333 163.703 65.56C164.215 65.1867 164.86 65 165.639 65C166.097 65 166.503 65.0693 166.855 65.208C167.207 65.3467 167.5 65.5387 167.735 65.784C167.969 66.0187 168.145 66.3013 168.263 66.632C168.391 66.952 168.455 67.2987 168.455 67.672V73H167.287V72.04C166.977 72.4453 166.62 72.728 166.215 72.888C165.82 73.048 165.399 73.128 164.951 73.128C164.119 73.128 163.463 72.9093 162.983 72.472C162.503 72.024 162.263 71.464 162.263 70.792C162.263 70.3653 162.359 69.976 162.551 69.624C162.753 69.272 163.041 68.9947 163.415 68.792L167.111 68.472V67.608ZM165.175 72.184C165.58 72.184 165.943 72.0987 166.263 71.928C166.593 71.7467 166.876 71.4427 167.111 71.016V69.4L164.039 69.672C163.697 69.9493 163.527 70.3173 163.527 70.776C163.527 71.1813 163.665 71.5173 163.943 71.784C164.22 72.0507 164.631 72.184 165.175 72.184ZM174.672 65.128H175.952L177.872 71.848H177.904L179.744 65.128H181.104L178.816 73H177.12L175.312 66.728L173.52 73H171.808L169.52 65.128H170.88L172.72 71.848H172.768L174.672 65.128ZM181.729 69.032C181.729 68.456 181.804 67.928 181.953 67.448C182.113 66.9573 182.343 66.5307 182.641 66.168C182.951 65.8053 183.324 65.5227 183.761 65.32C184.209 65.1173 184.727 65.016 185.313 65.016C185.847 65.016 186.316 65.112 186.721 65.304C187.137 65.4853 187.484 65.736 187.761 66.056C188.039 66.376 188.247 66.7493 188.385 67.176C188.535 67.6027 188.609 68.056 188.609 68.536V69.128H183.041C183.063 70.1627 183.308 70.9093 183.777 71.368C184.247 71.8267 184.807 72.056 185.457 72.056C186.033 72.056 186.481 71.944 186.801 71.72C187.132 71.4853 187.372 71.1973 187.521 70.856L188.561 71.32C188.316 71.8853 187.932 72.328 187.409 72.648C186.887 72.968 186.22 73.128 185.409 73.128C184.833 73.128 184.316 73.032 183.857 72.84C183.409 72.6373 183.025 72.36 182.705 72.008C182.385 71.6453 182.14 71.2133 181.969 70.712C181.809 70.2 181.729 69.64 181.729 69.032ZM185.345 66.056C184.695 66.056 184.183 66.2587 183.809 66.664C183.436 67.0693 183.201 67.592 183.105 68.232H187.441C187.399 67.5707 187.196 67.0427 186.833 66.648C186.481 66.2533 185.985 66.056 185.345 66.056ZM186.289 72.984C186.055 73.1227 185.857 73.288 185.697 73.48C185.548 73.6827 185.473 73.8907 185.473 74.104C185.473 74.3493 185.548 74.5253 185.697 74.632C185.857 74.7387 186.044 74.792 186.257 74.792C186.577 74.792 186.855 74.664 187.089 74.408L187.617 75.096C187.425 75.288 187.207 75.432 186.961 75.528C186.716 75.6347 186.423 75.688 186.081 75.688C185.591 75.688 185.191 75.576 184.881 75.352C184.583 75.128 184.433 74.8027 184.433 74.376C184.433 74.056 184.545 73.7627 184.769 73.496C185.004 73.2293 185.271 72.9893 185.569 72.776L186.289 72.984ZM26.0034 89.096C26.2808 89.096 26.5368 89.1067 26.7714 89.128C27.0061 89.1387 27.2301 89.1547 27.4434 89.176V85.48H28.7714V97H27.6034V96.232C27.2514 96.5307 26.8941 96.7493 26.5314 96.888C26.1688 97.016 25.7421 97.08 25.2514 97.08C24.2381 97.08 23.4381 96.728 22.8514 96.024C22.2648 95.32 21.9714 94.3493 21.9714 93.112C21.9714 92.4187 22.0781 91.8213 22.2914 91.32C22.5048 90.8187 22.7928 90.4027 23.1554 90.072C23.5288 89.7413 23.9554 89.496 24.4354 89.336C24.9261 89.176 25.4488 89.096 26.0034 89.096ZM25.5074 96.024C25.9234 96.024 26.2808 95.9653 26.5794 95.848C26.8888 95.7307 27.1768 95.544 27.4434 95.288V90.232C27.2194 90.2107 27.0008 90.1947 26.7874 90.184C26.5848 90.1733 26.3448 90.168 26.0674 90.168C25.2568 90.168 24.5901 90.408 24.0674 90.888C23.5554 91.368 23.2994 92.1093 23.2994 93.112C23.2994 93.5067 23.3421 93.8853 23.4274 94.248C23.5128 94.6 23.6408 94.9093 23.8114 95.176C23.9928 95.432 24.2221 95.64 24.4994 95.8C24.7768 95.9493 25.1128 96.024 25.5074 96.024ZM37.5643 93.064C37.5643 93.6507 37.4896 94.1947 37.3403 94.696C37.191 95.1973 36.9616 95.6293 36.6523 95.992C36.3536 96.344 35.975 96.6213 35.5163 96.824C35.0683 97.0267 34.535 97.128 33.9163 97.128C33.2976 97.128 32.759 97.0267 32.3003 96.824C31.8416 96.6213 31.463 96.344 31.1643 95.992C30.8656 95.6293 30.6416 95.1973 30.4923 94.696C30.343 94.1947 30.2683 93.6507 30.2683 93.064C30.2683 92.4667 30.343 91.9227 30.4923 91.432C30.6416 90.9307 30.8656 90.504 31.1643 90.152C31.4736 89.7893 31.8523 89.5067 32.3003 89.304C32.759 89.1013 33.2976 89 33.9163 89C34.535 89 35.0683 89.1013 35.5163 89.304C35.975 89.5067 36.3536 89.7893 36.6523 90.152C36.9616 90.504 37.191 90.9307 37.3403 91.432C37.4896 91.9227 37.5643 92.4667 37.5643 93.064ZM36.2363 93.048C36.2363 92.0773 36.039 91.3413 35.6443 90.84C35.2603 90.3387 34.6843 90.088 33.9163 90.088C33.1483 90.088 32.567 90.3387 32.1723 90.84C31.7883 91.3413 31.5963 92.0773 31.5963 93.048C31.5963 94.0187 31.7883 94.76 32.1723 95.272C32.567 95.784 33.1483 96.04 33.9163 96.04C34.6843 96.04 35.2603 95.784 35.6443 95.272C36.039 94.76 36.2363 94.0187 36.2363 93.048ZM45.4332 86.264C46.9159 86.264 48.0305 86.6053 48.7772 87.288C49.5239 87.9707 49.8972 88.888 49.8972 90.04C49.8972 90.6907 49.7852 91.2613 49.5612 91.752C49.3479 92.2427 49.0439 92.6533 48.6492 92.984C48.2652 93.304 47.7959 93.544 47.2412 93.704C46.6865 93.864 46.0732 93.944 45.4012 93.944H43.3052V96.984H41.8492V86.264H45.4332ZM43.3052 92.728H45.4172C46.3559 92.728 47.0919 92.5093 47.6252 92.072C48.1585 91.624 48.4252 90.9467 48.4252 90.04C48.4252 89.24 48.1852 88.616 47.7052 88.168C47.2252 87.7093 46.4679 87.48 45.4332 87.48H43.3052V92.728ZM55.7436 91.608C55.7436 91.1067 55.6102 90.7227 55.3436 90.456C55.0769 90.1893 54.6876 90.056 54.1756 90.056C53.6742 90.056 53.2902 90.1787 53.0236 90.424C52.7569 90.6587 52.5702 90.9467 52.4636 91.288L51.3116 90.968C51.4822 90.4027 51.8236 89.9333 52.3356 89.56C52.8476 89.1867 53.4929 89 54.2716 89C54.7302 89 55.1356 89.0693 55.4876 89.208C55.8396 89.3467 56.1329 89.5387 56.3676 89.784C56.6022 90.0187 56.7782 90.3013 56.8956 90.632C57.0236 90.952 57.0876 91.2987 57.0876 91.672V97H55.9196V96.04C55.6102 96.4453 55.2529 96.728 54.8476 96.888C54.4529 97.048 54.0316 97.128 53.5836 97.128C52.7516 97.128 52.0956 96.9093 51.6156 96.472C51.1356 96.024 50.8956 95.464 50.8956 94.792C50.8956 94.3653 50.9916 93.976 51.1836 93.624C51.3862 93.272 51.6742 92.9947 52.0476 92.792L55.7436 92.472V91.608ZM53.8076 96.184C54.2129 96.184 54.5756 96.0987 54.8956 95.928C55.2262 95.7467 55.5089 95.4427 55.7436 95.016V93.4L52.6716 93.672C52.3302 93.9493 52.1596 94.3173 52.1596 94.776C52.1596 95.1813 52.2982 95.5173 52.5756 95.784C52.8529 96.0507 53.2636 96.184 53.8076 96.184ZM63.6886 90.232C63.4966 90.168 63.2886 90.1253 63.0646 90.104C62.8512 90.072 62.6272 90.056 62.3926 90.056C61.9126 90.056 61.5019 90.1307 61.1606 90.28C60.8299 90.4293 60.5579 90.6373 60.3446 90.904C60.1419 91.16 59.9926 91.4747 59.8966 91.848C59.8006 92.2107 59.7526 92.616 59.7526 93.064C59.7526 93.576 59.8112 94.0187 59.9286 94.392C60.0566 94.7653 60.2272 95.08 60.4406 95.336C60.6539 95.5813 60.8992 95.768 61.1766 95.896C61.4646 96.0133 61.7632 96.072 62.0726 96.072C62.5312 96.072 62.9419 95.9707 63.3046 95.768C63.6672 95.5547 63.9392 95.2453 64.1206 94.84L65.1446 95.288C64.9419 95.8 64.5739 96.2373 64.0406 96.6C63.5179 96.952 62.8352 97.128 61.9926 97.128C61.4806 97.128 61.0059 97.0373 60.5686 96.856C60.1312 96.6747 59.7526 96.4133 59.4326 96.072C59.1126 95.72 58.8619 95.2933 58.6806 94.792C58.5099 94.2907 58.4246 93.72 58.4246 93.08C58.4246 92.5147 58.4939 91.9867 58.6326 91.496C58.7819 91.0053 59.0166 90.5787 59.3366 90.216C59.6566 89.8427 60.0672 89.5493 60.5686 89.336C61.0699 89.1227 61.6779 89.016 62.3926 89.016C62.7979 89.016 63.2246 89.0587 63.6726 89.144C64.1206 89.2293 64.5099 89.3467 64.8406 89.496V91.528H63.6886V90.232ZM65.9901 90.2V89.128H71.9101V90.232L67.3341 95.928H71.9581V97H65.8301V95.96L70.4381 90.2H65.9901ZM73.3912 97V85.48H74.7192V92.44H75.8712L78.5272 89.128H79.9832L76.9752 92.84L80.1912 97H78.6552L75.8872 93.512H74.7192V97H73.3912ZM87.7987 93.064C87.7987 93.6507 87.724 94.1947 87.5747 94.696C87.4254 95.1973 87.196 95.6293 86.8867 95.992C86.588 96.344 86.2094 96.6213 85.7507 96.824C85.3027 97.0267 84.7694 97.128 84.1507 97.128C83.532 97.128 82.9934 97.0267 82.5347 96.824C82.076 96.6213 81.6974 96.344 81.3987 95.992C81.1 95.6293 80.876 95.1973 80.7267 94.696C80.5774 94.1947 80.5027 93.6507 80.5027 93.064C80.5027 92.4667 80.5774 91.9227 80.7267 91.432C80.876 90.9307 81.1 90.504 81.3987 90.152C81.708 89.7893 82.0867 89.5067 82.5347 89.304C82.9934 89.1013 83.532 89 84.1507 89C84.7694 89 85.3027 89.1013 85.7507 89.304C86.2094 89.5067 86.588 89.7893 86.8867 90.152C87.196 90.504 87.4254 90.9307 87.5747 91.432C87.724 91.9227 87.7987 92.4667 87.7987 93.064ZM86.4707 93.048C86.4707 92.0773 86.2734 91.3413 85.8787 90.84C85.4947 90.3387 84.9187 90.088 84.1507 90.088C83.3827 90.088 82.8014 90.3387 82.4067 90.84C82.0227 91.3413 81.8307 92.0773 81.8307 93.048C81.8307 94.0187 82.0227 94.76 82.4067 95.272C82.8014 95.784 83.3827 96.04 84.1507 96.04C84.9187 96.04 85.4947 95.784 85.8787 95.272C86.2734 94.76 86.4707 94.0187 86.4707 93.048ZM97.6338 89.016C98.0498 89.016 98.4338 89.0747 98.7858 89.192C99.1378 89.3093 99.4418 89.4907 99.6978 89.736C99.9538 89.9707 100.151 90.2747 100.29 90.648C100.439 91.0107 100.514 91.4373 100.514 91.928V97H99.1858V91.976C99.1858 91.3893 99.0525 90.9307 98.7858 90.6C98.5191 90.2587 98.0925 90.088 97.5058 90.088C96.8978 90.088 96.4231 90.2693 96.0818 90.632C95.7405 90.984 95.5698 91.4373 95.5698 91.992V97H94.2578V91.96C94.2578 91.3947 94.1085 90.9413 93.8098 90.6C93.5218 90.2587 93.1058 90.088 92.5618 90.088C92.2205 90.088 91.8898 90.152 91.5698 90.28C91.2498 90.3973 90.9458 90.568 90.6578 90.792V97H89.3298V89.128H90.6098V89.768C91.3138 89.2667 92.0391 89.016 92.7858 89.016C93.2338 89.016 93.6551 89.112 94.0498 89.304C94.4551 89.496 94.7805 89.816 95.0258 90.264C95.2925 89.8907 95.6445 89.592 96.0818 89.368C96.5298 89.1333 97.0471 89.016 97.6338 89.016ZM106.806 91.608C106.806 91.1067 106.673 90.7227 106.406 90.456C106.139 90.1893 105.75 90.056 105.238 90.056C104.737 90.056 104.353 90.1787 104.086 90.424C103.819 90.6587 103.633 90.9467 103.526 91.288L102.374 90.968C102.545 90.4027 102.886 89.9333 103.398 89.56C103.91 89.1867 104.555 89 105.334 89C105.793 89 106.198 89.0693 106.55 89.208C106.902 89.3467 107.195 89.5387 107.43 89.784C107.665 90.0187 107.841 90.3013 107.958 90.632C108.086 90.952 108.15 91.2987 108.15 91.672V97H106.982V96.04C106.673 96.4453 106.315 96.728 105.91 96.888C105.515 97.048 105.094 97.128 104.646 97.128C103.814 97.128 103.158 96.9093 102.678 96.472C102.198 96.024 101.958 95.464 101.958 94.792C101.958 94.3653 102.054 93.976 102.246 93.624C102.449 93.272 102.737 92.9947 103.11 92.792L106.806 92.472V91.608ZM104.87 96.184C105.275 96.184 105.638 96.0987 105.958 95.928C106.289 95.7467 106.571 95.4427 106.806 95.016V93.4L103.734 93.672C103.393 93.9493 103.222 94.3173 103.222 94.776C103.222 95.1813 103.361 95.5173 103.638 95.784C103.915 96.0507 104.326 96.184 104.87 96.184ZM112.287 97.128C111.562 97.128 110.98 96.9147 110.543 96.488C110.116 96.0613 109.903 95.432 109.903 94.6V86.968L111.231 86.808V89.128H113.999V90.2H111.231V94.584C111.231 95.096 111.354 95.464 111.599 95.688C111.855 95.912 112.17 96.024 112.543 96.024C112.778 96.024 112.986 95.9867 113.167 95.912C113.348 95.8373 113.53 95.7253 113.711 95.576L114.287 96.36C114.042 96.6053 113.759 96.7973 113.439 96.936C113.13 97.064 112.746 97.128 112.287 97.128ZM122.096 93.064C122.096 93.6507 122.021 94.1947 121.872 94.696C121.722 95.1973 121.493 95.6293 121.184 95.992C120.885 96.344 120.506 96.6213 120.048 96.824C119.6 97.0267 119.066 97.128 118.448 97.128C117.829 97.128 117.29 97.0267 116.832 96.824C116.373 96.6213 115.994 96.344 115.696 95.992C115.397 95.6293 115.173 95.1973 115.024 94.696C114.874 94.1947 114.8 93.6507 114.8 93.064C114.8 92.4667 114.874 91.9227 115.024 91.432C115.173 90.9307 115.397 90.504 115.696 90.152C116.005 89.7893 116.384 89.5067 116.832 89.304C117.29 89.1013 117.829 89 118.448 89C119.066 89 119.6 89.1013 120.048 89.304C120.506 89.5067 120.885 89.7893 121.184 90.152C121.493 90.504 121.722 90.9307 121.872 91.432C122.021 91.9227 122.096 92.4667 122.096 93.064ZM120.768 93.048C120.768 92.0773 120.57 91.3413 120.176 90.84C119.792 90.3387 119.216 90.088 118.448 90.088C117.68 90.088 117.098 90.3387 116.704 90.84C116.32 91.3413 116.128 92.0773 116.128 93.048C116.128 94.0187 116.32 94.76 116.704 95.272C117.098 95.784 117.68 96.04 118.448 96.04C119.216 96.04 119.792 95.784 120.176 95.272C120.57 94.76 120.768 94.0187 120.768 93.048ZM117.472 87.512L119.296 85.624C119.498 85.4213 119.696 85.32 119.888 85.32C120.037 85.32 120.17 85.368 120.288 85.464C120.405 85.56 120.48 85.6773 120.512 85.816C120.554 85.9547 120.549 86.0933 120.496 86.232C120.453 86.3707 120.341 86.488 120.16 86.584L117.872 87.896L117.472 87.512ZM127.883 89.128H129.163L131.083 95.848H131.115L132.955 89.128H134.315L132.027 97H130.331L128.523 90.728L126.731 97H125.019L122.731 89.128H124.091L125.931 95.848H125.979L127.883 89.128ZM138.846 97V90.216H137.726V89.128H140.174V97H138.846ZM138.318 86.216C138.318 85.9493 138.409 85.72 138.59 85.528C138.771 85.3253 139.006 85.224 139.294 85.224C139.571 85.224 139.806 85.3253 139.998 85.528C140.19 85.72 140.286 85.9493 140.286 86.216C140.286 86.504 140.185 86.7387 139.982 86.92C139.79 87.1013 139.561 87.192 139.294 87.192C139.017 87.192 138.782 87.1013 138.59 86.92C138.409 86.728 138.318 86.4933 138.318 86.216ZM145.799 97V90.216H144.679V89.128H147.127V97H145.799ZM145.271 86.216C145.271 85.9493 145.362 85.72 145.543 85.528C145.724 85.3253 145.959 85.224 146.247 85.224C146.524 85.224 146.759 85.3253 146.951 85.528C147.143 85.72 147.239 85.9493 147.239 86.216C147.239 86.504 147.138 86.7387 146.935 86.92C146.743 87.1013 146.514 87.192 146.247 87.192C145.97 87.192 145.735 87.1013 145.543 86.92C145.362 86.728 145.271 86.4933 145.271 86.216ZM153.262 89C154.201 89 154.905 89.2773 155.374 89.832C155.844 90.376 156.078 91.1493 156.078 92.152V97H154.75V92.216C154.75 91.5227 154.606 91 154.318 90.648C154.041 90.296 153.593 90.12 152.974 90.12C152.537 90.12 152.142 90.2 151.79 90.36C151.438 90.5093 151.108 90.728 150.798 91.016V97H149.47V89.128H150.75V89.944C151.092 89.6453 151.47 89.416 151.886 89.256C152.302 89.0853 152.761 89 153.262 89ZM161.841 89C162.779 89 163.483 89.2773 163.953 89.832C164.422 90.376 164.657 91.1493 164.657 92.152V97H163.329V92.216C163.329 91.5227 163.185 91 162.897 90.648C162.619 90.296 162.171 90.12 161.553 90.12C161.115 90.12 160.721 90.2 160.369 90.36C160.017 90.5093 159.686 90.728 159.377 91.016V97H158.049V89.128H159.329V89.944C159.67 89.6453 160.049 89.416 160.465 89.256C160.881 89.0853 161.339 89 161.841 89ZM168.307 98.664C168.744 98.664 169.107 98.536 169.395 98.28C169.693 98.024 169.917 97.608 170.067 97.032L170.211 96.504H168.371L165.683 89.128H167.059L169.267 95.368H170.531L172.147 89.128H173.523L171.235 97.064C170.979 97.9707 170.611 98.6373 170.131 99.064C169.651 99.5013 169.064 99.72 168.371 99.72C167.976 99.72 167.629 99.6613 167.331 99.544C167.032 99.4373 166.776 99.288 166.563 99.096L167.203 98.248C167.341 98.3867 167.507 98.488 167.699 98.552C167.901 98.6267 168.104 98.664 168.307 98.664ZM179.251 90.232C179.059 90.168 178.851 90.1253 178.627 90.104C178.414 90.072 178.19 90.056 177.955 90.056C177.475 90.056 177.064 90.1307 176.723 90.28C176.392 90.4293 176.12 90.6373 175.907 90.904C175.704 91.16 175.555 91.4747 175.459 91.848C175.363 92.2107 175.315 92.616 175.315 93.064C175.315 93.576 175.374 94.0187 175.491 94.392C175.619 94.7653 175.79 95.08 176.003 95.336C176.216 95.5813 176.462 95.768 176.739 95.896C177.027 96.0133 177.326 96.072 177.635 96.072C178.094 96.072 178.504 95.9707 178.867 95.768C179.23 95.5547 179.502 95.2453 179.683 94.84L180.707 95.288C180.504 95.8 180.136 96.2373 179.603 96.6C179.08 96.952 178.398 97.128 177.555 97.128C177.043 97.128 176.568 97.0373 176.131 96.856C175.694 96.6747 175.315 96.4133 174.995 96.072C174.675 95.72 174.424 95.2933 174.243 94.792C174.072 94.2907 173.987 93.72 173.987 93.08C173.987 92.5147 174.056 91.9867 174.195 91.496C174.344 91.0053 174.579 90.5787 174.899 90.216C175.219 89.8427 175.63 89.5493 176.131 89.336C176.632 89.1227 177.24 89.016 177.955 89.016C178.36 89.016 178.787 89.0587 179.235 89.144C179.683 89.2293 180.072 89.3467 180.403 89.496V91.528H179.251V90.232ZM185.793 89C186.731 89 187.435 89.2773 187.905 89.832C188.374 90.376 188.609 91.1493 188.609 92.152V97H187.281V92.216C187.281 91.5227 187.137 91 186.849 90.648C186.571 90.296 186.123 90.12 185.505 90.12C185.067 90.12 184.673 90.2 184.321 90.36C183.969 90.5093 183.638 90.728 183.329 91.016V97H182.001V85.48H183.329V89.896C183.67 89.6187 184.043 89.4 184.449 89.24C184.854 89.08 185.302 89 185.793 89ZM53.2567 121.032C52.6594 121.032 52.126 121 51.6567 120.936V123.624H50.3287V113.128H51.5767V113.816C51.918 113.539 52.2594 113.341 52.6007 113.224C52.9527 113.096 53.3634 113.032 53.8327 113.032C54.846 113.032 55.646 113.352 56.2327 113.992C56.8194 114.632 57.1127 115.576 57.1127 116.824C57.1127 117.539 57.006 118.163 56.7927 118.696C56.59 119.219 56.3127 119.656 55.9607 120.008C55.6087 120.349 55.198 120.605 54.7287 120.776C54.27 120.947 53.7794 121.032 53.2567 121.032ZM53.5927 114.12C53.1767 114.12 52.814 114.173 52.5047 114.28C52.206 114.387 51.9234 114.568 51.6567 114.824V119.912C51.9127 119.933 52.1634 119.955 52.4087 119.976C52.6647 119.987 52.9474 119.992 53.2567 119.992C54.014 119.992 54.622 119.731 55.0807 119.208C55.55 118.675 55.7847 117.864 55.7847 116.776C55.7847 115.976 55.614 115.336 55.2727 114.856C54.9314 114.365 54.3714 114.12 53.5927 114.12ZM61.7303 121.144C60.685 121.144 59.8743 120.867 59.2983 120.312C58.7223 119.747 58.4343 118.963 58.4343 117.96V113.144H59.7623V117.96C59.7623 118.664 59.933 119.192 60.2743 119.544C60.6156 119.885 61.101 120.056 61.7303 120.056C62.3596 120.056 62.845 119.88 63.1863 119.528C63.5383 119.165 63.7143 118.643 63.7143 117.96V113.144H65.0423V117.96C65.0423 118.931 64.7543 119.704 64.1783 120.28C63.6023 120.856 62.7863 121.144 61.7303 121.144ZM70.7781 113C71.7167 113 72.4207 113.277 72.8901 113.832C73.3594 114.376 73.5941 115.149 73.5941 116.152V121H72.2661V116.216C72.2661 115.523 72.1221 115 71.8341 114.648C71.5567 114.296 71.1087 114.12 70.4901 114.12C70.0527 114.12 69.6581 114.2 69.3061 114.36C68.9541 114.509 68.6234 114.728 68.3141 115.016V121H66.9861V113.128H68.2661V113.944C68.6074 113.645 68.9861 113.416 69.4021 113.256C69.8181 113.085 70.2767 113 70.7781 113ZM75.5162 121V109.48H76.8442V116.44H77.9962L80.6522 113.128H82.1082L79.1002 116.84L82.3162 121H80.7802L78.0122 117.512H76.8442V121H75.5162ZM85.5839 121.128C84.8586 121.128 84.2773 120.915 83.8399 120.488C83.4133 120.061 83.1999 119.432 83.1999 118.6V110.968L84.5279 110.808V113.128H87.2959V114.2H84.5279V118.584C84.5279 119.096 84.6506 119.464 84.8959 119.688C85.1519 119.912 85.4666 120.024 85.8399 120.024C86.0746 120.024 86.2826 119.987 86.4639 119.912C86.6453 119.837 86.8266 119.725 87.0079 119.576L87.5839 120.36C87.3386 120.605 87.0559 120.797 86.7359 120.936C86.4266 121.064 86.0426 121.128 85.5839 121.128ZM95.3924 117.064C95.3924 117.651 95.3178 118.195 95.1684 118.696C95.0191 119.197 94.7898 119.629 94.4804 119.992C94.1818 120.344 93.8031 120.621 93.3444 120.824C92.8964 121.027 92.3631 121.128 91.7444 121.128C91.1258 121.128 90.5871 121.027 90.1284 120.824C89.6698 120.621 89.2911 120.344 88.9924 119.992C88.6938 119.629 88.4698 119.197 88.3204 118.696C88.1711 118.195 88.0964 117.651 88.0964 117.064C88.0964 116.467 88.1711 115.923 88.3204 115.432C88.4698 114.931 88.6938 114.504 88.9924 114.152C89.3018 113.789 89.6804 113.507 90.1284 113.304C90.5871 113.101 91.1258 113 91.7444 113C92.3631 113 92.8964 113.101 93.3444 113.304C93.8031 113.507 94.1818 113.789 94.4804 114.152C94.7898 114.504 95.0191 114.931 95.1684 115.432C95.3178 115.923 95.3924 116.467 95.3924 117.064ZM94.0644 117.048C94.0644 116.077 93.8671 115.341 93.4724 114.84C93.0884 114.339 92.5124 114.088 91.7444 114.088C90.9764 114.088 90.3951 114.339 90.0004 114.84C89.6164 115.341 89.4244 116.077 89.4244 117.048C89.4244 118.019 89.6164 118.76 90.0004 119.272C90.3951 119.784 90.9764 120.04 91.7444 120.04C92.5124 120.04 93.0884 119.784 93.4724 119.272C93.8671 118.76 94.0644 118.019 94.0644 117.048ZM90.7684 111.512L92.5924 109.624C92.7951 109.421 92.9924 109.32 93.1844 109.32C93.3338 109.32 93.4671 109.368 93.5844 109.464C93.7018 109.56 93.7764 109.677 93.8084 109.816C93.8511 109.955 93.8458 110.093 93.7924 110.232C93.7498 110.371 93.6378 110.488 93.4564 110.584L91.1684 111.896L90.7684 111.512ZM101.18 113.128H102.46L104.38 119.848H104.412L106.252 113.128H107.612L105.324 121H103.628L101.82 114.728L100.028 121H98.3156L96.0276 113.128H97.3876L99.2276 119.848H99.2756L101.18 113.128ZM118.127 117.064C118.127 117.651 118.052 118.195 117.903 118.696C117.753 119.197 117.524 119.629 117.215 119.992C116.916 120.344 116.537 120.621 116.079 120.824C115.631 121.027 115.097 121.128 114.479 121.128C113.86 121.128 113.321 121.027 112.863 120.824C112.404 120.621 112.025 120.344 111.727 119.992C111.428 119.629 111.204 119.197 111.055 118.696C110.905 118.195 110.831 117.651 110.831 117.064C110.831 116.467 110.905 115.923 111.055 115.432C111.204 114.931 111.428 114.504 111.727 114.152C112.036 113.789 112.415 113.507 112.863 113.304C113.321 113.101 113.86 113 114.479 113C115.097 113 115.631 113.101 116.079 113.304C116.537 113.507 116.916 113.789 117.215 114.152C117.524 114.504 117.753 114.931 117.903 115.432C118.052 115.923 118.127 116.467 118.127 117.064ZM116.799 117.048C116.799 116.077 116.601 115.341 116.207 114.84C115.823 114.339 115.247 114.088 114.479 114.088C113.711 114.088 113.129 114.339 112.735 114.84C112.351 115.341 112.159 116.077 112.159 117.048C112.159 118.019 112.351 118.76 112.735 119.272C113.129 119.784 113.711 120.04 114.479 120.04C115.247 120.04 115.823 119.784 116.207 119.272C116.601 118.76 116.799 118.019 116.799 117.048ZM123.066 113.096C123.343 113.096 123.599 113.107 123.834 113.128C124.069 113.139 124.293 113.155 124.506 113.176V109.48H125.834V121H124.666V120.232C124.314 120.531 123.957 120.749 123.594 120.888C123.231 121.016 122.805 121.08 122.314 121.08C121.301 121.08 120.501 120.728 119.914 120.024C119.327 119.32 119.034 118.349 119.034 117.112C119.034 116.419 119.141 115.821 119.354 115.32C119.567 114.819 119.855 114.403 120.218 114.072C120.591 113.741 121.018 113.496 121.498 113.336C121.989 113.176 122.511 113.096 123.066 113.096ZM122.57 120.024C122.986 120.024 123.343 119.965 123.642 119.848C123.951 119.731 124.239 119.544 124.506 119.288V114.232C124.282 114.211 124.063 114.195 123.85 114.184C123.647 114.173 123.407 114.168 123.13 114.168C122.319 114.168 121.653 114.408 121.13 114.888C120.618 115.368 120.362 116.109 120.362 117.112C120.362 117.507 120.405 117.885 120.49 118.248C120.575 118.6 120.703 118.909 120.874 119.176C121.055 119.432 121.285 119.64 121.562 119.8C121.839 119.949 122.175 120.024 122.57 120.024ZM134.691 116.92C134.691 117.635 134.584 118.248 134.371 118.76C134.168 119.272 133.891 119.693 133.539 120.024C133.187 120.355 132.776 120.6 132.307 120.76C131.848 120.92 131.357 121 130.835 121H127.907V109.48H129.235V113.848C129.587 113.571 129.939 113.368 130.291 113.24C130.643 113.101 131.053 113.032 131.523 113.032C132.557 113.032 133.341 113.384 133.875 114.088C134.419 114.792 134.691 115.736 134.691 116.92ZM131.235 114.104C130.477 114.104 129.811 114.381 129.235 114.936V119.928H130.835C131.592 119.928 132.2 119.688 132.659 119.208C133.128 118.728 133.363 117.949 133.363 116.872C133.363 115.997 133.192 115.32 132.851 114.84C132.509 114.349 131.971 114.104 131.235 114.104ZM136.893 121V114.216H135.773V113.128H138.221V121H136.893ZM136.365 110.216C136.365 109.949 136.455 109.72 136.637 109.528C136.818 109.325 137.053 109.224 137.341 109.224C137.618 109.224 137.853 109.325 138.045 109.528C138.237 109.72 138.333 109.949 138.333 110.216C138.333 110.504 138.231 110.739 138.029 110.92C137.837 111.101 137.607 111.192 137.341 111.192C137.063 111.192 136.829 111.101 136.637 110.92C136.455 110.728 136.365 110.493 136.365 110.216ZM147.236 117.064C147.236 117.651 147.162 118.195 147.012 118.696C146.863 119.197 146.634 119.629 146.324 119.992C146.026 120.344 145.647 120.621 145.188 120.824C144.74 121.027 144.207 121.128 143.588 121.128C142.97 121.128 142.431 121.027 141.972 120.824C141.514 120.621 141.135 120.344 140.836 119.992C140.538 119.629 140.314 119.197 140.164 118.696C140.015 118.195 139.94 117.651 139.94 117.064C139.94 116.467 140.015 115.923 140.164 115.432C140.314 114.931 140.538 114.504 140.836 114.152C141.146 113.789 141.524 113.507 141.972 113.304C142.431 113.101 142.97 113 143.588 113C144.207 113 144.74 113.101 145.188 113.304C145.647 113.507 146.026 113.789 146.324 114.152C146.634 114.504 146.863 114.931 147.012 115.432C147.162 115.923 147.236 116.467 147.236 117.064ZM145.908 117.048C145.908 116.077 145.711 115.341 145.316 114.84C144.932 114.339 144.356 114.088 143.588 114.088C142.82 114.088 142.239 114.339 141.844 114.84C141.46 115.341 141.268 116.077 141.268 117.048C141.268 118.019 141.46 118.76 141.844 119.272C142.239 119.784 142.82 120.04 143.588 120.04C144.356 120.04 144.932 119.784 145.316 119.272C145.711 118.76 145.908 118.019 145.908 117.048ZM151.663 114.408C150.831 114.632 150.293 115.165 150.047 116.008V121H148.719V113.128H149.999V114.52C150.415 113.784 151.039 113.32 151.871 113.128H153.087V114.408H151.663ZM157.512 121.144C156.466 121.144 155.656 120.867 155.08 120.312C154.504 119.747 154.216 118.963 154.216 117.96V113.144H155.544V117.96C155.544 118.664 155.714 119.192 156.056 119.544C156.397 119.885 156.882 120.056 157.512 120.056C158.141 120.056 158.626 119.88 158.968 119.528C159.32 119.165 159.496 118.643 159.496 117.96V113.144H160.824V117.96C160.824 118.931 160.536 119.704 159.96 120.28C159.384 120.856 158.568 121.144 157.512 121.144Z" fill="black"/>
<rect x="16" y="176" width="178" height="40" rx="3" fill="#2A38E6"/>
<path d="M44.4361 200H42.7421L41.9161 197.536H37.4361L36.6241 200H34.8881L38.0801 190.648H41.2161L44.4361 200ZM40.0821 192.048H39.2421L37.8981 196.136H41.4541L40.0821 192.048ZM45.6366 190.648H47.3166V194.582H48.6746L51.7546 190.648H53.6586L50.1306 195.072L53.7846 200H51.8666L48.7446 195.912H47.3166V200H45.6366V190.648ZM61.5141 192.048H58.6161V199.986H56.9361V192.048H54.0381V190.648H61.5141V192.048ZM61.4707 190.648H63.4027L65.8107 195.128L68.2747 190.648H70.1787L66.6367 196.71V200H64.9567V196.682L61.4707 190.648ZM80.0979 198.544L81.9319 190.648H83.8079L81.2459 200H78.9079L77.0039 192.258L75.0579 200H72.7199L70.1719 190.648H72.0619L73.8679 198.628L75.9119 190.648H78.1099L80.0979 198.544ZM88.7525 200.112C87.4832 200.112 86.5079 199.785 85.8265 199.132C85.1452 198.469 84.8045 197.536 84.8045 196.332V190.648H86.4845V196.332C86.4845 197.153 86.6805 197.76 87.0725 198.152C87.4739 198.535 88.0339 198.726 88.7525 198.726C89.4805 198.726 90.0452 198.535 90.4465 198.152C90.8479 197.76 91.0485 197.153 91.0485 196.332V190.648H92.7145V196.332C92.7145 197.536 92.3739 198.469 91.6925 199.132C91.0112 199.785 90.0312 200.112 88.7525 200.112ZM97.0609 200.112C95.2782 200.112 94.2235 199.361 93.8969 197.858L95.5489 197.592C95.6515 197.993 95.8335 198.283 96.0949 198.46C96.3562 198.637 96.6782 198.726 97.0609 198.726C97.5182 198.726 97.8869 198.591 98.1669 198.32C98.4562 198.04 98.6009 197.578 98.6009 196.934V192.048H96.3889V190.648H100.267V196.934C100.267 197.401 100.192 197.83 100.043 198.222C99.8935 198.605 99.6789 198.936 99.3989 199.216C99.1282 199.496 98.7922 199.715 98.3909 199.874C97.9989 200.033 97.5555 200.112 97.0609 200.112ZM103.965 192.048V190.648H110.951V192.104L105.771 198.6H110.993V200H103.741V198.74L108.977 192.048H103.965ZM121.149 200H119.455L118.629 197.536H114.149L113.337 200H111.601L114.793 190.648H117.929L121.149 200ZM116.795 192.048H115.955L114.611 196.136H118.167L116.795 192.048ZM132.767 195.324C132.767 196.136 132.65 196.836 132.417 197.424C132.184 198.012 131.857 198.497 131.437 198.88C131.017 199.263 130.518 199.547 129.939 199.734C129.37 199.911 128.744 200 128.063 200H124.619V190.648H128.063C129.612 190.648 130.784 191.068 131.577 191.908C132.37 192.748 132.767 193.887 132.767 195.324ZM131.073 195.324C131.073 194.269 130.83 193.462 130.345 192.902C129.869 192.333 129.108 192.048 128.063 192.048H126.299V198.6H128.063C128.52 198.6 128.936 198.544 129.309 198.432C129.682 198.311 130 198.119 130.261 197.858C130.522 197.597 130.723 197.261 130.863 196.85C131.003 196.43 131.073 195.921 131.073 195.324ZM142.545 200H140.851L140.025 197.536H135.545L134.733 200H132.997L136.189 190.648H139.325L142.545 200ZM138.191 192.048H137.351L136.007 196.136H139.563L138.191 192.048ZM150.83 193.686C150.83 194.405 150.662 194.993 150.326 195.45C149.999 195.907 149.523 196.257 148.898 196.5L151.46 200H149.472L147.148 196.836H145.426V200H143.746V190.648H147.19C147.815 190.648 148.357 190.723 148.814 190.872C149.271 191.021 149.649 191.231 149.948 191.502C150.247 191.773 150.466 192.095 150.606 192.468C150.755 192.841 150.83 193.247 150.83 193.686ZM149.15 193.714C149.15 193.182 148.991 192.771 148.674 192.482C148.366 192.183 147.876 192.034 147.204 192.034H145.426V195.478H147.75C148.198 195.366 148.543 195.184 148.786 194.932C149.029 194.671 149.15 194.265 149.15 193.714ZM160.561 190.648H162.829V200H161.261V192.636L157.915 199.706H157.271L154.023 192.692V200H152.455V190.648H154.723L157.607 197.018L160.561 190.648ZM172.964 195.338C172.964 196.047 172.876 196.696 172.698 197.284C172.521 197.863 172.25 198.362 171.886 198.782C171.522 199.202 171.065 199.529 170.514 199.762C169.964 199.995 169.32 200.112 168.582 200.112C167.845 200.112 167.201 199.995 166.65 199.762C166.1 199.529 165.642 199.202 165.278 198.782C164.914 198.362 164.639 197.863 164.452 197.284C164.275 196.696 164.186 196.047 164.186 195.338C164.186 194.629 164.275 193.98 164.452 193.392C164.639 192.804 164.914 192.3 165.278 191.88C165.642 191.451 166.1 191.119 166.65 190.886C167.201 190.653 167.845 190.536 168.582 190.536C169.32 190.536 169.964 190.653 170.514 190.886C171.065 191.119 171.522 191.451 171.886 191.88C172.25 192.3 172.521 192.804 172.698 193.392C172.876 193.98 172.964 194.629 172.964 195.338ZM171.27 195.338C171.27 194.171 171.046 193.313 170.598 192.762C170.16 192.211 169.488 191.936 168.582 191.936C167.696 191.936 167.024 192.211 166.566 192.762C166.109 193.313 165.88 194.171 165.88 195.338C165.88 196.467 166.109 197.312 166.566 197.872C167.024 198.432 167.696 198.712 168.582 198.712C170.374 198.712 171.27 197.587 171.27 195.338Z" fill="white"/>
<path d="M166.307 18.6256C165.054 18.6256 164.148 19.0038 163.593 19.7615C163.037 20.5192 162.759 21.3936 162.759 22.3852V31.3545H164.199V23.9229H166.8V22.7519H164.146V22.2618C164.146 21.4347 164.337 20.8084 164.717 20.3824C165.098 19.9577 165.645 19.7446 166.36 19.7446C166.535 19.7446 166.708 19.7527 166.879 19.7703C167.048 19.7878 167.197 19.8201 167.326 19.8667L167.52 18.8177C167.367 18.7591 167.183 18.7126 166.967 18.6775C166.749 18.6424 166.529 18.6256 166.307 18.6256Z" fill="#2A38E6"/>
<path d="M170.251 23.6855C170.097 23.8581 169.972 24.0799 169.846 24.3024V22.7505H168.441V31.3537H169.899V25.8974C170.051 25.3621 170.321 24.9361 170.707 24.6212C171.001 24.3819 171.368 24.2404 171.771 24.1493H173.237V22.7505H171.885C171.204 22.9137 170.661 23.2251 170.251 23.6855Z" fill="#2A38E6"/>
<path d="M177.999 23.7586C178.725 23.7586 179.291 23.9972 179.695 24.4758C180.056 24.9032 180.231 25.4756 180.27 26.1544H175.588C175.677 25.5969 175.824 25.0853 176.094 24.6761C176.498 24.0646 177.134 23.7586 177.999 23.7586ZM177.964 22.622C176.676 22.622 175.699 23.0393 175.03 23.8725C174.363 24.7057 174.029 25.752 174.029 27.0106C174.029 28.3635 174.383 29.4475 175.092 30.2632C175.801 31.0789 176.794 31.4868 178.07 31.4868C178.96 31.4868 179.688 31.3128 180.257 30.9623C180.826 30.6124 181.25 30.1291 181.531 29.5116L180.371 29.0046C180.207 29.3767 179.95 29.6889 179.598 29.9396C179.247 30.1904 178.749 30.3158 178.105 30.3158C177.391 30.3158 176.775 30.059 176.26 29.5459C175.761 29.0498 175.509 28.2348 175.494 27.1157H181.584V26.4686C181.584 25.4082 181.273 24.5015 180.652 23.7498C180.032 22.9982 179.136 22.622 177.964 22.622Z" fill="#2A38E6"/>
<path d="M186.547 23.7586C187.274 23.7586 187.839 23.9972 188.243 24.4758C188.604 24.9032 188.779 25.4756 188.817 26.1544H184.135C184.225 25.5969 184.371 25.0853 184.641 24.6761C185.045 24.0646 185.681 23.7586 186.547 23.7586ZM190.131 26.4686C190.131 25.4082 189.821 24.5015 189.2 23.7498C188.579 22.9982 187.683 22.622 186.512 22.622C185.224 22.622 184.247 23.0393 183.578 23.8725C182.911 24.7057 182.577 25.752 182.577 27.0106C182.577 28.3635 182.93 29.4475 183.64 30.2632C184.348 31.0789 185.341 31.4868 186.618 31.4868C187.508 31.4868 188.236 31.3128 188.805 30.9623C189.373 30.6124 189.798 30.1291 190.078 29.5116L188.919 29.0046C188.755 29.3767 188.497 29.6889 188.146 29.9396C187.795 30.1904 187.297 30.3158 186.653 30.3158C185.938 30.3158 185.323 30.059 184.808 29.5459C184.309 29.0498 184.057 28.2348 184.041 27.1157H190.131V26.4686Z" fill="#2A38E6"/>
<path d="M87.5228 25.6695C87.5228 30.9951 83.1851 35.3122 77.8342 35.3122C72.4833 35.3122 68.1456 30.9951 68.1456 25.6695C68.1456 20.3439 72.4833 16.0268 77.8342 16.0268C83.1851 16.0268 87.5228 20.3439 87.5228 25.6695Z" fill="#2C31EE"/>
<path d="M84.5392 23.4947H80.3817L80.6635 24.336H82.2518L80.0403 26.2047L79.6048 26.57L79.7931 27.1141L80.6296 29.5692L78.3158 27.8441L77.8126 27.4707L77.3093 27.8441L75.0044 29.5692L75.8409 27.1141L76.0285 26.57L75.593 26.2047L73.374 24.336H76.737L76.9334 23.7583L77.8126 21.1238L78.7006 23.7583L78.8882 24.336H79.7762L79.4944 23.4947L79.3576 23.0781L77.8126 18.4738L76.1308 23.4947H71.086L75.047 26.8417L73.3313 31.8626L77.8126 28.5156L82.3026 31.8626L80.5869 26.8417L84.5392 23.4947Z" fill="#FFDB69"/>
<path d="M27.8916 26.6557V27.6244H22.2148C22.2467 27.9662 22.3388 28.2999 22.4878 28.61C22.6002 28.8486 22.7635 29.0603 22.966 29.2302C23.1428 29.3704 23.346 29.4742 23.5634 29.5356C23.7693 29.5929 23.982 29.6212 24.1954 29.6205C24.6024 29.6502 25.0082 29.5518 25.3563 29.3401C25.6103 29.15 25.8081 28.8945 25.9286 28.6012L27.8062 29.3657C27.559 30.0317 27.0882 30.5926 26.4746 30.9539C25.7559 31.3443 24.9452 31.535 24.1269 31.5067C22.9511 31.5768 21.8023 31.1373 20.9773 30.3007C20.1781 29.3536 19.7771 28.1361 19.8591 26.9018C19.855 26.3254 19.9444 25.7517 20.1239 25.203C20.2932 24.6967 20.5662 24.2309 20.9259 23.8352C21.2889 23.4422 21.7353 23.1348 22.2324 22.9345C22.8048 22.6966 23.4212 22.5813 24.0416 22.5948C24.5957 22.5847 25.1456 22.6918 25.655 22.9089C26.1108 23.1064 26.5206 23.3956 26.8586 23.7583C27.1946 24.1338 27.4506 24.5733 27.6098 25.0499C27.792 25.5657 27.8807 26.109 27.8746 26.6557H27.8916ZM22.2236 26.1036H25.7749C25.7634 25.656 25.5907 25.2279 25.2879 24.8969C24.9844 24.5855 24.5631 24.4156 24.1269 24.4297C23.663 24.3994 23.2064 24.5592 22.8637 24.872C22.5433 25.2124 22.3354 25.6418 22.2663 26.1036H22.2236ZM36.7348 31.3712H34.3702V26.1205C34.4014 25.6931 34.2937 25.267 34.0634 24.9057C33.8277 24.6333 33.4748 24.4911 33.1158 24.5228C32.8232 24.5181 32.5326 24.5727 32.2624 24.6846C32.0023 24.8025 31.7605 24.9569 31.5451 25.143V31.3793H29.1717V22.7303H31.4252V23.3761C32.093 22.8894 32.8943 22.6163 33.7214 22.5948C34.1122 22.5934 34.4983 22.6716 34.8572 22.824C35.2569 23.0046 35.5928 23.3006 35.8218 23.6734C36.1665 23.3316 36.575 23.0606 37.0254 22.8752C37.5381 22.6736 38.0874 22.5786 38.6388 22.5948C39.0269 22.5968 39.4143 22.6453 39.7909 22.739C40.1736 22.8415 40.5306 23.0208 40.8408 23.2655C41.1767 23.548 41.4402 23.9066 41.6089 24.3104C41.8311 24.8491 41.9354 25.4281 41.9164 26.0099V31.3625H39.6033V26.1205C39.6311 25.7038 39.5295 25.2886 39.3127 24.9306C39.0899 24.6407 38.7309 24.4864 38.3651 24.5228C37.9181 24.4992 37.4819 24.6697 37.1703 24.9906C36.8757 25.3088 36.7185 25.7301 36.7348 26.1629V31.3712ZM43.4187 22.7303H45.6214V23.3592C45.9337 23.1206 46.2859 22.9393 46.6625 22.824C47.0668 22.7033 47.4868 22.646 47.9088 22.6541C48.8889 22.615 49.8324 23.0255 50.4697 23.7671C51.1606 24.659 51.5061 25.7692 51.4431 26.8937C51.4451 27.4977 51.3469 28.097 51.1525 28.6693C50.9696 29.1958 50.679 29.6792 50.2991 30.0877C49.9258 30.5043 49.4612 30.8299 48.9417 31.0389C48.3517 31.2795 47.7184 31.3982 47.0811 31.3874H46.4234L45.7575 31.3193V34.0556H43.4187V22.7303ZM45.7406 25.0668V29.5019C45.9452 29.514 46.1504 29.514 46.355 29.5019H47.0553C47.6446 29.5417 48.2102 29.2666 48.5407 28.7799C48.9051 28.1705 49.0778 27.466 49.0358 26.7575C49.0358 25.2879 48.4466 24.5491 47.2687 24.5491C46.718 24.5275 46.1775 24.6987 45.7406 25.0331V25.0668ZM53.1499 24.6333H51.9551V22.7303H55.5226V31.3712H53.1499V24.6333ZM55.4034 18.7799V17.2934H52.5952V20.0884H54.0034C53.9431 20.3432 53.8422 20.5872 53.7047 20.8104C53.5313 21.0942 53.3247 21.3564 53.0903 21.5923L53.8842 22.3905C54.1483 22.1222 54.3956 21.8384 54.6265 21.5411C54.8087 21.2924 54.9638 21.0247 55.0878 20.7429C55.2104 20.4719 55.2957 20.1861 55.3438 19.8929C55.3906 19.5383 55.4136 19.1803 55.4122 18.8224L55.4034 18.7799ZM57.3325 18.9329H59.6889V26.0355H60.6108L62.8128 22.7303H65.3223L62.5994 26.6726L65.4848 31.3712H62.8812L60.6616 27.9211H59.6889V31.3962H57.3325V18.9329Z" fill="black"/>
<path d="M92.9657 24.6403V30.0946C93.5205 30.1452 93.9987 30.162 94.6733 30.162C96.286 30.162 97.3704 29.0329 97.3704 26.7638C97.3704 25.065 96.6877 23.9432 95.0228 23.9432C94.2709 23.8906 93.5293 24.1421 92.9657 24.6403ZM91.4207 22.7628H92.8546V23.5104C93.5388 22.926 94.4206 22.6219 95.3222 22.6603C97.533 22.6603 98.9066 24.105 98.9066 26.7894C98.9066 29.8486 96.9864 31.3687 94.6387 31.3687C94.0677 31.3687 93.4974 31.3323 92.9319 31.2582V34.1724H91.4207V22.7628Z" fill="#0000FF"/>
<path d="M100.485 22.7622H101.979V24.2406C102.399 23.4795 103.131 22.9402 103.985 22.7622H105.316V24.223H103.762C102.928 24.4428 102.276 25.092 102.056 25.9225V31.3169H100.485V22.7622Z" fill="#0000FF"/>
<path d="M107.652 26.1506H112.296C112.381 24.9567 111.478 23.9206 110.279 23.8363C110.211 23.8316 110.144 23.8296 110.076 23.8316C108.625 23.8316 107.883 24.774 107.652 26.1506ZM113.653 26.4991V27.1786H107.602C107.652 29.3702 108.83 30.254 110.162 30.254C111.102 30.3537 111.997 29.834 112.373 28.9718L113.593 29.4895C112.973 30.8202 111.578 31.6171 110.111 31.4775C107.55 31.4775 106.073 29.7019 106.073 27.0175C106.073 24.5279 107.456 22.6337 110.008 22.6337C112.365 22.6337 113.653 24.3918 113.653 26.4991Z" fill="#0000FF"/>
<path d="M122.24 31.3234H120.703V25.869C120.703 24.6461 120.054 23.8642 118.902 23.8642C118.153 23.883 117.43 24.1527 116.853 24.6286V31.3234H115.325V22.7687H116.803V23.4475C117.485 22.9271 118.315 22.6298 119.175 22.5981C120.172 22.5577 121.107 23.0801 121.591 23.9491C122.266 23.0572 123.338 22.5523 124.458 22.5981C126.061 22.4586 127.473 23.637 127.614 25.2306C127.63 25.4153 127.628 25.6007 127.609 25.7841V31.3234H126.09V25.8865C126.09 24.6286 125.543 23.8642 124.305 23.8642C123.228 23.8021 122.303 24.6212 122.24 25.6937C122.236 25.7632 122.236 25.8333 122.24 25.9034V31.3234Z" fill="#0000FF"/>
<path d="M131.007 18.4972C131.629 18.4925 132.137 18.9907 132.142 19.6102V19.627C132.133 20.2324 131.633 20.7157 131.024 20.7063H131.007C130.421 20.6922 129.956 20.2108 129.965 19.627C129.946 19.0311 130.408 18.5289 131.007 18.4972ZM130.494 24.0196H129.274V22.7624H132.022V31.3171H130.494V24.0196Z" fill="#0000FF"/>
<path d="M135.882 28.0153C135.882 29.4936 136.65 30.2412 137.982 30.2412C139.067 30.3316 140.02 29.5287 140.111 28.4487C140.123 28.3045 140.119 28.1588 140.099 28.0153V22.7739H141.635V28.0153C141.635 30.1226 140.286 31.4985 137.982 31.4985C135.677 31.4985 134.345 30.2075 134.345 28.0153V22.7739H135.882V28.0153Z" fill="#0000FF"/>
<path d="M150.597 31.3234H149.06V25.869C149.06 24.6461 148.411 23.8642 147.259 23.8642C146.51 23.8844 145.788 24.154 145.211 24.6286V31.3234H143.691V22.7687H145.159V23.4475C145.845 22.9251 146.678 22.6285 147.541 22.5981C148.535 22.559 149.467 23.0815 149.948 23.9491C150.624 23.0545 151.701 22.5496 152.824 22.5981C154.426 22.4586 155.838 23.637 155.979 25.2306C155.995 25.4153 155.994 25.6007 155.974 25.7841V31.3234H154.447V25.8865C154.447 24.6286 153.909 23.8642 152.663 23.8642C151.584 23.8021 150.66 24.6212 150.597 25.6937C150.593 25.7632 150.593 25.8333 150.597 25.9034V31.3234Z" fill="#0000FF"/>
</svg>
