<svg xmlns="http://www.w3.org/2000/svg" viewBox="0 0 1000 1000">
    <style>.st0{fill:#eceff4}</style>
    <g id="Ellipse_3_copy2_copy_10_xA0_Obraz_1_">
        <path d="M284.2 572c-17.8-33.5-27.8-71.7-27.8-112.3 0-132.5 107.5-240 240-240s240 107.5 240 240c0 41-10.3 79.5-28.4 113.3 87.4 55.9 151.2 145.3 173.6 250 73.9-87 118.4-199.8 118.4-323C1000 223.9 776.1 0 500 0S0 223.9 0 500c0 119 41.6 228.3 111 314.2 24.2-101.5 87.5-187.9 173.2-242.2z" class="st0"/><circle cx="496.4" cy="459.8" r="180" class="st0"/><path d="M162.4 868.8c89 81.5 207.5 131.2 337.6 131.2 126 0 241.1-46.6 329-123.5-9.4-107.3-69.3-200.1-155.8-254.4-43.9 47.8-106.8 77.7-176.8 77.7-70.4 0-133.7-30.3-177.6-78.6-85.2 52.9-144.9 143-156.4 247.6z" class="st0"/></g></svg>
