<svg xmlns="http://www.w3.org/2000/svg" xmlns:xlink="http://www.w3.org/1999/xlink" viewBox="0 0 74.84 74.84"><defs><style>.cls-1{fill:none;}.cls-2{clip-path:url(#clip-path);}.cls-3{fill:#fff;}</style><clipPath id="clip-path" transform="translate(0)"><rect class="cls-1" width="74.84" height="74.84"/></clipPath></defs><title>Zasób 4</title><g id="Warstwa_2" data-name="Warstwa 2"><g id="Layer_1" data-name="Layer 1"><g class="cls-2"><path d="M74.84,37.42A37.42,37.42,0,1,1,37.42,0,37.43,37.43,0,0,1,74.84,37.42" transform="translate(0)"/></g><path class="cls-3" d="M53.29,27.44H42.77V38.81H16.45v-18H42.77v3.79h2.95V18H13.5V53.08h6.4a6.35,6.35,0,0,0,11.62,0h8.35v-2.9H32.05a6.14,6.14,0,0,0-6.34-5.68,6.14,6.14,0,0,0-6.34,5.68H16.45V41.71H58.38v8.47H55.46a6.33,6.33,0,1,0-.52,2.9h6.39V39.16Zm-7.57,2.9h6.07l5.76,8.47H45.72ZM22.31,50.68A3.4,3.4,0,1,1,25.71,54,3.35,3.35,0,0,1,22.31,50.68Zm30.22,0a3.41,3.41,0,1,1-3.4-3.29A3.35,3.35,0,0,1,52.53,50.68Z" transform="translate(0)"/></g></g></svg>